<?xml version="1.0" encoding="UTF-8"?>
<svg version="1.1" xmlns="http://www.w3.org/2000/svg" width="250" height="209">
<path d="M0 0 C1.32 0 2.64 0 4 0 C5.48876953 1.50610352 5.48876953 1.50610352 6.8828125 3.62890625 C7.40496338 4.40862793 7.92711426 5.18834961 8.46508789 5.99169922 C9.01285889 6.84006348 9.56062988 7.68842773 10.125 8.5625 C10.70048584 9.43148926 11.27597168 10.30047852 11.86889648 11.19580078 C13.04038487 12.9661149 14.20667134 14.73988254 15.36767578 16.51708984 C16.77090866 18.65153171 18.19886097 20.76293418 19.65234375 22.86328125 C31.04290814 39.38643395 42.32195831 57.53580634 48.5859375 76.71484375 C52.34845051 88.19717545 57.33909516 95.91543017 65.27832031 104.96240234 C68.22505462 108.44984485 70.85680894 112.15523506 73.5 115.875 C74.0357666 116.62676514 74.5715332 117.37853027 75.12353516 118.15307617 C76.20841161 119.67682114 77.29223264 121.2013181 78.375 122.7265625 C79.98312153 124.97638637 81.61222991 127.20918781 83.25 129.4375 C98.35181469 150.01562243 112.13020547 171.49006372 123.25 194.5 C123.63317383 195.28318604 124.01634766 196.06637207 124.41113281 196.87329102 C126.2104335 200.70755525 127.51661835 203.66040589 127 208 C124.66562047 209.16718976 123.26934373 209.13867858 120.66821289 209.16113281 C119.768694 209.17074036 118.86917511 209.1803479 117.94239807 209.19024658 C116.96238327 209.19449646 115.98236847 209.19874634 114.97265625 209.203125 C113.95513779 209.20882507 112.93761932 209.21452515 111.88926697 209.22039795 C109.72119183 209.22986828 107.55310217 209.23638996 105.38500977 209.24023438 C102.13465251 209.24978793 98.88497013 209.2807253 95.63476562 209.3125 C79.30972975 209.3964605 63.52823877 208.10334776 47.8125 203.4375 C46.96647217 203.19136963 46.12044434 202.94523926 45.2487793 202.69165039 C32.33792409 198.76664715 19.4865114 193.58370904 7.66796875 187.06640625 C3.95647848 185.18297039 3.95647848 185.18297039 -0.1875 185.46875 C-1.115625 185.9740625 -2.04375 186.479375 -3 187 C-4.0725 187.5259375 -5.145 188.051875 -6.25 188.59375 C-6.84312988 188.89708252 -7.43625977 189.20041504 -8.04736328 189.51293945 C-16.78506436 193.92985936 -25.86115134 197.20687428 -35.125 200.3125 C-36.3625 200.73273438 -37.6 201.15296875 -38.875 201.5859375 C-53.85673101 206.51122116 -68.68737535 209.16389837 -84.46484375 209.1328125 C-85.5387587 209.13376923 -86.61267365 209.13472595 -87.71913147 209.13571167 C-89.97396911 209.13638889 -92.22880874 209.13456673 -94.48364258 209.13037109 C-97.95072732 209.12497943 -101.41768468 209.13035039 -104.88476562 209.13671875 C-107.07812529 209.13605861 -109.27148487 209.13477877 -111.46484375 209.1328125 C-112.50640121 209.13483673 -113.54795868 209.13686096 -114.62107849 209.13894653 C-116.05375816 209.13421829 -116.05375816 209.13421829 -117.51538086 209.12939453 C-118.35951035 209.12859894 -119.20363983 209.12780334 -120.073349 209.12698364 C-122 209 -122 209 -123 208 C-122.61794111 202.58295068 -121.01027231 198.36032709 -118.5 193.625 C-118.14107666 192.93148437 -117.78215332 192.23796875 -117.41235352 191.5234375 C-116.65580353 190.06572282 -115.894751 188.61033682 -115.12939453 187.15722656 C-114.06410229 185.12244008 -113.02648297 183.07606654 -111.99609375 181.0234375 C-102.35150655 162.03180641 -90.56181336 144.1736126 -78 127 C-77.43925781 126.22817383 -76.87851563 125.45634766 -76.30078125 124.66113281 C-57.85291124 99.28004013 -57.85291124 99.28004013 -50.9140625 91.73046875 C-48.18757357 87.84104883 -46.98159151 83.67216808 -45.5 79.1875 C-36.10084478 52.28855757 -20.39859932 20.39859932 0 0 Z " fill="#4B1549" transform="translate(123,0)"/>
<path d="M0 0 C1.65 0 3.3 0 5 0 C5 0.66 5 1.32 5 2 C5.61875 2.04125 6.2375 2.0825 6.875 2.125 C7.57625 2.41375 8.2775 2.7025 9 3 C9.25523437 3.81855469 9.51046875 4.63710938 9.7734375 5.48046875 C11.41846147 10.20074454 14.02381467 14.02175986 16.75 18.1875 C29 37.23797071 29 37.23797071 29 41 C29.66 41.33 30.32 41.66 31 42 C31 42.99 31 43.98 31 45 C31.66 45.33 32.32 45.66 33 46 C41.41649096 61.80514409 48.43920792 80.84998897 47 99 C46.33355469 99.3403125 45.66710937 99.680625 44.98046875 100.03125 C38.63218821 103.36964648 32.90870318 107.0986406 27.21484375 111.4609375 C25 113 25 113 23 113 C23 113.66 23 114.32 23 115 C21.33963705 116.34117501 19.67168707 117.67296651 18 119 C16.43195609 120.75049758 14.91153249 122.54463618 13.4375 124.375 C12.66019531 125.33921875 11.88289063 126.3034375 11.08203125 127.296875 C9.48624387 129.36870402 8.01417351 131.41519504 6.625 133.625 C5 136 5 136 2 137 C1.47792969 136.27296875 0.95585938 135.5459375 0.41796875 134.796875 C-10.50751675 119.87239394 -22.17989339 107.45252832 -39 99 C-39.60642012 88.21919795 -38.08157468 79.24743855 -35 69 C-34.63777344 67.77410156 -34.27554688 66.54820313 -33.90234375 65.28515625 C-30.71749887 55.16922523 -26.43940358 45.61687177 -22 36 C-22.53109375 36.83144531 -23.0621875 37.66289063 -23.609375 38.51953125 C-24.31578125 39.60621094 -25.0221875 40.69289062 -25.75 41.8125 C-26.44609375 42.89144531 -27.1421875 43.97039063 -27.859375 45.08203125 C-29.76585014 47.68082126 -31.31641095 49.27742595 -34 51 C-32.58240585 45.17469508 -30.27612509 40.26504415 -27.4375 35 C-26.77584839 33.7634668 -26.77584839 33.7634668 -26.10083008 32.50195312 C-23.201823 27.12762805 -20.25440239 21.78046301 -17.1875 16.5 C-16.83937256 15.88382813 -16.49124512 15.26765625 -16.13256836 14.6328125 C-13.91054516 10.89757407 -11.86864345 8.94366627 -8 7 C-7.01 6.34 -6.02 5.68 -5 5 C-4.01 5 -3.02 5 -2 5 C-1.34 3.35 -0.68 1.7 0 0 Z " fill="#4C2167" transform="translate(122,17)"/>
<path d="M0 0 C1 3 1 3 0.5546875 5.6171875 C-0.26169282 10.5959576 0.02795849 15.51331769 0.21484375 20.54296875 C0.32335927 26.45213222 0.32335927 26.45213222 -1.5078125 29.5546875 C-2.00023438 30.03164062 -2.49265625 30.50859375 -3 31 C-2.01 30.34 -1.02 29.68 0 29 C0.35191406 29.71542969 0.70382813 30.43085937 1.06640625 31.16796875 C5.59677908 40.31151495 10.26936381 49.3852327 15.4375 58.1875 C17 61 17 61 17 63 C17.66 63 18.32 63 19 63 C22.8821171 70.54239894 25.69000824 76.27997212 23.1875 84.75 C22 87 22 87 20.4375 89.0625 C18.94296201 91.07687729 18.43661788 92.55493989 18 95 C17.34 95 16.68 95 16 95 C15.34 94.34 14.68 93.68 14 93 C13.38125 93.9075 12.7625 94.815 12.125 95.75 C9.13672962 99.39946813 5.69656759 100.58123358 1.3046875 102.04296875 C-1.08406825 103.0349097 -2.32671831 104.05877451 -4 106 C4.91344542 104.30951897 13.38128859 101.34978827 21.74609375 97.8515625 C24.29657633 96.88794863 26.29588813 96.84547932 29 97 C29 97.66 29 98.32 29 99 C30.98 98.67 32.96 98.34 35 98 C33.97634824 101.11778903 33.13961526 101.92582332 30.19140625 103.4921875 C8.74120047 111.66589347 -12.30517549 118.17844329 -35.46484375 118.1328125 C-36.5387587 118.13376923 -37.61267365 118.13472595 -38.71913147 118.13571167 C-40.97396911 118.13638889 -43.22880874 118.13456673 -45.48364258 118.13037109 C-48.95072732 118.12497943 -52.41768468 118.13035039 -55.88476562 118.13671875 C-58.07812529 118.13605861 -60.27148487 118.13477877 -62.46484375 118.1328125 C-63.50640121 118.13483673 -64.54795868 118.13686096 -65.62107849 118.13894653 C-67.05375816 118.13421829 -67.05375816 118.13421829 -68.51538086 118.12939453 C-69.35951035 118.12859894 -70.20363983 118.12780334 -71.073349 118.12698364 C-73 118 -73 118 -74 117 C-73.61794111 111.58295068 -72.01027231 107.36032709 -69.5 102.625 C-69.14107666 101.93148437 -68.78215332 101.23796875 -68.41235352 100.5234375 C-67.65580353 99.06572282 -66.894751 97.61033682 -66.12939453 96.15722656 C-65.06410229 94.12244008 -64.02648297 92.07606654 -62.99609375 90.0234375 C-53.35315106 71.03504469 -41.57271255 53.16250053 -29 36 C-28.42862305 35.21753906 -27.85724609 34.43507812 -27.26855469 33.62890625 C-23.7261211 28.78317861 -20.1606542 23.9551627 -16.58056641 19.13720703 C-15.14986095 17.20263867 -13.73381671 15.2585645 -12.32421875 13.30859375 C-8.58811074 8.19106765 -5.16748248 3.70998742 0 0 Z " fill="#631437" transform="translate(74,91)"/>
<path d="M0 0 C4.24707523 3.98944015 7.61954729 8.32594444 11 13.0625 C11.56323975 13.84906982 12.12647949 14.63563965 12.70678711 15.44604492 C26.03331391 34.21348115 38.2265964 53.75880038 48.25 74.5 C48.63317383 75.28318604 49.01634766 76.06637207 49.41113281 76.87329102 C51.2104335 80.70755525 52.51661835 83.66040589 52 88 C49.66562047 89.16718976 48.26934373 89.13867858 45.66821289 89.16113281 C44.768694 89.17074036 43.86917511 89.1803479 42.94239807 89.19024658 C41.96238327 89.19449646 40.98236847 89.19874634 39.97265625 89.203125 C38.95513779 89.20882507 37.93761932 89.21452515 36.88926697 89.22039795 C34.72119183 89.22986828 32.55310217 89.23638996 30.38500977 89.24023438 C27.13465251 89.24978793 23.88497013 89.2807253 20.63476562 89.3125 C4.11035731 89.39772636 -11.74106844 88.03944865 -27.625 83.25 C-28.91241089 82.87137817 -28.91241089 82.87137817 -30.22583008 82.48510742 C-36.15103179 80.68977404 -41.94576396 78.6269791 -47.6875 76.3125 C-48.75701904 75.88469238 -48.75701904 75.88469238 -49.84814453 75.44824219 C-53.32213225 73.98036005 -54.8572105 73.21418424 -57 70 C-54.69 70 -52.38 70 -50 70 C-50 69.34 -50 68.68 -50 68 C-45.54051738 68.85953747 -41.27915571 69.74806883 -37.125 71.625 C-34.11136333 73.20136931 -34.11136333 73.20136931 -31 73 C-30.34 72.01 -29.68 71.02 -29 70 C-28.195625 69.690625 -27.39125 69.38125 -26.5625 69.0625 C-23.64245 67.85174756 -22.6657752 66.63017137 -21 64 C-22.546875 63.13375 -22.546875 63.13375 -24.125 62.25 C-33.80372807 56.66611842 -33.80372807 56.66611842 -37 51 C-39.06954847 49.21655822 -39.06954847 49.21655822 -41 48 C-39.7770967 41.02389256 -37.59834236 35.81577713 -34 29.75 C-30.06039392 23.09052295 -30.06039392 23.09052295 -27 16 C-26.34 16 -25.68 16 -25 16 C-24.9175 15.175 -24.835 14.35 -24.75 13.5 C-23.83552731 9.23246079 -22.07776822 5.80763106 -20 2 C-16.57854063 4.24164579 -15.08056421 6.53239298 -13 10 C-11.67607028 11.01241685 -10.34400833 12.01439389 -9 13 C-8.505 14.485 -8.505 14.485 -8 16 C-7.01 16.66 -6.02 17.32 -5 18 C-3.89453125 19.77734375 -3.89453125 19.77734375 -2.8125 21.9375 C-0.33244213 26.58022739 2.61602096 30.68215606 5.75 34.90234375 C10.03274904 40.798559 14.01087225 46.90276753 18 53 C18.57621094 53.87914062 19.15242188 54.75828125 19.74609375 55.6640625 C23 60.7338881 23 60.7338881 23 63 C23.66 63 24.32 63 25 63 C21.535 57.06 21.535 57.06 18 51 C19.32 49.68 20.64 48.36 22 47 C23.25426264 39.56092505 17.49768982 32.80258679 13.46923828 27.11425781 C11.53962578 24.4366601 9.58464217 21.77959107 7.60449219 19.13916016 C-0.54470987 8.26658206 -0.54470987 8.26658206 -0.5625 3.1875 C-0.2840625 1.6096875 -0.2840625 1.6096875 0 0 Z " fill="#AD372F" transform="translate(198,120)"/>
<path d="M0 0 C1.65 0 3.3 0 5 0 C5 0.66 5 1.32 5 2 C5.61875 2.04125 6.2375 2.0825 6.875 2.125 C7.57625 2.41375 8.2775 2.7025 9 3 C9.25523437 3.81855469 9.51046875 4.63710938 9.7734375 5.48046875 C11.41846147 10.20074454 14.02381467 14.02175986 16.75 18.1875 C29 37.23797071 29 37.23797071 29 41 C29.99 41.495 29.99 41.495 31 42 C31 42.99 31 43.98 31 45 C31.99 45.495 31.99 45.495 33 46 C41.41649096 61.80514409 48.43920792 80.84998897 47 99 C46.33355469 99.3403125 45.66710937 99.680625 44.98046875 100.03125 C38.63218821 103.36964648 32.90870318 107.0986406 27.21484375 111.4609375 C25 113 25 113 23 113 C23 113.66 23 114.32 23 115 C21.33963705 116.34117501 19.67168707 117.67296651 18 119 C16.43195609 120.75049758 14.91153249 122.54463618 13.4375 124.375 C12.66148437 125.33792969 11.88546875 126.30085938 11.0859375 127.29296875 C9.47320078 129.38590236 7.97639431 131.46035069 6.5625 133.6875 C6.046875 134.450625 5.53125 135.21375 5 136 C4.34 136 3.68 136 3 136 C3.02320312 134.87980469 3.04640625 133.75960937 3.0703125 132.60546875 C3.08907237 131.13281916 3.10727234 129.66016237 3.125 128.1875 C3.14175781 127.44951172 3.15851563 126.71152344 3.17578125 125.95117188 C3.21074628 122.08753574 3.19397555 120.29096332 1 117 C-0.00821499 108.39583969 -0.86365504 96.08735352 4.23046875 88.81640625 C6.9375 86.875 6.9375 86.875 9.6875 85.34765625 C12.40789164 84.08349526 12.40789164 84.08349526 13.4375 80.3125 C13.7159375 78.6728125 13.7159375 78.6728125 14 77 C15.5625 74.1875 15.5625 74.1875 17 72 C17.33 71.34 17.66 70.68 18 70 C17.01 69.01 17.01 69.01 16 68 C14.80232981 65.82687795 13.66406886 63.65837681 12.5625 61.4375 C12.24829102 60.80996826 11.93408203 60.18243652 11.61035156 59.53588867 C9.56720467 55.37540538 7.90469618 51.25825786 6.703125 46.76953125 C6.09570333 44.89334255 6.09570333 44.89334255 4.484375 43.51171875 C1.47827344 40.45024163 1.82961998 36.2293593 1.68359375 32.140625 C1.64169922 31.02558594 1.59980469 29.91054688 1.55664062 28.76171875 C1.51732422 27.60285156 1.47800781 26.44398437 1.4375 25.25 C1.39431641 24.07566406 1.35113281 22.90132812 1.30664062 21.69140625 C1.20065206 18.79438549 1.09858362 15.89728065 1 13 C0.01 14.98 -0.98 16.96 -2 19 C-2.99 19 -3.98 19 -5 19 C-6.4694809 20.76732099 -6.4694809 20.76732099 -7.6875 23 C-8.12449219 23.7425 -8.56148437 24.485 -9.01171875 25.25 C-9.33785156 25.8275 -9.66398437 26.405 -10 27 C-10.65234375 25.234375 -10.65234375 25.234375 -11 23 C-10.00390625 21.078125 -10.00390625 21.078125 -8.5625 19.25 C-8.08941406 18.63640625 -7.61632812 18.0228125 -7.12890625 17.390625 C-6.75636719 16.93171875 -6.38382813 16.4728125 -6 16 C-10.00972202 19.67557852 -12.45335415 23.18966896 -15 28 C-15.33 27.34 -15.66 26.68 -16 26 C-16.763125 26.763125 -17.52625 27.52625 -18.3125 28.3125 C-19.199375 29.199375 -20.08625 30.08625 -21 31 C-21.556875 31.598125 -22.11375 32.19625 -22.6875 32.8125 C-24 34 -24 34 -26 34 C-24.31989309 29.38422242 -22.02085395 25.20854029 -19.625 20.9375 C-19.23828125 20.23044922 -18.8515625 19.52339844 -18.453125 18.79492188 C-14.98093717 12.59042517 -11.18191357 8.68284212 -5 5 C-4.01 5 -3.02 5 -2 5 C-1.34 3.35 -0.68 1.7 0 0 Z " fill="#874A9C" transform="translate(122,17)"/>
<path d="M0 0 C2.1875 0.3125 2.1875 0.3125 4 1 C4 1.66 4 2.32 4 3 C5.0828125 3.3403125 5.0828125 3.3403125 6.1875 3.6875 C9.57266877 5.26724543 11.40424959 7.32276863 14 10 C14.75539062 10.72058594 15.51078125 11.44117188 16.2890625 12.18359375 C26.09444965 21.64464456 34.01557376 32.06783322 41.1875 43.625 C41.66952881 44.39521484 42.15155762 45.16542969 42.64819336 45.95898438 C43.30766968 47.05049805 43.30766968 47.05049805 43.98046875 48.1640625 C44.37129639 48.80811035 44.76212402 49.4521582 45.16479492 50.11572266 C46 52 46 52 46 56 C40.89708305 57.64474183 36.33650456 56.33351576 31.25 55.25 C30.3940625 55.07984375 29.538125 54.9096875 28.65625 54.734375 C13.6401479 51.6401479 13.6401479 51.6401479 10 48 C12.64 48.33 15.28 48.66 18 49 C16.47632813 48.38125 16.47632813 48.38125 14.921875 47.75 C3.81000937 43.12942537 -5.61431768 37.62692383 -15 30 C-13.76941174 23.03361901 -11.60098361 17.72160812 -8.0625 11.625 C-7.61970703 10.83222656 -7.17691406 10.03945312 -6.72070312 9.22265625 C-2.81329268 2.33955767 -2.81329268 2.33955767 0 0 Z " fill="#D64A10" transform="translate(172,138)"/>
<path d="M0 0 C0.928125 1.175625 0.928125 1.175625 1.875 2.375 C4.52596853 5.69771114 4.52596853 5.69771114 8 8 C9.68724382 12.89121945 9.4659647 18.26042464 9.625 23.375 C9.73134766 24.91800781 9.73134766 24.91800781 9.83984375 26.4921875 C9.91520781 29.57021446 9.85527257 32.0380826 9 35 C6.34191919 37.76170377 3.44133599 39.36995129 0 41 C-0.95120728 41.50321777 -0.95120728 41.50321777 -1.92163086 42.01660156 C-3.26110732 42.71733051 -4.6274434 43.36651234 -6 44 C-5.505 45.98 -5.505 45.98 -5 48 C-5.33 47.34 -5.66 46.68 -6 46 C-6.67804688 46.25394531 -7.35609375 46.50789063 -8.0546875 46.76953125 C-11.02863496 47.86931514 -14.01196571 48.93911426 -17 50 C-18.22009766 50.44472656 -18.22009766 50.44472656 -19.46484375 50.8984375 C-26.36913477 53.21901452 -33.70877509 54.43614609 -41 54 C-42.91015625 52.5078125 -42.91015625 52.5078125 -44 51 C-36.22006857 37.53685626 -27.75689265 25.31945597 -17 14 C-16.51031738 13.48308594 -16.02063477 12.96617187 -15.51611328 12.43359375 C-13.93837228 10.77806644 -12.34697524 9.13696709 -10.75 7.5 C-10.25459717 6.98308594 -9.75919434 6.46617187 -9.2487793 5.93359375 C-6.37281319 3.03199687 -3.92045553 1.20189148 0 0 Z " fill="#E35C12" transform="translate(76,140)"/>
<path d="M0 0 C0 0.66 0 1.32 0 2 C2.97 1.505 2.97 1.505 6 1 C4.97634824 4.11778903 4.13961526 4.92582332 1.19140625 6.4921875 C-19.46717018 14.36423923 -40.20245211 21.18685074 -62.5390625 21.1328125 C-63.42355072 21.13376923 -64.30803894 21.13472595 -65.21932983 21.13571167 C-67.07655916 21.13638811 -68.93379092 21.1345715 -70.79101562 21.13037109 C-73.62375205 21.12500237 -76.45633086 21.13034093 -79.2890625 21.13671875 C-81.10156285 21.13605812 -82.9140631 21.13477728 -84.7265625 21.1328125 C-85.5673233 21.13483673 -86.40808411 21.13686096 -87.27432251 21.13894653 C-91.62916557 21.12167045 -95.71167682 20.87116027 -100 20 C-99.21366078 18.85050412 -98.42073742 17.70551011 -97.625 16.5625 C-96.96371094 15.60537109 -96.96371094 15.60537109 -96.2890625 14.62890625 C-95 13 -95 13 -93 12 C-91.24967187 11.89320094 -89.4956535 11.84450606 -87.7421875 11.82421875 C-76.00801396 11.59684256 -64.52376233 11.09593498 -52.9375 9.125 C-51.98278809 8.96346436 -51.02807617 8.80192871 -50.04443359 8.63549805 C-39.00032737 6.71567433 -39.00032737 6.71567433 -29 2 C-28.01 2.99 -28.01 2.99 -27 4 C-28.98 5.65 -30.96 7.3 -33 9 C-24.08655458 7.30951897 -15.61871141 4.34978827 -7.25390625 0.8515625 C-4.70342367 -0.11205137 -2.70411187 -0.15452068 0 0 Z " fill="#DF615C" transform="translate(103,188)"/>
<path d="M0 0 C2.39453581 3.59180371 4.49994219 7.3071244 6.625 11.0625 C7.04523438 11.79533203 7.46546875 12.52816406 7.8984375 13.28320312 C8.29546875 13.98509766 8.6925 14.68699219 9.1015625 15.41015625 C9.46588379 16.05090088 9.83020508 16.69164551 10.20556641 17.35180664 C11 19 11 19 11 21 C11.66 21 12.32 21 13 21 C16.8821171 28.54239894 19.69000824 34.27997212 17.1875 42.75 C16 45 16 45 14.4375 47.0625 C12.94296201 49.07687729 12.43661788 50.55493989 12 53 C11.34 53 10.68 53 10 53 C9.34 52.34 8.68 51.68 8 51 C7.319375 51.94875 6.63875 52.8975 5.9375 53.875 C3.09072151 57.29762258 0.44745584 58.34111765 -4 59 C-4.99 58.34 -5.98 57.68 -7 57 C-7.1875 54.375 -7.1875 54.375 -7 52 C-8.65 52 -10.3 52 -12 52 C-8.93690154 49.56989338 -5.76259336 47.70829394 -2.3125 45.875 C1.0557489 44.23730811 1.0557489 44.23730811 4 42 C4.09940131 40.33962309 4.13080137 38.6750672 4.1328125 37.01171875 C4.13410156 35.99529297 4.13539062 34.97886719 4.13671875 33.93164062 C4.13091797 32.32579102 4.13091797 32.32579102 4.125 30.6875 C4.12886719 29.62853516 4.13273437 28.56957031 4.13671875 27.47851562 C4.13478516 25.94807617 4.13478516 25.94807617 4.1328125 24.38671875 C4.13168457 23.45045654 4.13055664 22.51419434 4.12939453 21.54956055 C4.01099063 19.21655694 3.66004442 17.23281163 3 15 C2.01 15.495 2.01 15.495 1 16 C0.34 14.68 -0.32 13.36 -1 12 C-1.99 12 -2.98 12 -4 12 C-5.1875 10.3125 -5.1875 10.3125 -6 8 C-4.50692877 4.77810946 -2.6244603 2.3745117 0 0 Z " fill="#861D06" transform="translate(80,133)"/>
<path d="M0 0 C3.91319794 3.46340508 6.26903131 7.44444823 8.8125 11.9375 C9.23208984 12.64068359 9.65167969 13.34386719 10.08398438 14.06835938 C12.97317789 19.14705704 12.97317789 19.14705704 13.078125 22.484375 C11.42243304 26.34765623 9.22342807 29.79399449 6.9375 33.3125 C6.22883789 34.42334961 6.22883789 34.42334961 5.50585938 35.55664062 C4.34412851 37.37551219 3.17298518 39.1883659 2 41 C-2.84731362 38.93308586 -4.64847703 35.58447242 -7.375 31.25 C-7.85066406 30.54617187 -8.32632813 29.84234375 -8.81640625 29.1171875 C-12.1195049 23.90584711 -12.1195049 23.90584711 -11.609375 20.0390625 C-9.46919328 15.99765139 -7.2424841 12.03764879 -4.875 8.125 C-4.40707031 7.34125 -3.93914062 6.5575 -3.45703125 5.75 C-2.30981892 3.83017528 -1.1573993 1.91369439 0 0 Z " fill="#DE551A" transform="translate(124,63)"/>
<path d="M0 0 C1.23878906 0.27714844 2.47757813 0.55429688 3.75390625 0.83984375 C9.47564462 2.10997343 15.20402054 3.34652607 20.9375 4.5625 C21.95779297 4.78357422 22.97808594 5.00464844 24.02929688 5.23242188 C36.71861281 7.91280705 49.20380189 8.26089048 62.125 8.5625 C63.8619877 8.60577881 65.598967 8.64939578 67.3359375 8.69335938 C71.55720499 8.79947344 75.7785598 8.90100529 80 9 C80.495 10.485 80.495 10.485 81 12 C75.61120118 13.79106702 70.89384659 14.30740081 65.234375 14.30078125 C64.40149963 14.30506638 63.56862427 14.3093515 62.71051025 14.31376648 C60.9489431 14.31948799 59.18735232 14.32002617 57.42578125 14.31567383 C54.79903882 14.31255817 52.17347483 14.33584397 49.546875 14.36132812 C34.63366718 14.41657197 17.01065878 13.75342642 3 8 C2.67 7.01 2.34 6.02 2 5 C1.01 4.34 0.02 3.68 -1 3 C-0.34 3 0.32 3 1 3 C0.67 2.01 0.34 1.02 0 0 Z " fill="#EB8115" transform="translate(166,195)"/>
<path d="M0 0 C1.32 0.33 2.64 0.66 4 1 C3.43927917 4.63199579 2.5292945 7.1517898 0.5234375 10.22265625 C0.02070312 11.0027002 -0.48203125 11.78274414 -1 12.58642578 C-1.53625 13.40353027 -2.0725 14.22063477 -2.625 15.0625 C-3.72275189 16.76863274 -4.81910987 18.47566317 -5.9140625 20.18359375 C-6.44547852 21.00972168 -6.97689453 21.83584961 -7.52441406 22.68701172 C-11.34374379 28.67383003 -15.0207098 34.69281186 -17.86328125 41.2109375 C-20.07484888 46.26670111 -22.59969862 51.1283974 -25.1875 56 C-25.63802734 56.85722656 -26.08855469 57.71445313 -26.55273438 58.59765625 C-29.86540179 64.86540179 -29.86540179 64.86540179 -31 66 C-29.35 66.33 -27.7 66.66 -26 67 C-26 67.33 -26 67.66 -26 68 C-32.15234375 68.09765625 -32.15234375 68.09765625 -34 68 C-34.33 67.67 -34.66 67.34 -35 67 C-34.61794111 61.58295068 -33.01027231 57.36032709 -30.5 52.625 C-30.14107666 51.93148437 -29.78215332 51.23796875 -29.41235352 50.5234375 C-28.65580353 49.06572282 -27.894751 47.61033682 -27.12939453 46.15722656 C-26.06410229 44.12244008 -25.02648297 42.07606654 -23.99609375 40.0234375 C-16.94636726 26.15112167 -8.62739601 12.94109401 0 0 Z " fill="#A7230F" transform="translate(35,141)"/>
<path d="M0 0 C1.65 0 3.3 0 5 0 C5 0.66 5 1.32 5 2 C5.61875 2.04125 6.2375 2.0825 6.875 2.125 C7.57625 2.41375 8.2775 2.7025 9 3 C10.1875 5.875 10.1875 5.875 11 9 C11.495 10.485 11.495 10.485 12 12 C11.34 12 10.68 12 10 12 C9.67 12.66 9.34 13.32 9 14 C6.525 12.515 6.525 12.515 4 11 C3.67 19.91 3.34 28.82 3 38 C2.67 38 2.34 38 2 38 C1.505 25.625 1.505 25.625 1 13 C0.01 14.98 -0.98 16.96 -2 19 C-2.99 19 -3.98 19 -5 19 C-6.4694809 20.76732099 -6.4694809 20.76732099 -7.6875 23 C-8.12449219 23.7425 -8.56148437 24.485 -9.01171875 25.25 C-9.33785156 25.8275 -9.66398437 26.405 -10 27 C-10.65234375 25.234375 -10.65234375 25.234375 -11 23 C-10.00390625 21.078125 -10.00390625 21.078125 -8.5625 19.25 C-8.08941406 18.63640625 -7.61632812 18.0228125 -7.12890625 17.390625 C-6.75636719 16.93171875 -6.38382813 16.4728125 -6 16 C-10.00972202 19.67557852 -12.45335415 23.18966896 -15 28 C-15.33 27.34 -15.66 26.68 -16 26 C-16.763125 26.763125 -17.52625 27.52625 -18.3125 28.3125 C-19.199375 29.199375 -20.08625 30.08625 -21 31 C-21.556875 31.598125 -22.11375 32.19625 -22.6875 32.8125 C-24 34 -24 34 -26 34 C-24.31989309 29.38422242 -22.02085395 25.20854029 -19.625 20.9375 C-19.23828125 20.23044922 -18.8515625 19.52339844 -18.453125 18.79492188 C-14.98093717 12.59042517 -11.18191357 8.68284212 -5 5 C-4.01 5 -3.02 5 -2 5 C-1.34 3.35 -0.68 1.7 0 0 Z " fill="#972F6C" transform="translate(122,17)"/>
<path d="M0 0 C0.33 0.66 0.66 1.32 1 2 C3.34613181 3.53712084 4.44563145 4.09239476 7.25 3.625 C7.8275 3.41875 8.405 3.2125 9 3 C10.98 5.97 10.98 5.97 13 9 C12.34 10.32 11.68 11.64 11 13 C10.34 13 9.68 13 9 13 C9 12.34 9 11.68 9 11 C8.01 11.495 8.01 11.495 7 12 C7.32742187 13.16402344 7.65484375 14.32804687 7.9921875 15.52734375 C9.53375043 22.46437693 9.2134503 29.50066174 9.125 36.5625 C9.11494735 37.96679047 9.10582555 39.37108793 9.09765625 40.77539062 C9.07423093 44.18377485 9.04142746 47.591795 9 51 C6.04880615 47.23806046 5.05899422 44.04842898 3.94140625 39.4375 C3.17392342 36.86746501 3.17392342 36.86746501 0.96777344 35.29150391 C-1.75873103 32.11644547 -1.47350826 30.03882192 -1.42578125 25.8984375 C-1.42249313 25.22076324 -1.41920502 24.54308899 -1.41581726 23.84487915 C-1.40542344 22.41764671 -1.38551894 20.99045565 -1.35668945 19.56347656 C-1.31250839 17.37541569 -1.29523568 15.1884523 -1.28320312 13 C-1.1803339 2.3606678 -1.1803339 2.3606678 0 0 Z " fill="#9775A7" transform="translate(126,26)"/>
<path d="M0 0 C0 0.99 0 1.98 0 3 C-1.32 3.33 -2.64 3.66 -4 4 C-3.505 5.485 -3.505 5.485 -3 7 C2.94 7 8.88 7 15 7 C15 7.33 15 7.66 15 8 C9.11028263 8.85080267 3.40732399 9.1471984 -2.5390625 9.1328125 C-3.42355072 9.13376923 -4.30803894 9.13472595 -5.21932983 9.13571167 C-7.07655916 9.13638811 -8.93379092 9.1345715 -10.79101562 9.13037109 C-13.62375205 9.12500237 -16.45633086 9.13034093 -19.2890625 9.13671875 C-21.10156285 9.13605812 -22.9140631 9.13477728 -24.7265625 9.1328125 C-25.5673233 9.13483673 -26.40808411 9.13686096 -27.27432251 9.13894653 C-31.62916557 9.12167045 -35.71167682 8.87116027 -40 8 C-39.21366078 6.85050412 -38.42073742 5.70551011 -37.625 4.5625 C-37.18414062 3.92441406 -36.74328125 3.28632813 -36.2890625 2.62890625 C-35 1 -35 1 -33 0 C-28.96902945 -0.37227924 -24.91950746 -0.46944202 -20.875 -0.625 C-19.75867188 -0.6765625 -18.64234375 -0.728125 -17.4921875 -0.78125 C-11.51411344 -1.02093693 -5.90753917 -0.96773869 0 0 Z " fill="#C73B29" transform="translate(43,200)"/>
<path d="M0 0 C4.45948262 0.85953747 8.72084429 1.74806883 12.875 3.625 C15.88863667 5.20136931 15.88863667 5.20136931 19 5 C19.66 4.01 20.32 3.02 21 2 C22.0621875 2.26554688 23.124375 2.53109375 24.21875 2.8046875 C24.90453125 2.97613281 25.5903125 3.14757812 26.296875 3.32421875 C27.02390625 3.50597656 27.7509375 3.68773437 28.5 3.875 C29.19609375 4.04902344 29.8921875 4.22304687 30.609375 4.40234375 C33.51171875 5.12792969 36.4140625 5.85351562 39.31640625 6.57910156 C40.04730469 6.76182617 40.77820313 6.94455078 41.53125 7.1328125 C42.6759375 7.41898438 43.820625 7.70515625 45 8 C43.6875 10.0625 43.6875 10.0625 41 12 C33.49898942 12.47825235 26.09662953 10.18252243 19 8 C19.66 9.98 20.32 11.96 21 14 C14.67304915 12.96468077 8.98173731 10.95795205 3.0625 8.5625 C1.92566772 8.11185181 1.92566772 8.11185181 0.76586914 7.65209961 C0.05035889 7.3556958 -0.66515137 7.05929199 -1.40234375 6.75390625 C-2.04679443 6.48908447 -2.69124512 6.2242627 -3.35522461 5.95141602 C-5 5 -5 5 -7 2 C-4.69 2 -2.38 2 0 2 C0 1.34 0 0.68 0 0 Z " fill="#D1423F" transform="translate(148,188)"/>
<path d="M0 0 C0 0.66 0 1.32 0 2 C1.98 1.67 3.96 1.34 6 1 C4.97634824 4.11778903 4.13961526 4.92582332 1.19140625 6.4921875 C-0.60490234 7.17667969 -0.60490234 7.17667969 -2.4375 7.875 C-3.09057129 8.12475586 -3.74364258 8.37451172 -4.41650391 8.63183594 C-33.83449047 19.65583932 -33.83449047 19.65583932 -44 19 C-44 18.34 -44 17.68 -44 17 C-42.92878906 16.73445313 -41.85757813 16.46890625 -40.75390625 16.1953125 C-39.35666195 15.83896832 -37.95953236 15.48217418 -36.5625 15.125 C-35.85544922 14.95097656 -35.14839844 14.77695313 -34.41992188 14.59765625 C-32.59631043 14.12648392 -30.79556771 13.56876943 -29 13 C-28.67 12.34 -28.34 11.68 -28 11 C-28.66 10.34 -29.32 9.68 -30 9 C-29.42032471 8.79842285 -28.84064941 8.5968457 -28.2434082 8.38916016 C-25.5993569 7.46896159 -22.9559246 6.54699723 -20.3125 5.625 C-19.40048828 5.30789062 -18.48847656 4.99078125 -17.54882812 4.6640625 C-16.66259766 4.3546875 -15.77636719 4.0453125 -14.86328125 3.7265625 C-13.64572144 3.30238037 -13.64572144 3.30238037 -12.40356445 2.86962891 C-10.7098359 2.25682432 -9.03332287 1.59536952 -7.37182617 0.89990234 C-4.75921826 -0.09135579 -2.77050009 -0.15831429 0 0 Z " fill="#DF5F37" transform="translate(103,188)"/>
<path d="M0 0 C0.99 0.66 1.98 1.32 3 2 C3 2.66 3 3.32 3 4 C2.34 4 1.68 4 1 4 C1.00523682 4.56807373 1.01047363 5.13614746 1.01586914 5.72143555 C1.10221038 16.53376259 1.11861117 27.23336745 0 38 C-4.12927177 36.62357608 -5.53216624 33.80237117 -7.8125 30.3125 C-8.24498047 29.69955078 -8.67746094 29.08660156 -9.12304688 28.45507812 C-11.07579218 25.48021734 -12.09734451 23.675953 -11.58203125 20.09765625 C-9.49393934 16.00912074 -7.2513336 12.05227402 -4.875 8.125 C-4.40707031 7.34125 -3.93914062 6.5575 -3.45703125 5.75 C-2.30981892 3.83017528 -1.1573993 1.91369439 0 0 Z " fill="#E87E39" transform="translate(124,63)"/>
<path d="M0 0 C5.25624314 4.67673471 8.83991141 10.40308499 12.6875 16.25 C13.39068359 17.31234863 14.09386719 18.37469727 14.81835938 19.46923828 C19.01699552 25.85666847 23.11127043 32.29396147 27 38.875 C27.41467529 39.5752832 27.82935059 40.27556641 28.2565918 40.99707031 C31 45.73769885 31 45.73769885 31 48 C30.01 48 29.02 48 28 48 C27.34 48.99 26.68 49.98 26 51 C25.46375 49.9790625 24.9275 48.958125 24.375 47.90625 C17.11582948 34.35347678 8.66736955 21.68608283 0 9 C0.33 8.34 0.66 7.68 1 7 C2.65 8.65 4.3 10.3 6 12 C4.62373901 7.98590546 2.65695303 5.27690874 0 2 C0 1.34 0 0.68 0 0 Z " fill="#D7778E" transform="translate(129,5)"/>
<path d="M0 0 C1.34395103 0.68797493 2.67708404 1.39739622 4 2.125 C8.00533982 4.29423627 10.51948017 3.8453811 15 3 C17.9375 3.9375 17.9375 3.9375 20 5 C19.67 6.32 19.34 7.64 19 9 C18.05125 8.979375 17.1025 8.95875 16.125 8.9375 C13.09333717 8.77448174 13.09333717 8.77448174 11 10 C8.06686326 8.55223379 5.23014591 7.00959788 2.40625 5.36132812 C-0.79029755 3.62986487 -2.51048912 2.90270971 -6.125 3.62109375 C-7.07375 4.07613281 -8.0225 4.53117188 -9 5 C-9.89203125 5.42539063 -10.7840625 5.85078125 -11.703125 6.2890625 C-12.54359375 6.72992188 -13.3840625 7.17078125 -14.25 7.625 C-18.78034682 10 -18.78034682 10 -21 10 C-21 9.34 -21 8.68 -21 8 C-22.65 8 -24.3 8 -26 8 C-26 7.34 -26 6.68 -26 6 C-26.99 5.67 -27.98 5.34 -29 5 C-27.42032193 4.32471777 -25.83608097 3.66010306 -24.25 3 C-23.36828125 2.62875 -22.4865625 2.2575 -21.578125 1.875 C-19 1 -19 1 -15 1 C-15 1.66 -15 2.32 -15 3 C-14.50371094 2.69964844 -14.00742188 2.39929688 -13.49609375 2.08984375 C-8.58012119 -0.66198149 -5.63116782 -1.60890509 0 0 Z " fill="#610C16" transform="translate(129,182)"/>
<path d="M0 0 C0.27734375 2.20703125 0.27734375 2.20703125 0 5 C-1.93359375 7.38671875 -1.93359375 7.38671875 -4.4375 9.6875 C-7.64840802 12.52056245 -7.64840802 12.52056245 -10 16 C-13.375 17.25 -13.375 17.25 -17 18 C-17.99 17.34 -18.98 16.68 -20 16 C-20.1875 13.375 -20.1875 13.375 -20 11 C-21.65 11 -23.3 11 -25 11 C-18.69783727 6.13467347 -13.03324562 2.80332456 -5 2 C-2 0 -2 0 0 0 Z " fill="#B02B20" transform="translate(93,174)"/>
<path d="M0 0 C1.65 0 3.3 0 5 0 C5 0.66 5 1.32 5 2 C5.61875 2.04125 6.2375 2.0825 6.875 2.125 C7.57625 2.41375 8.2775 2.7025 9 3 C10.1875 5.875 10.1875 5.875 11 9 C11.33 9.99 11.66 10.98 12 12 C11.34 12 10.68 12 10 12 C9.67 12.66 9.34 13.32 9 14 C6.525 12.515 6.525 12.515 4 11 C3.67 19.91 3.34 28.82 3 38 C2.67 38 2.34 38 2 38 C1.67 29.75 1.34 21.5 1 13 C0.01 14.98 -0.98 16.96 -2 19 C-2.99 19 -3.98 19 -5 19 C-6.4694809 20.76732099 -6.4694809 20.76732099 -7.6875 23 C-8.12449219 23.7425 -8.56148438 24.485 -9.01171875 25.25 C-9.33785156 25.8275 -9.66398437 26.405 -10 27 C-10.64453125 25.234375 -10.64453125 25.234375 -11 23 C-10.07421875 21.078125 -10.07421875 21.078125 -8.6875 19.25 C-8.23761719 18.63640625 -7.78773437 18.0228125 -7.32421875 17.390625 C-6.88722656 16.93171875 -6.45023437 16.4728125 -6 16 C-5.34 16 -4.68 16 -4 16 C-3.7525 15.319375 -3.505 14.63875 -3.25 13.9375 C-1.75802092 10.43134917 0.06835511 7.28379632 2 4 C0.68 4.33 -0.64 4.66 -2 5 C-1.34 3.35 -0.68 1.7 0 0 Z " fill="#79458D" transform="translate(122,17)"/>
<path d="M0 0 C2.69540315 -0.26686213 5.15847464 -0.34818073 7.8515625 -0.29296875 C8.62559418 -0.28872391 9.39962585 -0.28447906 10.19711304 -0.28010559 C12.67342677 -0.26328998 15.14893158 -0.22563395 17.625 -0.1875 C19.30207159 -0.17245682 20.97915592 -0.15876778 22.65625 -0.14648438 C26.77114581 -0.11337721 30.88543569 -0.06157637 35 0 C35 0.66 35 1.32 35 2 C40.94 2 46.88 2 53 2 C53 2.33 53 2.66 53 3 C47.11028263 3.85080267 41.40732399 4.1471984 35.4609375 4.1328125 C34.57644928 4.13376923 33.69196106 4.13472595 32.78067017 4.13571167 C30.92344084 4.13638811 29.06620908 4.1345715 27.20898438 4.13037109 C24.37624795 4.12500237 21.54366914 4.13034093 18.7109375 4.13671875 C16.89843715 4.13605812 15.0859369 4.13477728 13.2734375 4.1328125 C12.4326767 4.13483673 11.59191589 4.13686096 10.72567749 4.13894653 C6.37083443 4.12167045 2.28832318 3.87116027 -2 3 C-1.34 2.01 -0.68 1.02 0 0 Z " fill="#D65D1A" transform="translate(5,205)"/>
<path d="M0 0 C6.72637216 0.88335394 13.34850934 2.20431897 19.99804688 3.5390625 C25.9836569 4.7091161 31.92152107 5.50199229 38 6 C37.34 7.32 36.68 8.64 36 10 C23.82071826 10.79048223 11.48208242 7.89176351 0 4 C0 2.66666667 0 1.33333333 0 0 Z " fill="#F6BB44" transform="translate(171,197)"/>
<path d="M0 0 C-2.47841764 3.71762647 -3.68840988 3.71407208 -7.9375 4.6875 C-9.52884766 5.06455078 -9.52884766 5.06455078 -11.15234375 5.44921875 C-14 6 -14 6 -17 6 C-17 6.66 -17 7.32 -17 8 C-24.68483539 8.67453101 -32.28410183 9.1567564 -40 9 C-39.360625 8.896875 -38.72125 8.79375 -38.0625 8.6875 C-37.0415625 8.3471875 -37.0415625 8.3471875 -36 8 C-35.67 7.01 -35.34 6.02 -35 5 C-34.01773438 4.83395264 -34.01773438 4.83395264 -33.015625 4.66455078 C-30.00986343 4.15456899 -27.00493668 3.63981904 -24 3.125 C-22.97003906 2.95097656 -21.94007812 2.77695313 -20.87890625 2.59765625 C-16.36265773 1.82097657 -11.91947247 1.02434711 -7.5 -0.1953125 C-4.16254246 -0.96262975 -3.0980082 -0.95708751 0 0 Z " fill="#F2A76C" transform="translate(76,199)"/>
<path d="M0 0 C1.0725 0.53625 2.145 1.0725 3.25 1.625 C3.97574219 1.97046875 4.70148438 2.3159375 5.44921875 2.671875 C7.40787988 3.61531387 9.33338527 4.59948667 11.25 5.625 C11.25 6.285 11.25 6.945 11.25 7.625 C12.24 7.955 13.23 8.285 14.25 8.625 C13.59 9.285 12.93 9.945 12.25 10.625 C8.79065303 10.421509 6.33636257 9.15285353 3.375 7.5 C-0.65358442 5.39812987 -3.29846317 5.4030095 -7.75 6.625 C-8.74 7.285 -9.73 7.945 -10.75 8.625 C-11.74 8.625 -12.73 8.625 -13.75 8.625 C-13.75 7.965 -13.75 7.305 -13.75 6.625 C-14.41 6.295 -15.07 5.965 -15.75 5.625 C-5.18167028 -0.51816703 -5.18167028 -0.51816703 0 0 Z " fill="#420629" transform="translate(127.75,176.375)"/>
<path d="M0 0 C2.97595467 2.55081829 4.44002566 5.43434437 6 9 C6 12 6 12 4.5625 13.75 C2.70835397 15.98902069 2.70835397 15.98902069 2.875 19.25 C1.56162325 24.8787575 -2.3774235 27.73451018 -7 31 C-7.66 31 -8.32 31 -9 31 C-9.33 29.68 -9.66 28.36 -10 27 C-9.34 27 -8.68 27 -8 27 C-7.74347656 26.2884375 -7.48695312 25.576875 -7.22265625 24.84375 C-5.48505409 20.80229834 -3.0148048 17.35455512 -0.55859375 13.71875 C0.9947318 11.00918964 1.70358453 9.09191997 2 6 C1.14228658 2.75763432 1.14228658 2.75763432 0 0 Z " fill="#713073" transform="translate(134,77)"/>
<path d="M0 0 C0 0.66 0 1.32 0 2 C1.98 1.67 3.96 1.34 6 1 C5.453125 2.80078125 5.453125 2.80078125 4 5 C1.56236023 6.24506242 -0.70138901 7.24583471 -3.25 8.1875 C-4.23419922 8.57711914 -4.23419922 8.57711914 -5.23828125 8.97460938 C-9.13577869 10.47394487 -12.83513685 11.46322416 -17 12 C-16.67 11.01 -16.34 10.02 -16 9 C-14 8.33333333 -12 7.66666667 -10 7 C-9.67 6.01 -9.34 5.02 -9 4 C-11.31 4.33 -13.62 4.66 -16 5 C-11.1356474 1.75709826 -5.95319301 -0.55811184 0 0 Z " fill="#A92816" transform="translate(103,188)"/>
<path d="M0 0 C4.09149425 1.5226337 6.13414384 4.40607784 8.625 7.8125 C9.49922302 8.98755762 10.37424766 10.16201921 11.25 11.3359375 C11.69859375 11.94018555 12.1471875 12.54443359 12.609375 13.16699219 C13.9935991 14.99156286 15.42283156 16.76824568 16.875 18.5390625 C17.33567871 19.10906982 17.79635742 19.67907715 18.27099609 20.26635742 C19.56153623 21.85917157 20.86253994 23.44349092 22.1640625 25.02734375 C24.24086077 28.38998946 24.56293242 30.12018145 24 34 C23.34 34.66 22.68 35.32 22 36 C20.62763381 34.45346042 19.27761039 32.88707224 17.9375 31.3125 C17.18339844 30.44238281 16.42929688 29.57226562 15.65234375 28.67578125 C15.10707031 27.79277344 14.56179687 26.90976563 14 26 C14.20238281 25.23042969 14.40476563 24.46085937 14.61328125 23.66796875 C15.09168781 20.36744675 14.48260027 19.82850554 12.578125 17.1875 C11.48384106 15.77980464 10.37376515 14.38427435 9.25 13 C8.14901631 11.60576364 7.05000491 10.2099672 5.953125 8.8125 C5.43685547 8.15894531 4.92058594 7.50539063 4.38867188 6.83203125 C2.73789337 4.65421095 1.32505637 2.38883402 0 0 Z " fill="#652D81" transform="translate(175,91)"/>
<path d="M0 0 C0.66 0 1.32 0 2 0 C1.39684864 5.27757437 -1.06288547 8.19202644 -4.875 11.75 C-7.54072141 14.57252855 -9.47867568 17.69273942 -11.53515625 20.9765625 C-13 23 -13 23 -16 25 C-14.40662799 18.33680795 -12.21623404 10.27489725 -6.4375 6.1875 C-5.2309375 5.5996875 -5.2309375 5.5996875 -4 5 C-2.65263027 3.34466005 -1.31665664 1.67987227 0 0 Z " fill="#5A1662" transform="translate(104,43)"/>
<path d="M0 0 C2.97 0.495 2.97 0.495 6 1 C6.33 1.99 6.66 2.98 7 4 C6.67 4.33 6.34 4.66 6 5 C12.27838311 7.25224537 18.5252319 8.88410365 25.0625 10.1875 C25.92810547 10.36474609 26.79371094 10.54199219 27.68554688 10.72460938 C29.7893625 11.15467113 31.89454212 11.57805168 34 12 C34 12.33 34 12.66 34 13 C26.82336316 13.2743136 20.48103637 12.30743464 13.5 10.6875 C12.4996875 10.47416016 11.499375 10.26082031 10.46875 10.04101562 C9.52 9.82509766 8.57125 9.60917969 7.59375 9.38671875 C6.73458984 9.19295654 5.87542969 8.99919434 4.99023438 8.79956055 C4.33345703 8.53570557 3.67667969 8.27185059 3 8 C2.67 7.01 2.34 6.02 2 5 C1.01 4.34 0.02 3.68 -1 3 C-0.34 3 0.32 3 1 3 C0.67 2.01 0.34 1.02 0 0 Z " fill="#DA9230" transform="translate(166,195)"/>
<path d="M0 0 C4.455 0.99 4.455 0.99 9 2 C8.67 3.32 8.34 4.64 8 6 C8.99 6.33 9.98 6.66 11 7 C11 8.32 11 9.64 11 11 C5.12587036 9.20512705 -0.77030576 7.29524101 -6 4 C-6.33 3.34 -6.66 2.68 -7 2 C-4.69 2 -2.38 2 0 2 C0 1.34 0 0.68 0 0 Z " fill="#C73F1E" transform="translate(148,188)"/>
<path d="M0 0 C1.65 0 3.3 0 5 0 C5 0.66 5 1.32 5 2 C5.61875 2.04125 6.2375 2.0825 6.875 2.125 C7.57625 2.41375 8.2775 2.7025 9 3 C10.1875 5.875 10.1875 5.875 11 9 C11.33 9.99 11.66 10.98 12 12 C11.34 12 10.68 12 10 12 C9.67 12.66 9.34 13.32 9 14 C5.60582235 10.87378374 3.3937282 8.43458973 2 4 C0.68 4.33 -0.64 4.66 -2 5 C-1.34 3.35 -0.68 1.7 0 0 Z " fill="#B45286" transform="translate(122,17)"/>
<path d="M0 0 C0.33 0 0.66 0 1 0 C1.20171923 5.95071732 1.16082918 10.14770548 -2.5625 15.0625 C-4.05703799 17.07687729 -4.56338212 18.55493989 -5 21 C-5.66 21 -6.32 21 -7 21 C-7.6875 19.1875 -7.6875 19.1875 -8 17 C-7.02246356 15.97803008 -6.0194119 14.98020375 -5 14 C-4.27802838 11.39388923 -4.27802838 11.39388923 -4 9 C-5.093125 9.680625 -6.18625 10.36125 -7.3125 11.0625 C-9.17578125 12.22265625 -9.17578125 12.22265625 -11 13 C-11.99 12.67 -12.98 12.34 -14 12 C-13.39671875 11.60167969 -12.7934375 11.20335937 -12.171875 10.79296875 C-11.37265625 10.26316406 -10.5734375 9.73335937 -9.75 9.1875 C-8.96109375 8.66542969 -8.1721875 8.14335937 -7.359375 7.60546875 C-6.58078125 7.07566406 -5.8021875 6.54585937 -5 6 C-4.26265625 5.50113281 -3.5253125 5.00226563 -2.765625 4.48828125 C-0.7187239 3.02543537 -0.7187239 3.02543537 0 0 Z " fill="#7C1910" transform="translate(97,165)"/>
<path d="M0 0 C1 3 1 3 0.01196289 5.36010742 C-0.7499939 6.71906128 -0.7499939 6.71906128 -1.52734375 8.10546875 C-2.07197266 9.08837891 -2.61660156 10.07128906 -3.17773438 11.08398438 C-3.75845703 12.10814453 -4.33917969 13.13230469 -4.9375 14.1875 C-5.51435547 15.22326172 -6.09121094 16.25902344 -6.68554688 17.32617188 C-8.1147553 19.88929772 -9.55317145 22.44679174 -11 25 C-11.66 23.68 -12.32 22.36 -13 21 C-12.566875 20.39671875 -12.13375 19.7934375 -11.6875 19.171875 C-11.130625 18.37265625 -10.57375 17.5734375 -10 16.75 C-9.443125 15.96109375 -8.88625 15.1721875 -8.3125 14.359375 C-6.67591051 11.86738917 -6.67591051 11.86738917 -7 8 C-6.195625 7.773125 -5.39125 7.54625 -4.5625 7.3125 C-3.716875 6.879375 -2.87125 6.44625 -2 6 C-1.18068911 3.48823926 -1.18068911 3.48823926 -1 1 C-0.67 0.67 -0.34 0.34 0 0 Z M-13 13 C-12.01 13.33 -11.02 13.66 -10 14 C-11.65 15.65 -13.3 17.3 -15 19 C-14.34 17.02 -13.68 15.04 -13 13 Z " fill="#2E173D" transform="translate(123,61)"/>
<path d="M0 0 C4.96401324 4.68015849 8.42352712 10.28652205 12.1875 15.9375 C12.92419922 17.02224609 13.66089844 18.10699219 14.41992188 19.22460938 C15.12052734 20.27326172 15.82113281 21.32191406 16.54296875 22.40234375 C17.18258545 23.35616943 17.82220215 24.30999512 18.48120117 25.29272461 C19.96834761 27.94357927 20.60476191 30.00699754 21 33 C15.06046502 27.44494385 10.75166355 20.26191618 6.8125 13.1875 C5.39474322 10.69420359 3.95511 8.53456242 2.25 6.25 C0 3 0 3 0 0 Z " fill="#6C135C" transform="translate(198,128)"/>
<path d="M0 0 C1.44010481 0.25662245 2.8770687 0.53090821 4.3125 0.8125 C5.11300781 0.96332031 5.91351563 1.11414063 6.73828125 1.26953125 C9.29568143 2.09549642 10.34783751 2.90457441 12 5 C13.1875 8.1875 13.1875 8.1875 14 11 C12.53890937 10.74445946 11.08111904 10.46999628 9.625 10.1875 C8.40683594 9.96126953 8.40683594 9.96126953 7.1640625 9.73046875 C5 9 5 9 3 6 C3.33 5.34 3.66 4.68 4 4 C2.68 3.67 1.36 3.34 0 3 C0 2.01 0 1.02 0 0 Z " fill="#D54344" transform="translate(155,191)"/>
<path d="M0 0 C-0.5625 1.875 -0.5625 1.875 -2 4 C-4.3140622 4.73075648 -6.64828869 5.40138258 -9 6 C-9.33 6.66 -9.66 7.32 -10 8 C-11.65525242 9.09218365 -13.34874507 10.12711738 -15.0625 11.125 C-15.98160156 11.66382813 -16.90070313 12.20265625 -17.84765625 12.7578125 C-18.55792969 13.16773438 -19.26820312 13.57765625 -20 14 C-17.5730142 7.53868254 -13.89892185 4.53935311 -8 1 C-2.46808511 -1.23404255 -2.46808511 -1.23404255 0 0 Z " fill="#A3396F" transform="translate(125,21)"/>
<path d="M0 0 C0.33 1.98 0.66 3.96 1 6 C-3.75 9 -3.75 9 -6 9 C-6 8.34 -6 7.68 -6 7 C-7.65 7 -9.3 7 -11 7 C-11 6.34 -11 5.68 -11 5 C-11.99 4.67 -12.98 4.34 -14 4 C-12.42032193 3.32471777 -10.83608097 2.66010306 -9.25 2 C-8.36828125 1.62875 -7.4865625 1.2575 -6.578125 0.875 C-4 0 -4 0 0 0 Z " fill="#80102B" transform="translate(114,183)"/>
<path d="M0 0 C4.00936388 3.77819335 7.17270443 7.79584593 10.3125 12.3125 C10.76689453 12.95767578 11.22128906 13.60285156 11.68945312 14.26757812 C12.79735952 15.84197142 13.89930525 17.42055646 15 19 C14.67 19.66 14.34 20.32 14 21 C11.69 18.03 9.38 15.06 7 12 C6.01 13.485 6.01 13.485 5 15 C0.55928199 9.67113839 -0.60709557 6.92088947 0 0 Z " fill="#B13B5B" transform="translate(198,120)"/>
<path d="M0 0 C1 3 1 3 0.00390625 5.26171875 C-0.47175781 6.06222656 -0.94742188 6.86273438 -1.4375 7.6875 C-1.91058594 8.49574219 -2.38367188 9.30398437 -2.87109375 10.13671875 C-3.42990234 11.05904297 -3.42990234 11.05904297 -4 12 C-4.33 11.34 -4.66 10.68 -5 10 C-5.763125 10.763125 -6.52625 11.52625 -7.3125 12.3125 C-8.199375 13.199375 -9.08625 14.08625 -10 15 C-10.556875 15.598125 -11.11375 16.19625 -11.6875 16.8125 C-13 18 -13 18 -15 18 C-14.34938905 16.32700041 -13.67966676 14.66140763 -13 13 C-12.7525 12.319375 -12.505 11.63875 -12.25 10.9375 C-10.41911115 8.09962228 -7.81683735 6.82265946 -5 5 C-3.29671681 3.3707726 -1.61838719 1.71358643 0 0 Z " fill="#79216B" transform="translate(111,33)"/>
<path d="M0 0 C-9.7548325 5.20413313 -20.08180383 6.67261781 -31 7 C-30.01 6.67 -29.02 6.34 -28 6 C-28 5.34 -28 4.68 -28 4 C-27.13117187 3.89042969 -26.26234375 3.78085938 -25.3671875 3.66796875 C-18.31982388 2.79783941 -18.31982388 2.79783941 -11.75 0.3125 C-7.72865676 -1.60677746 -4.28209417 -0.78980848 0 0 Z " fill="#CE6F2F" transform="translate(66,187)"/>
<path d="M0 0 C1.485 0.99 1.485 0.99 3 2 C5.15274948 1.69159401 5.15274948 1.69159401 7 1 C8.32 2.98 9.64 4.96 11 7 C10.34 8.32 9.68 9.64 9 11 C8.34 11 7.68 11 7 11 C7 10.34 7 9.68 7 9 C5.02 9.99 5.02 9.99 3 11 C2.49384702 9.73160474 1.99530901 8.46016898 1.5 7.1875 C1.2215625 6.47980469 0.943125 5.77210937 0.65625 5.04296875 C0 3 0 3 0 0 Z " fill="#B370AD" transform="translate(128,28)"/>
<path d="M0 0 C0.66 0 1.32 0 2 0 C0.47146065 4.27186525 -1.71509481 7.99326863 -4.125 11.8125 C-4.49753906 12.40998047 -4.87007812 13.00746094 -5.25390625 13.62304688 C-6.1657048 15.08426251 -7.08235976 16.54244585 -8 18 C-6.35 18.33 -4.7 18.66 -3 19 C-5.35968744 21.09749995 -6.54616994 21.96905704 -9.75 22.1875 C-10.86375 22.0946875 -10.86375 22.0946875 -12 22 C-11.42365861 17.24518354 -9.44931479 14.02951788 -7 10 C-6.34 10 -5.68 10 -5 10 C-4.731875 9.0925 -4.46375 8.185 -4.1875 7.25 C-3.09868368 4.27008166 -2.13608899 2.31409641 0 0 Z " fill="#69171F" transform="translate(41,173)"/>
<path d="M0 0 C4.81035973 4.3730543 8.59926143 9.46277438 12 15 C12 15.66 12 16.32 12 17 C10.02 17.33 8.04 17.66 6 18 C4.02 15.03 2.04 12.06 0 9 C0.33 8.34 0.66 7.68 1 7 C2.65 8.65 4.3 10.3 6 12 C4.62373901 7.98590546 2.65695303 5.27690874 0 2 C0 1.34 0 0.68 0 0 Z " fill="#D67851" transform="translate(129,5)"/>
<path d="M0 0 C3.40667322 0.44824648 5.07914607 1.05276405 8 3 C7.67 3.99 7.34 4.98 7 6 C6.05125 5.979375 5.1025 5.95875 4.125 5.9375 C1.09333717 5.77448174 1.09333717 5.77448174 -1 7 C-3.4750171 5.88568235 -5.67883419 4.41849022 -8 3 C-8 2.34 -8 1.68 -8 1 C-6.865625 1.020625 -5.73125 1.04125 -4.5625 1.0625 C-1.18424326 1.41577477 -1.18424326 1.41577477 0 0 Z " fill="#87103D" transform="translate(141,185)"/>
<path d="M0 0 C0.99 0.66 1.98 1.32 3 2 C1.02 3.65 -0.96 5.3 -3 7 C-2.34 7.66 -1.68 8.32 -1 9 C-4.67410785 10.17571451 -8.16929183 10.07366746 -12 10 C-11.34 9.01 -10.68 8.02 -10 7 C-10.66 6.34 -11.32 5.68 -12 5 C-11.30132812 4.80664062 -10.60265625 4.61328125 -9.8828125 4.4140625 C-8.97273438 4.15367187 -8.06265625 3.89328125 -7.125 3.625 C-6.22007813 3.36976563 -5.31515625 3.11453125 -4.3828125 2.8515625 C-1.85430274 2.1395685 -1.85430274 2.1395685 0 0 Z " fill="#DF636C" transform="translate(73,190)"/>
<path d="M0 0 C-0.99 1.485 -0.99 1.485 -2 3 C-1.34 3.66 -0.68 4.32 0 5 C-4.62 5.66 -9.24 6.32 -14 7 C-12 2 -12 2 -10.375 0.6875 C-6.86233535 -0.32932398 -3.65099493 -0.12169983 0 0 Z " fill="#E26D78" transform="translate(64,196)"/>
<path d="M0 0 C5.72398793 0.74660712 11.34853777 1.82877141 17 3 C16.01 3.495 16.01 3.495 15 4 C14.67 4.99 14.34 5.98 14 7 C9.23649415 6.28547412 4.65798604 5.20465156 0 4 C0 2.66666667 0 1.33333333 0 0 Z " fill="#F19349" transform="translate(171,197)"/>
<path d="M0 0 C2.85963455 2.69391448 4.99861839 5.32846301 7.015625 8.6953125 C7.54414063 9.57574219 8.07265625 10.45617187 8.6171875 11.36328125 C9.15601563 12.27464844 9.69484375 13.18601563 10.25 14.125 C10.80429688 15.04410156 11.35859375 15.96320313 11.9296875 16.91015625 C16 23.73745382 16 23.73745382 16 26 C15.34 26 14.68 26 14 26 C12.81079102 24.41113281 12.81079102 24.41113281 11.50390625 22.203125 C11.02759766 21.4090625 10.55128906 20.615 10.06054688 19.796875 C9.31901367 18.53617188 9.31901367 18.53617188 8.5625 17.25 C7.58645367 15.60829263 6.60864396 13.9676321 5.62890625 12.328125 C5.19650635 11.5949707 4.76410645 10.86181641 4.31860352 10.10644531 C3.03184355 7.94989138 3.03184355 7.94989138 1.33569336 5.97949219 C0 4 0 4 0 0 Z " fill="#72113F" transform="translate(207,157)"/>
<path d="M0 0 C4.62 0 9.24 0 14 0 C14 0.66 14 1.32 14 2 C15.17369141 2.07347656 15.17369141 2.07347656 16.37109375 2.1484375 C17.88896484 2.26058594 17.88896484 2.26058594 19.4375 2.375 C20.95150391 2.47941406 20.95150391 2.47941406 22.49609375 2.5859375 C23.32238281 2.72257813 24.14867187 2.85921875 25 3 C25.33 3.66 25.66 4.32 26 5 C22.42527372 5.88494723 19.77762574 6.00971812 16.171875 5.29296875 C15.29015625 5.11830078 14.4084375 4.94363281 13.5 4.76367188 C12.13875 4.4784668 12.13875 4.4784668 10.75 4.1875 C9.82703125 4.00896484 8.9040625 3.83042969 7.953125 3.64648438 C2.87899307 2.61300309 2.87899307 2.61300309 1 2 C0.67 1.34 0.34 0.68 0 0 Z " fill="#D45D1D" transform="translate(192,189)"/>
<path d="M0 0 C0.99 0.495 0.99 0.495 2 1 C1.01 1.495 1.01 1.495 0 2 C0 1.34 0 0.68 0 0 Z M-1 2 C-1 5.14668286 -1.52735129 6.31458176 -3 9 C-4.41634833 11.83269666 -4.3463005 14.47466438 -4.5625 17.625 C-4.64628906 18.81351563 -4.73007813 20.00203125 -4.81640625 21.2265625 C-4.87699219 22.14179688 -4.93757813 23.05703125 -5 24 C-4.34 24 -3.68 24 -3 24 C-3.33 25.65 -3.66 27.3 -4 29 C-4.66 29 -5.32 29 -6 29 C-7.22130404 23.75578215 -6.817101 19.12788348 -6.3125 13.8125 C-6.24611328 12.89791016 -6.17972656 11.98332031 -6.11132812 11.04101562 C-5.98854492 9.73100586 -5.98854492 9.73100586 -5.86328125 8.39453125 C-5.79407471 7.59893799 -5.72486816 6.80334473 -5.65356445 5.98364258 C-5 4 -5 4 -2.94604492 2.7253418 C-2.3038501 2.485979 -1.66165527 2.24661621 -1 2 Z " fill="#976CA8" transform="translate(130,107)"/>
<path d="M0 0 C-17.67198178 5.55580866 -17.67198178 5.55580866 -27 6 C-27 5.34 -27 4.68 -27 4 C-20.96935607 2.20771517 -15.16044018 0.69621046 -8.875 0.2109375 C-1.86238532 -0.57798165 -1.86238532 -0.57798165 0 0 Z " fill="#C4642F" transform="translate(86,201)"/>
<path d="M0 0 C1.670625 0.5259375 1.670625 0.5259375 3.375 1.0625 C6.80264476 2.37239331 6.80264476 2.37239331 9 1 C8.38722388 3.96175123 7.74627478 5.38058783 6 8 C1.545 7.01 1.545 7.01 -3 6 C-2.34 5.67 -1.68 5.34 -1 5 C-0.34444881 2.47266765 -0.34444881 2.47266765 0 0 Z " fill="#8A1440" transform="translate(161,186)"/>
<path d="M0 0 C2.42130331 2.42130331 2.52840504 3.80111377 3.125 7.125 C3.29257813 8.03507812 3.46015625 8.94515625 3.6328125 9.8828125 C3.81457031 10.93082031 3.81457031 10.93082031 4 12 C2.35 13.32 0.7 14.64 -1 16 C-1.02692484 13.70839681 -1.04636124 11.41670454 -1.0625 9.125 C-1.07410156 7.84882812 -1.08570312 6.57265625 -1.09765625 5.2578125 C-1 2 -1 2 0 0 Z " fill="#9257A3" transform="translate(126,26)"/>
<path d="M0 0 C2.10377652 1.98733966 3.70353428 3.91922399 5.19140625 6.3984375 C5.57876953 7.04296875 5.96613281 7.6875 6.36523438 8.3515625 C6.95788086 9.35316406 6.95788086 9.35316406 7.5625 10.375 C8.16094727 11.365 8.16094727 11.365 8.77148438 12.375 C10.83481994 15.8334122 12.63960696 19.19089948 14 23 C13.34 23 12.68 23 12 23 C10.58275512 20.87708528 9.27502706 18.7683892 8 16.5625 C5.70816876 12.09672535 5.70816876 12.09672535 2 9 C0.37265234 5.65489648 0 3.81164166 0 0 Z " fill="#8F1D34" transform="translate(219,159)"/>
<path d="M0 0 C0.66 0.66 1.32 1.32 2 2 C0.99450137 8.15867912 -1.38038193 10.74645915 -6.125 14.71484375 C-8 16 -8 16 -10 16 C-10 15.01 -10 14.02 -10 13 C-9.34 13 -8.68 13 -8 13 C-7.7525 12.443125 -7.505 11.88625 -7.25 11.3125 C-5.78448139 8.60129056 -3.92305395 6.40381744 -2 4 C-1.29114106 2.68861096 -0.60543548 1.36222983 0 0 Z " fill="#6E3981" transform="translate(135,92)"/>
<path d="M0 0 C0.66 0 1.32 0 2 0 C4.74219867 3.34880626 6.86153781 6.67076296 7.3125 11 C7.209375 11.66 7.10625 12.32 7 13 C4.525 12.01 4.525 12.01 2 11 C2 10.01 2 9.02 2 8 C1.34 8 0.68 8 0 8 C0 5.36 0 2.72 0 0 Z " fill="#3E1948" transform="translate(117,95)"/>
<path d="M0 0 C0.33 0.99 0.66 1.98 1 3 C-2.72965139 5.03435531 -4.66905042 6 -9 6 C-9 5.34 -9 4.68 -9 4 C-11.31 4.33 -13.62 4.66 -16 5 C-11.1356474 1.75709826 -5.95319301 -0.55811184 0 0 Z " fill="#B82E33" transform="translate(103,188)"/>
<path d="M0 0 C0.66 0 1.32 0 2 0 C0.46896744 3.56149285 -1.67263877 5.9951691 -4.3125 8.8125 C-7.07357837 11.8088471 -9.64547772 14.75559 -11.9375 18.125 C-12.618125 19.07375 -13.29875 20.0225 -14 21 C-14.66 21 -15.32 21 -16 21 C-15.34 19.35 -14.68 17.7 -14 16 C-13.34 16 -12.68 16 -12 16 C-11.7525 15.26007813 -11.505 14.52015625 -11.25 13.7578125 C-9.8811229 10.7377274 -8.40603141 9.13065445 -6 6.875 C-3.60981756 4.61662909 -1.83839255 2.75758882 0 0 Z " fill="#541024" transform="translate(58,152)"/>
<path d="M0 0 C1 2 1 2 0.37915039 3.97119141 C0.03875732 4.75671387 -0.30163574 5.54223633 -0.65234375 6.3515625 C-1.01650391 7.20234375 -1.38066406 8.053125 -1.75585938 8.9296875 C-2.34077148 10.26386719 -2.34077148 10.26386719 -2.9375 11.625 C-3.32357422 12.5221875 -3.70964844 13.419375 -4.10742188 14.34375 C-5.06470725 16.56559754 -6.02914277 18.78405708 -7 21 C-7.66 21 -8.32 21 -9 21 C-9 12.63217738 -4.48959312 6.70882252 0 0 Z " fill="#3F1051" transform="translate(97,58)"/>
<path d="M0 0 C3.12290635 0.48578543 5.99580359 0.9986012 9 2 C9 2.66 9 3.32 9 4 C9.99 4.33 10.98 4.66 12 5 C11.34 5.66 10.68 6.32 10 7 C6.0675397 6.68115187 3.15421945 5.34313445 0 3 C0 2.01 0 1.02 0 0 Z " fill="#4C0636" transform="translate(130,180)"/>
<path d="M0 0 C5.00363672 2.97513535 6.01807051 6.20845497 7.421875 11.5625 C7.61265625 12.366875 7.8034375 13.17125 8 14 C8.19078125 14.763125 8.3815625 15.52625 8.578125 16.3125 C8.71734375 16.869375 8.8565625 17.42625 9 18 C6.4260504 15.63474901 4.64217477 13.09765678 2.8125 10.125 C2.01779297 8.86042969 2.01779297 8.86042969 1.20703125 7.5703125 C-0.09551189 4.79661222 -0.24384946 3.02373324 0 0 Z " fill="#70497D" transform="translate(125,59)"/>
<path d="M0 0 C2.25195063 1.26747489 4.50155747 2.53882868 6.75 3.8125 C7.38421875 4.16892578 8.0184375 4.52535156 8.671875 4.89257812 C11.94804537 6.75248735 15.04985101 8.63839084 18 11 C10.60263261 10.86301171 5.40599132 8.07365579 0 3 C0 2.01 0 1.02 0 0 Z " fill="#73151F" transform="translate(164,173)"/>
<path d="M0 0 C1 2 1 2 0.44140625 4.1640625 C0.15136719 4.97617187 -0.13867188 5.78828125 -0.4375 6.625 C-0.72496094 7.44226562 -1.01242188 8.25953125 -1.30859375 9.1015625 C-1.53675781 9.72804688 -1.76492187 10.35453125 -2 11 C-2.99 11 -3.98 11 -5 11 C-6.4694809 12.76732099 -6.4694809 12.76732099 -7.6875 15 C-8.12449219 15.7425 -8.56148438 16.485 -9.01171875 17.25 C-9.33785156 17.8275 -9.66398437 18.405 -10 19 C-10.64453125 17.234375 -10.64453125 17.234375 -11 15 C-10.07421875 13.078125 -10.07421875 13.078125 -8.6875 11.25 C-8.23761719 10.63640625 -7.78773437 10.0228125 -7.32421875 9.390625 C-6.88722656 8.93171875 -6.45023437 8.4728125 -6 8 C-5.34 8 -4.68 8 -4 8 C-3.566875 6.8553125 -3.566875 6.8553125 -3.125 5.6875 C-2 3 -2 3 0 0 Z " fill="#87468B" transform="translate(122,25)"/>
<path d="M0 0 C1.98 0 3.96 0 6 0 C6 0.66 6 1.32 6 2 C9.96 2 13.92 2 18 2 C18 2.33 18 2.66 18 3 C10.31516461 3.67453101 2.71589817 4.1567564 -5 4 C-4.0409375 3.8453125 -4.0409375 3.8453125 -3.0625 3.6875 C-2.381875 3.460625 -1.70125 3.23375 -1 3 C-0.67 2.01 -0.34 1.02 0 0 Z " fill="#E88646" transform="translate(41,204)"/>
<path d="M0 0 C1.6415049 3.2830098 0.51888624 6.42545033 0 10 C-0.66 10 -1.32 10 -2 10 C-2.33 10.99 -2.66 11.98 -3 13 C-5 12 -5 12 -6 9.875 C-6 5.36849105 -3.05982098 3.07755907 0 0 Z " fill="#6F1609" transform="translate(80,133)"/>
<path d="M0 0 C2.0625 1.5625 2.0625 1.5625 4 4 C3.75 7.75 3.75 7.75 3 11 C0.4375 8.8125 0.4375 8.8125 -2 6 C-1.80952381 1.80952381 -1.80952381 1.80952381 0 0 Z " fill="#841E78" transform="translate(195,116)"/>
<path d="M0 0 C0.66 0.33 1.32 0.66 2 1 C-3.28 6.28 -8.56 11.56 -14 17 C-14 12.87322664 -11.8002029 11.16826067 -9.125 8.3125 C-8.66480469 7.80138672 -8.20460937 7.29027344 -7.73046875 6.76367188 C-6.53364992 5.46451637 -5.27071716 4.22697116 -4 3 C-3.34 3 -2.68 3 -2 3 C-2 2.34 -2 1.68 -2 1 C-1.34 0.67 -0.68 0.34 0 0 Z " fill="#270D4B" transform="translate(147,129)"/>
<path d="M0 0 C0.99 0.495 0.99 0.495 2 1 C3.34751434 6.25530593 3.09576651 11.61579398 3 17 C0.65709108 14.51565563 0.02017066 13.22268407 -0.29296875 9.765625 C-0.24076172 8.02539062 -0.24076172 8.02539062 -0.1875 6.25 C-0.16042969 5.07953125 -0.13335937 3.9090625 -0.10546875 2.703125 C-0.07066406 1.81109375 -0.03585938 0.9190625 0 0 Z " fill="#764789" transform="translate(135,65)"/>
<path d="M0 0 C0.66 0 1.32 0 2 0 C1.75 2.375 1.75 2.375 1 5 C-0.32407669 5.68486725 -1.65909241 6.34870203 -3 7 C-4.9499629 8.70995544 -4.9499629 8.70995544 -6.75 10.625 C-7.36359375 11.25664063 -7.9771875 11.88828125 -8.609375 12.5390625 C-9.06828125 13.02117188 -9.5271875 13.50328125 -10 14 C-10 11 -10 11 -9 8 C-8.236875 7.54625 -7.47375 7.0925 -6.6875 6.625 C-3.68584229 4.81004418 -2.1443702 2.7359206 0 0 Z " fill="#6B1C67" transform="translate(104,43)"/>
<path d="M0 0 C0.33 0.99 0.66 1.98 1 3 C-0.3125 5.1875 -0.3125 5.1875 -2 7 C-2.66 7 -3.32 7 -4 7 C-5.40939193 7.95091503 -6.78062435 8.95919305 -8.125 10 C-9.21167969 10.8353125 -9.21167969 10.8353125 -10.3203125 11.6875 C-10.87460938 12.120625 -11.42890625 12.55375 -12 13 C-11.40861603 9.61362274 -11.24472328 9.17241867 -8.25 7.0625 C-7.1775 6.381875 -6.105 5.70125 -5 5 C-3.29671681 3.3707726 -1.61838719 1.71358643 0 0 Z " fill="#87286B" transform="translate(111,33)"/>
<path d="M0 0 C0.33 0.66 0.66 1.32 1 2 C-0.21958756 4.67371119 -1.18298261 6.75412136 -3 9 C-5.75 9.9375 -5.75 9.9375 -8 10 C-6.68745073 6.0623522 -5.1247232 3.7341328 -2 1 C-1.34 0.67 -0.68 0.34 0 0 Z " fill="#943A7A" transform="translate(121,24)"/>
<path d="M0 0 C3.25836697 3.02562647 5.81492325 6.11541911 8 10 C7.60546875 12.1875 7.60546875 12.1875 7 14 C5.82188197 12.42516875 4.65787174 10.83977627 3.5 9.25 C2.8503125 8.36828125 2.200625 7.4865625 1.53125 6.578125 C0 4 0 4 0 0 Z " fill="#7A164F" transform="translate(211,147)"/>
<path d="M0 0 C4.455 0.99 4.455 0.99 9 2 C8.67 3.32 8.34 4.64 8 6 C5.36 5.34 2.72 4.68 0 4 C0 2.68 0 1.36 0 0 Z " fill="#B02141" transform="translate(148,188)"/>
<path d="M0 0 C2.64752004 2.57784846 4.94432065 4.91648098 7 8 C6.38125 8.12375 5.7625 8.2475 5.125 8.375 C2.80879168 8.87197356 2.80879168 8.87197356 1 11 C-0.20272819 8.59454362 -0.10071472 7.05003047 -0.0625 4.375 C-0.05347656 3.55773437 -0.04445312 2.74046875 -0.03515625 1.8984375 C-0.02355469 1.27195313 -0.01195312 0.64546875 0 0 Z " fill="#4E0D1C" transform="translate(156,165)"/>
<path d="M0 0 C3.25914951 3.08297927 6.06553673 5.9161331 8 10 C7.67 10.99 7.34 11.98 7 13 C0.29612756 4.738041 0.29612756 4.738041 0 0 Z " fill="#5D0E4C" transform="translate(199,146)"/>
<path d="M0 0 C1.4835001 0.42257276 2.96176424 0.86356322 4.4375 1.3125 C5.67306641 1.67794922 5.67306641 1.67794922 6.93359375 2.05078125 C7.95646484 2.52064453 7.95646484 2.52064453 9 3 C9.33 3.99 9.66 4.98 10 6 C8.53890937 5.74445946 7.08111904 5.46999628 5.625 5.1875 C4.81289062 5.03667969 4.00078125 4.88585937 3.1640625 4.73046875 C1 4 1 4 -1 1 C-0.67 0.67 -0.34 0.34 0 0 Z " fill="#D45920" transform="translate(159,196)"/>
<path d="M0 0 C2.97 0.495 2.97 0.495 6 1 C7 4 7 4 7 7 C5.68 7 4.36 7 3 7 C2.67 6.34 2.34 5.68 2 5 C1.01 4.34 0.02 3.68 -1 3 C-0.34 3 0.32 3 1 3 C0.67 2.01 0.34 1.02 0 0 Z " fill="#E76C3C" transform="translate(166,195)"/>
<path d="M0 0 C0 0.99 0 1.98 0 3 C-1.26839526 3.50615298 -2.53983102 4.00469099 -3.8125 4.5 C-4.87404297 4.91765625 -4.87404297 4.91765625 -5.95703125 5.34375 C-8 6 -8 6 -11 6 C-10.67 5.01 -10.34 4.02 -10 3 C-6.5065403 1.25327015 -3.93154432 0 0 0 Z " fill="#C9491C" transform="translate(97,194)"/>
<path d="M0 0 C0.99 0.66 1.98 1.32 3 2 C3 2.66 3 3.32 3 4 C2.34 4 1.68 4 1 4 C1 7.96 1 11.92 1 16 C0.67 16 0.34 16 0 16 C-0.33 12.7 -0.66 9.4 -1 6 C-1.99 6.495 -1.99 6.495 -3 7 C-1.125 1.125 -1.125 1.125 0 0 Z " fill="#E19249" transform="translate(124,63)"/>
<path d="M0 0 C0 0.99 0 1.98 0 3 C-2.90600261 4.25664978 -4.79604584 5 -8 5 C-8 4.34 -8 3.68 -8 3 C-8.66 2.34 -9.32 1.68 -10 1 C-3.375 0 -3.375 0 0 0 Z " fill="#EA7748" transform="translate(83,196)"/>
<path d="M0 0 C-3.55778921 3.55778921 -8.64709495 3.95168196 -13.5 4.125 C-14.325 4.08375 -15.15 4.0425 -16 4 C-15.01 3.67 -14.02 3.34 -13 3 C-13 2.34 -13 1.68 -13 1 C-8.62426048 0.40667939 -4.42471556 -0.13827236 0 0 Z " fill="#B24426" transform="translate(51,190)"/>
<path d="M0 0 C4.21912747 0.4794463 6.79663178 1.16625119 10 4 C9.67 4.66 9.34 5.32 9 6 C5.59687262 4.94124926 2.98646769 3.99097846 0 2 C0 1.34 0 0.68 0 0 Z " fill="#8D171B" transform="translate(133,186)"/>
<path d="M0 0 C0.33 0 0.66 0 1 0 C1.125 7.75 1.125 7.75 0 10 C-0.66 10 -1.32 10 -2 10 C-2.33 9.34 -2.66 8.68 -3 8 C-3.99 7.67 -4.98 7.34 -6 7 C-5.195625 6.401875 -4.39125 5.80375 -3.5625 5.1875 C-0.77672016 3.19052724 -0.77672016 3.19052724 0 0 Z " fill="#5E100E" transform="translate(97,165)"/>
<path d="M0 0 C2.5 2.3125 2.5 2.3125 5 5 C5 5.99 5 6.98 5 8 C3.02 8.99 3.02 8.99 1 10 C0.22157062 6.59437148 -0.09978121 3.49234244 0 0 Z " fill="#A0316F" transform="translate(198,120)"/>
<path d="M0 0 C1.32 1.32 2.64 2.64 4 4 C-0.62 3.01 -5.24 2.02 -10 1 C-5.62202596 -1.18898702 -4.54326456 -1.32511883 0 0 Z " fill="#D87A2A" transform="translate(179,202)"/>
<path d="M0 0 C0.99 0.66 1.98 1.32 3 2 C1.02 3.98 -0.96 5.96 -3 8 C-4.32 7.34 -5.64 6.68 -7 6 C-4.69 4.02 -2.38 2.04 0 0 Z " fill="#AD2037" transform="translate(178,184)"/>
<path d="M0 0 C0.66 0 1.32 0 2 0 C1.38801624 3.43950364 0.07941153 5.51564485 -2.0625 8.25 C-2.61035156 8.95640625 -3.15820312 9.6628125 -3.72265625 10.390625 C-4.14417969 10.92171875 -4.56570312 11.4528125 -5 12 C-5.99 11.67 -6.98 11.34 -8 11 C-7.34 11 -6.68 11 -6 11 C-5.7525 10.29875 -5.505 9.5975 -5.25 8.875 C-3.82819762 5.60485452 -2.12753712 2.858878 0 0 Z " fill="#723164" transform="translate(132,93)"/>
<path d="M0 0 C0.33 0.66 0.66 1.32 1 2 C0.109375 3.76953125 0.109375 3.76953125 -1.25 5.8125 C-1.71277344 6.52019531 -2.17554687 7.22789063 -2.65234375 7.95703125 C-3.09707031 8.63121094 -3.54179688 9.30539063 -4 10 C-5.00509214 11.66360078 -6.00769103 13.32874278 -7 15 C-7.33 14.01 -7.66 13.02 -8 12 C-6.6015625 9.3359375 -6.6015625 9.3359375 -4.625 6.375 C-3.97789063 5.39273437 -3.33078125 4.41046875 -2.6640625 3.3984375 C-1 1 -1 1 0 0 Z " fill="#9D3D2B" transform="translate(109,20)"/>
<path d="M0 0 C-0.33 1.32 -0.66 2.64 -1 4 C-4.75 5.125 -4.75 5.125 -7 4 C-7 3.34 -7 2.68 -7 2 C-7.66 1.67 -8.32 1.34 -9 1 C-5.94152152 0.45627049 -3.11227195 0 0 0 Z " fill="#D84939" transform="translate(94,192)"/>
<path d="M0 0 C3.13751221 0 4.39757586 0.35179805 7 2 C7.33 2.99 7.66 3.98 8 5 C7.34 5 6.68 5 6 5 C5.67 5.66 5.34 6.32 5 7 C3.29115995 5.37660195 1.62553283 3.70680947 0 2 C0 1.34 0 0.68 0 0 Z " fill="#B15B9C" transform="translate(126,24)"/>
<path d="M0 0 C6.75 0.875 6.75 0.875 9 2 C9 2.99 9 3.98 9 5 C4.68607774 4.5206753 2.83430453 3.2542015 0 0 Z " fill="#B3291D" transform="translate(141,190)"/>
<path d="M0 0 C-0.125 1.875 -0.125 1.875 -1 4 C-4.0625 5.25 -4.0625 5.25 -7 6 C-7 4.68 -7 3.36 -7 2 C-4.35261084 0.5393715 -3.10551666 0 0 0 Z " fill="#921A15" transform="translate(115,186)"/>
<path d="M0 0 C3.32368224 1.10789408 3.61563093 1.48436217 5.25 4.375 C5.60578125 4.98085937 5.9615625 5.58671875 6.328125 6.2109375 C7 8 7 8 6 11 C4.9944239 9.54550599 3.99569565 8.08627557 3 6.625 C2.443125 5.81289062 1.88625 5.00078125 1.3125 4.1640625 C0 2 0 2 0 0 Z " fill="#B32921" transform="translate(222,183)"/>
<path d="M0 0 C0.66 0.33 1.32 0.66 2 1 C1.0409375 2.11375 1.0409375 2.11375 0.0625 3.25 C-1.78333407 5.7111121 -2.56069174 7.03466926 -3 10 C-3.66 10 -4.32 10 -5 10 C-5.68359375 8.203125 -5.68359375 8.203125 -6 6 C-4.78515625 4.296875 -4.78515625 4.296875 -3.0625 2.75 C-2.21365234 1.96882812 -2.21365234 1.96882812 -1.34765625 1.171875 C-0.90292969 0.78515625 -0.45820312 0.3984375 0 0 Z " fill="#831025" transform="translate(95,176)"/>
<path d="M0 0 C2.475 0.99 2.475 0.99 5 2 C4.01 3.98 3.02 5.96 2 8 C0.68 6.68 -0.64 5.36 -2 4 C-1.34 2.68 -0.68 1.36 0 0 Z " fill="#661974" transform="translate(191,113)"/>
<path d="M0 0 C1.32 0.33 2.64 0.66 4 1 C-1.14285714 7.57142857 -1.14285714 7.57142857 -5 9 C-3.7508258 5.54074837 -2.32472205 2.85306797 0 0 Z " fill="#B13E61" transform="translate(110,26)"/>
<path d="M0 0 C-2 3 -2 3 -5.125 3.6875 C-6.07375 3.790625 -7.0225 3.89375 -8 4 C-5.97675095 -0.48005146 -4.79569304 -1.43870791 0 0 Z " fill="#F19356" transform="translate(76,199)"/>
<path d="M0 0 C0.99 0.66 1.98 1.32 3 2 C1.02 3.32 -0.96 4.64 -3 6 C-3.33 5.67 -3.66 5.34 -4 5 C-5.66617115 4.95936168 -7.33388095 4.957279 -9 5 C-8.443125 4.731875 -7.88625 4.46375 -7.3125 4.1875 C-4.80287477 2.89877353 -2.40665764 1.47073522 0 0 Z " fill="#D84D45" transform="translate(73,190)"/>
<path d="M0 0 C0 3 0 3 -1.6796875 4.82421875 C-2.40414062 5.43910156 -3.12859375 6.05398437 -3.875 6.6875 C-4.59429687 7.31011719 -5.31359375 7.93273437 -6.0546875 8.57421875 C-8 10 -8 10 -10 10 C-10 9.01 -10 8.02 -10 7 C-9.0925 6.5875 -8.185 6.175 -7.25 5.75 C-4.20334382 4.10949282 -2.28873194 2.55281639 0 0 Z " fill="#79458A" transform="translate(135,98)"/>
<path d="M0 0 C0.66 0.33 1.32 0.66 2 1 C0.68 1.99 -0.64 2.98 -2 4 C-1.34 2.68 -0.68 1.36 0 0 Z M-7 6 C-6.01 6.33 -5.02 6.66 -4 7 C-5.65 8.65 -7.3 10.3 -9 12 C-8.34 10.02 -7.68 8.04 -7 6 Z " fill="#34174E" transform="translate(117,68)"/>
<path d="M0 0 C0.33 0.99 0.66 1.98 1 3 C-0.25 5.1875 -0.25 5.1875 -2 7 C-2.99 7 -3.98 7 -5 7 C-4.75 4.625 -4.75 4.625 -4 2 C-1.9375 0.6875 -1.9375 0.6875 0 0 Z " fill="#9B1940" transform="translate(169,187)"/>
<path d="M0 0 C2.64465038 3.1254959 3.84414715 6.08788267 5 10 C2 9 2 9 0.25 5.5625 C-0.1625 4.386875 -0.575 3.21125 -1 2 C-0.67 1.34 -0.34 0.68 0 0 Z " fill="#C33519" transform="translate(233,180)"/>
<path d="M0 0 C0.99 0.66 1.98 1.32 3 2 C-0.85756507 4.15305957 -3.55129785 5.39253254 -8 5 C-5.44008376 2.98863724 -2.95409701 1.37154504 0 0 Z " fill="#BC431B" transform="translate(76,180)"/>
<path d="M0 0 C2.9555377 2.75170751 5.11563315 5.41970299 7 9 C7 9.66 7 10.32 7 11 C6.34 11 5.68 11 5 11 C3.7109375 9.35546875 3.7109375 9.35546875 2.375 7.1875 C1.92898437 6.47980469 1.48296875 5.77210938 1.0234375 5.04296875 C0 3 0 3 0 0 Z " fill="#85182D" transform="translate(216,172)"/>
<path d="M0 0 C2.31 0 4.62 0 7 0 C6.01 0.495 6.01 0.495 5 1 C4.67 1.99 4.34 2.98 4 4 C2.68 4 1.36 4 0 4 C0 2.68 0 1.36 0 0 Z " fill="#F2A348" transform="translate(181,200)"/>
<path d="M0 0 C-0.1875 1.875 -0.1875 1.875 -1 4 C-3.5625 5.25 -3.5625 5.25 -6 6 C-6 4.68 -6 3.36 -6 2 C-2.25 0 -2.25 0 0 0 Z " fill="#731112" transform="translate(121,183)"/>
<path d="M0 0 C0.66 0.33 1.32 0.66 2 1 C1.3125 2.9375 1.3125 2.9375 0 5 C-2.625 5.75 -2.625 5.75 -5 6 C-4.75 4.125 -4.75 4.125 -4 2 C-2.0625 0.6875 -2.0625 0.6875 0 0 Z " fill="#A4457C" transform="translate(123,20)"/>
<path d="M0 0 C1 3 1 3 0.29296875 4.7890625 C-0.07183594 5.39492188 -0.43664062 6.00078125 -0.8125 6.625 C-1.16957031 7.23601563 -1.52664062 7.84703125 -1.89453125 8.4765625 C-3 10 -3 10 -5 11 C-3.77472971 6.94718288 -2.30119506 3.55639236 0 0 Z " fill="#802648" transform="translate(100,33)"/>
<path d="M0 0 C1.32 0 2.64 0 4 0 C4 0.66 4 1.32 4 2 C4.66 2 5.32 2 6 2 C5.67 2.99 5.34 3.98 5 5 C3.35 4.67 1.7 4.34 0 4 C0 2.66666667 0 1.33333333 0 0 Z " fill="#EE8444" transform="translate(171,197)"/>
<path d="M0 0 C0.33 0.66 0.66 1.32 1 2 C0.67 2.66 0.34 3.32 0 4 C0.99 4.33 1.98 4.66 3 5 C0.69 5 -1.62 5 -4 5 C-2.25 1.125 -2.25 1.125 0 0 Z " fill="#DB5564" transform="translate(69,194)"/>
<path d="M0 0 C2.97 0 5.94 0 9 0 C6.64031256 2.09749995 5.45383006 2.96905704 2.25 3.1875 C1.13625 3.0946875 1.13625 3.0946875 0 3 C0 2.01 0 1.02 0 0 Z " fill="#962520" transform="translate(29,192)"/>
<path d="M0 0 C-0.33 1.32 -0.66 2.64 -1 4 C-1.99 4 -2.98 4 -4 4 C-4 3.34 -4 2.68 -4 2 C-4.99 1.67 -5.98 1.34 -7 1 C-4 0 -4 0 0 0 Z " fill="#9C192E" transform="translate(107,186)"/>
<path d="M0 0 C2.97 0.495 2.97 0.495 6 1 C5.01 2.485 5.01 2.485 4 4 C2.35 3.67 0.7 3.34 -1 3 C-0.67 2.01 -0.34 1.02 0 0 Z " fill="#64073C" transform="translate(136,183)"/>
<path d="M0 0 C2.35981813 0.93578995 4.69631264 1.93347808 7 3 C7 3.33 7 3.66 7 4 C0.84765625 3.4140625 0.84765625 3.4140625 -1 3 C-1.33 2.34 -1.66 1.68 -2 1 C-1.34 0.67 -0.68 0.34 0 0 Z " fill="#911E26" transform="translate(175,180)"/>
<path d="M0 0 C0.33 0.99 0.66 1.98 1 3 C-0.65 3.33 -2.3 3.66 -4 4 C-4 3.34 -4 2.68 -4 2 C-4.66 1.67 -5.32 1.34 -6 1 C-4 0 -4 0 0 0 Z " fill="#62082A" transform="translate(118,181)"/>
<path d="M0 0 C-0.99 0.495 -0.99 0.495 -2 1 C-2.33 1.99 -2.66 2.98 -3 4 C-3.66 4 -4.32 4 -5 4 C-5 3.01 -5 2.02 -5 1 C-6.32 0.67 -7.64 0.34 -9 0 C-5.62182575 -0.84454356 -3.32534757 -1.10844919 0 0 Z " fill="#D74E4F" transform="translate(48,199)"/>
<path d="M0 0 C0.66 0.33 1.32 0.66 2 1 C1.67 1.99 1.34 2.98 1 4 C-1.5625 5.1875 -1.5625 5.1875 -4 6 C-3.6875 4.125 -3.6875 4.125 -3 2 C-2.01 1.34 -1.02 0.68 0 0 Z " fill="#B43317" transform="translate(101,191)"/>
<path d="M0 0 C2.97 0.33 5.94 0.66 9 1 C4.64467851 3.17766075 3.53374042 3.03039555 -1 2 C-0.67 1.34 -0.34 0.68 0 0 Z " fill="#D77A2B" transform="translate(57,186)"/>
</svg>
