<?xml version="1.0" encoding="UTF-8"?>
<svg version="1.1" xmlns="http://www.w3.org/2000/svg" width="250" height="286">
<path d="M0 0 C6.12447859 4.62942386 9.54712242 10.63650381 10.6171875 18.22265625 C10.93593478 26.14826439 9.70625041 32.26459889 5.13671875 38.81640625 C4.1666875 39.84550264 3.17553729 40.85679381 2.13671875 41.81640625 C9.14546184 50.7513933 17.05976279 56.94991118 28.13671875 59.81640625 C30.49417403 60.43562527 32.8083489 61.08879067 35.13671875 61.81640625 C35.46671875 62.47640625 35.79671875 63.13640625 36.13671875 63.81640625 C38.81389312 64.13567359 38.81389312 64.13567359 42.01171875 64.19140625 C51.74886129 64.83772365 58.8875467 67.98654267 67.19921875 72.94140625 C77.72610888 79.14899238 87.04708884 79.73945083 99.13671875 77.81640625 C102.11145896 76.74062172 104.41797897 75.46897357 107.13671875 73.81640625 C107.79671875 73.81640625 108.45671875 73.81640625 109.13671875 73.81640625 C109.61100923 81.16790866 108.35056953 86.21729931 105.13671875 92.81640625 C104.8325 93.50734375 104.52828125 94.19828125 104.21484375 94.91015625 C100.64000685 101.83984009 93.75183128 106.04631573 87.13671875 109.81640625 C86.14671875 109.81640625 85.15671875 109.81640625 84.13671875 109.81640625 C84.35328125 110.33847656 84.56984375 110.86054687 84.79296875 111.3984375 C87.42260859 118.34993912 88.53094144 125.63373818 86.13671875 132.81640625 C86.87921875 132.32140625 87.62171875 131.82640625 88.38671875 131.31640625 C91.13671875 129.81640625 91.13671875 129.81640625 95.13671875 129.81640625 C94.48694044 136.63907847 91.26718113 141.37000552 86.13671875 145.81640625 C85.47671875 145.81640625 84.81671875 145.81640625 84.13671875 145.81640625 C84.13671875 146.47640625 84.13671875 147.13640625 84.13671875 147.81640625 C74.96330876 152.66216103 67.47208665 154.91767861 57.13671875 155.81640625 C57.26691406 156.43386719 57.39710938 157.05132812 57.53125 157.6875 C58.72315471 165.00601769 57.26662027 168.81179011 53.13671875 174.81640625 C52.62995605 175.59387207 52.12319336 176.37133789 51.60107422 177.17236328 C50.13691713 179.40423621 48.64014959 181.61088678 47.13671875 183.81640625 C46.43804687 184.88632813 45.739375 185.95625 45.01953125 187.05859375 C42.12773667 191.38985941 39.49945859 194.87409333 35.13671875 197.81640625 C33.57175393 198.89617589 32.00957617 199.97998917 30.44921875 201.06640625 C29.58039063 201.6696875 28.7115625 202.27296875 27.81640625 202.89453125 C25.16722989 204.79452363 22.61503871 206.77425189 20.07421875 208.81640625 C19.25308594 209.47382813 18.43195313 210.13125 17.5859375 210.80859375 C15.93865262 212.15899954 14.31617337 213.54018295 12.71875 214.94921875 C10.57652555 216.77925974 8.59748829 218.44306249 6.13671875 219.81640625 C2.57421875 219.25390625 2.57421875 219.25390625 0.13671875 217.81640625 C-0.11851562 218.3784375 -0.37375 218.94046875 -0.63671875 219.51953125 C-2.02020906 222.11027107 -3.66266708 224.2674847 -5.48828125 226.56640625 C-6.11992187 227.365625 -6.7515625 228.16484375 -7.40234375 228.98828125 C-7.88445312 229.5915625 -8.3665625 230.19484375 -8.86328125 230.81640625 C-12.36328125 227.31640625 -12.36328125 227.31640625 -15.86328125 223.81640625 C-16.44078125 224.78578125 -17.01828125 225.75515625 -17.61328125 226.75390625 C-19.9557062 229.94220687 -20.2582608 230.21809403 -23.86328125 230.81640625 C-24.82347489 229.23420038 -25.78135923 227.65059294 -26.73828125 226.06640625 C-27.27195312 225.1846875 -27.805625 224.30296875 -28.35546875 223.39453125 C-29.61924791 221.23366532 -30.7782696 219.0707023 -31.86328125 216.81640625 C-32.72953125 217.58984375 -32.72953125 217.58984375 -33.61328125 218.37890625 C-35.86328125 219.81640625 -35.86328125 219.81640625 -37.7421875 219.64453125 C-40.47712219 218.57674828 -41.95500202 217.06259204 -44.05078125 215.00390625 C-49.8802588 209.58214514 -56.27354086 205.13429619 -62.8125 200.61328125 C-63.49465576 200.13560303 -64.17681152 199.6579248 -64.87963867 199.16577148 C-66.12779333 198.31671908 -67.39963787 197.50057951 -68.70043945 196.73461914 C-74.59404329 193.09033235 -77.36135043 187.69048887 -80.67578125 181.75390625 C-81.24748047 180.76068359 -81.81917969 179.76746094 -82.40820312 178.74414062 C-89.12990792 167.01472627 -89.12990792 167.01472627 -88.98828125 161.06640625 C-88.97023437 160.0815625 -88.9521875 159.09671875 -88.93359375 158.08203125 C-88.91039062 157.334375 -88.8871875 156.58671875 -88.86328125 155.81640625 C-89.4459375 155.790625 -90.02859375 155.76484375 -90.62890625 155.73828125 C-105.6440299 154.69949911 -115.3541377 149.06467225 -125.19921875 138.0625 C-128.02161794 134.25292363 -128.86328125 131.5702437 -128.86328125 126.81640625 C-125.89134275 127.94092352 -123.52887438 129.03934416 -120.86328125 130.81640625 C-120.89808594 130.21054688 -120.93289062 129.6046875 -120.96875 128.98046875 C-121.18152509 122.39457322 -120.07545805 117.00523421 -117.86328125 110.81640625 C-118.45496094 110.4296875 -119.04664062 110.04296875 -119.65625 109.64453125 C-122.07105566 108.05304432 -124.46883169 106.43832226 -126.86328125 104.81640625 C-127.75015625 104.21828125 -128.63703125 103.62015625 -129.55078125 103.00390625 C-135.05838343 97.79401229 -140.53049641 89.84515495 -141.0390625 82.16015625 C-141.04941365 79.70348341 -140.99652651 77.26910599 -140.86328125 74.81640625 C-138.24830184 75.26468843 -135.93984069 75.78417069 -133.48828125 76.81640625 C-127.8580452 78.96125808 -121.83201259 79.187406 -115.86328125 78.81640625 C-115.14785156 78.77257812 -114.43242188 78.72875 -113.6953125 78.68359375 C-106.82698289 77.78622405 -101.62537966 74.58535798 -95.7590332 71.14477539 C-85.84065479 65.38007728 -76.27918032 63.81640625 -64.86328125 63.81640625 C-64.86328125 62.49640625 -64.86328125 61.17640625 -64.86328125 59.81640625 C-64.26902344 59.74164063 -63.67476563 59.666875 -63.0625 59.58984375 C-53.13661696 58.01528688 -45.13413484 53.69052976 -38.10546875 46.52734375 C-36.69562382 44.58548186 -36.12390832 43.20066131 -35.86328125 40.81640625 C-37.17366059 39.13163281 -38.5117145 37.46832116 -39.86328125 35.81640625 C-43.48659708 28.44037046 -44.06085675 21.111347 -42.2421875 13.0703125 C-39.77609097 5.86931062 -35.49367227 1.56908032 -29.0234375 -2.27734375 C-19.83691001 -6.4724599 -8.38745974 -5.32788323 0 0 Z M-30.23828125 13.44140625 C-32.43551578 18.00489335 -32.56462724 21.83443128 -31.86328125 26.81640625 C-30.53342556 30.32118275 -30.53342556 30.32118275 -28.86328125 32.81640625 C-24.76482601 29.14313089 -22.67941449 25.83768146 -20.61328125 20.75390625 C-20.113125 19.54605469 -19.61296875 18.33820312 -19.09765625 17.09375 C-17.85151356 14.00562688 -17.85151356 14.00562688 -17.31640625 11.4453125 C-17.166875 10.90777344 -17.01734375 10.37023437 -16.86328125 9.81640625 C-16.20328125 9.48640625 -15.54328125 9.15640625 -14.86328125 8.81640625 C-14.73953125 9.96109375 -14.73953125 9.96109375 -14.61328125 11.12890625 C-12.97593749 19.17917973 -9.6849437 26.58254518 -5.86328125 33.81640625 C-2.2916432 29.51465435 -1.20414448 25.35335528 -0.86328125 19.81640625 C-1.59759984 15.28682003 -3.10600833 12.53673903 -6.42578125 9.37890625 C-14.97165301 3.90078332 -23.68215787 6.19516462 -30.23828125 13.44140625 Z M-16.86328125 51.81640625 C-17.01023437 52.37328125 -17.1571875 52.93015625 -17.30859375 53.50390625 C-19.8185866 62.04365204 -23.87196937 68.30602749 -31.6953125 72.78515625 C-35.30178003 74.50066513 -39.02728159 75.7242119 -42.86328125 76.81640625 C-42.86328125 77.80640625 -42.86328125 78.79640625 -42.86328125 79.81640625 C-43.66765625 79.71328125 -44.47203125 79.61015625 -45.30078125 79.50390625 C-53.35946582 80.21080841 -58.43002032 85.1643492 -63.80078125 90.75390625 C-72.65944849 99.92438076 -81.55837119 103.8022352 -93.86328125 106.81640625 C-98.21715778 122.0549741 -96.28022814 136.00553963 -88.86328125 149.81640625 C-87.87328125 149.32140625 -87.87328125 149.32140625 -86.86328125 148.81640625 C-86.21663251 145.79345456 -86.21663251 145.79345456 -85.828125 142.11328125 C-85.74454239 141.43847717 -85.66095978 140.7636731 -85.57484436 140.06842041 C-85.30816391 137.90203442 -85.05407337 135.7343947 -84.80078125 133.56640625 C-84.5414274 131.41307094 -84.27949188 129.26007224 -84.01600647 127.10723877 C-83.77689289 125.14332782 -83.5444099 123.17861297 -83.31225586 121.21386719 C-83.16409424 120.09270508 -83.01593262 118.97154297 -82.86328125 117.81640625 C-82.75814209 116.8931958 -82.65300293 115.96998535 -82.54467773 115.01879883 C-81.86328125 112.81640625 -81.86328125 112.81640625 -80.21533203 111.42944336 C-79.5036084 111.07116455 -78.79188477 110.71288574 -78.05859375 110.34375 C-77.25671631 109.92512695 -76.45483887 109.50650391 -75.62866211 109.07519531 C-74.75733643 108.63916992 -73.88601074 108.20314453 -72.98828125 107.75390625 C-71.15616806 106.79417287 -69.32680333 105.82917731 -67.5 104.859375 C-66.56333496 104.36228027 -65.62666992 103.86518555 -64.66162109 103.35302734 C-60.26011459 100.93607725 -56.02774406 98.27423768 -51.80078125 95.56640625 C-51.00462402 95.0566626 -50.2084668 94.54691895 -49.38818359 94.02172852 C-47.87783093 93.05124052 -46.36864615 92.07893166 -44.86083984 91.10449219 C-42.29063339 89.44714566 -39.70168215 87.82014891 -37.11328125 86.19140625 C-34.02537067 84.24267775 -31.00125421 82.22638391 -28.0078125 80.13671875 C-27.33266602 79.67088379 -26.65751953 79.20504883 -25.96191406 78.72509766 C-24.62950906 77.80327789 -23.30425887 76.87100797 -21.98730469 75.92724609 C-17.37351828 72.74807038 -17.37351828 72.74807038 -14.84350586 73.08691406 C-11.70791915 74.24202848 -9.09311036 76.17800767 -6.36328125 78.06640625 C-5.02027524 78.97765995 -3.67648314 79.88775587 -2.33203125 80.796875 C-1.61273438 81.28462402 -0.8934375 81.77237305 -0.15234375 82.27490234 C23.65983925 100.94893558 23.65983925 100.94893558 50.13671875 111.81640625 C50.24628906 112.71617188 50.35585937 113.6159375 50.46875 114.54296875 C51.91965765 126.31537394 53.51524312 138.06639448 55.13671875 149.81640625 C55.79671875 149.81640625 56.45671875 149.81640625 57.13671875 149.81640625 C57.95108743 148.04643151 58.76314815 146.27539473 59.57421875 144.50390625 C60.25291016 143.02470703 60.25291016 143.02470703 60.9453125 141.515625 C62.59000006 137.78946401 63.264242 134.99650664 63.26953125 130.95703125 C63.27146484 129.53003906 63.27146484 129.53003906 63.2734375 128.07421875 C63.26957031 127.08164063 63.26570312 126.0890625 63.26171875 125.06640625 C63.26558594 124.08929688 63.26945313 123.1121875 63.2734375 122.10546875 C63.26642305 116.90074496 63.03909947 111.94422053 62.13671875 106.81640625 C60.99396484 106.57857422 60.99396484 106.57857422 59.828125 106.3359375 C47.93989571 103.64958357 40.81458651 98.78924728 32.05859375 90.55078125 C23.43173746 82.29603859 23.43173746 82.29603859 12.13671875 79.81640625 C12.13671875 79.15640625 12.13671875 78.49640625 12.13671875 77.81640625 C11.10224609 77.50509766 11.10224609 77.50509766 10.046875 77.1875 C0.54953904 74.07383293 -6.85934484 69.688432 -11.8671875 60.81640625 C-13.33946296 57.86030807 -14.64757171 54.88767246 -15.86328125 51.81640625 C-16.19328125 51.81640625 -16.52328125 51.81640625 -16.86328125 51.81640625 Z " fill="#A1BB7C" transform="translate(140.86328125,4.18359375)"/>
<path d="M0 0 C6.12447859 4.62942386 9.54712242 10.63650381 10.6171875 18.22265625 C10.93593478 26.14826439 9.70625041 32.26459889 5.13671875 38.81640625 C4.1666875 39.84550264 3.17553729 40.85679381 2.13671875 41.81640625 C9.14546184 50.7513933 17.05976279 56.94991118 28.13671875 59.81640625 C30.49417403 60.43562527 32.8083489 61.08879067 35.13671875 61.81640625 C35.46671875 62.47640625 35.79671875 63.13640625 36.13671875 63.81640625 C38.81389312 64.13567359 38.81389312 64.13567359 42.01171875 64.19140625 C51.74886129 64.83772365 58.8875467 67.98654267 67.19921875 72.94140625 C77.72610888 79.14899238 87.04708884 79.73945083 99.13671875 77.81640625 C102.11145896 76.74062172 104.41797897 75.46897357 107.13671875 73.81640625 C107.79671875 73.81640625 108.45671875 73.81640625 109.13671875 73.81640625 C109.61100923 81.16790866 108.35056953 86.21729931 105.13671875 92.81640625 C104.8325 93.50734375 104.52828125 94.19828125 104.21484375 94.91015625 C100.64000685 101.83984009 93.75183128 106.04631573 87.13671875 109.81640625 C86.14671875 109.81640625 85.15671875 109.81640625 84.13671875 109.81640625 C84.35328125 110.33847656 84.56984375 110.86054687 84.79296875 111.3984375 C87.42260859 118.34993912 88.53094144 125.63373818 86.13671875 132.81640625 C86.87921875 132.32140625 87.62171875 131.82640625 88.38671875 131.31640625 C91.13671875 129.81640625 91.13671875 129.81640625 95.13671875 129.81640625 C94.48694044 136.63907847 91.26718113 141.37000552 86.13671875 145.81640625 C85.47671875 145.81640625 84.81671875 145.81640625 84.13671875 145.81640625 C84.13671875 146.47640625 84.13671875 147.13640625 84.13671875 147.81640625 C75.1530109 152.56195292 67.36515079 155.3456416 57.13671875 155.81640625 C56.47671875 155.48640625 55.81671875 155.15640625 55.13671875 154.81640625 C55.75896981 150.92733713 56.95299956 147.74483686 58.63671875 144.19140625 C61.14693171 138.86450085 62.26026811 135.10920903 62.234375 129.1796875 C62.23115234 127.88095703 62.22792969 126.58222656 62.22460938 125.24414062 C62.21625406 123.87239517 62.20778912 122.50065038 62.19921875 121.12890625 C62.1942021 119.7454443 62.18963948 118.36198062 62.18554688 116.97851562 C62.17374404 113.5911023 62.15727894 110.20377592 62.13671875 106.81640625 C61.26333862 106.74945557 61.26333862 106.74945557 60.37231445 106.68115234 C48.34352521 105.58436246 40.39484587 99.6252818 31.953125 91.51171875 C25.74703516 85.57246495 20.74245169 81.2246171 12.13671875 79.81640625 C12.13671875 79.15640625 12.13671875 78.49640625 12.13671875 77.81640625 C10.21859375 77.53796875 10.21859375 77.53796875 8.26171875 77.25390625 C-0.16161731 75.3569975 -6.83091179 69.90186176 -11.6796875 62.8828125 C-13.53700049 59.64017694 -14.72060044 56.37141321 -15.86328125 52.81640625 C-16.22679688 53.68652344 -16.22679688 53.68652344 -16.59765625 54.57421875 C-20.91380672 64.63416947 -26.00159128 71.34172141 -35.9609375 76.1015625 C-38.34149746 76.99610556 -40.34652488 77.1310008 -42.86328125 76.81640625 C-42.86328125 77.80640625 -42.86328125 78.79640625 -42.86328125 79.81640625 C-44.01828125 80.04328125 -45.17328125 80.27015625 -46.36328125 80.50390625 C-54.74264043 82.67578919 -59.73291667 87.58349289 -65.65112305 93.71850586 C-72.62787178 100.80597753 -81.79638528 106.38373915 -91.92578125 107.00390625 C-92.88484375 106.91109375 -92.88484375 106.91109375 -93.86328125 106.81640625 C-96.14613039 122.7963502 -95.19835876 135.69890838 -87.8515625 150.17578125 C-86.71717503 153.20679283 -86.6896082 155.60580183 -86.86328125 158.81640625 C-87.19328125 157.49640625 -87.52328125 156.17640625 -87.86328125 154.81640625 C-88.518125 154.8628125 -89.17296875 154.90921875 -89.84765625 154.95703125 C-99.90167301 155.35464773 -109.1098339 153.07735449 -116.98046875 146.58984375 C-126.83188924 137.31070495 -126.83188924 137.31070495 -128.86328125 130.81640625 C-128.86328125 129.49640625 -128.86328125 128.17640625 -128.86328125 126.81640625 C-125.89134275 127.94092352 -123.52887438 129.03934416 -120.86328125 130.81640625 C-120.89808594 130.21054688 -120.93289062 129.6046875 -120.96875 128.98046875 C-121.18152509 122.39457322 -120.07545805 117.00523421 -117.86328125 110.81640625 C-118.45496094 110.4296875 -119.04664062 110.04296875 -119.65625 109.64453125 C-122.07105566 108.05304432 -124.46883169 106.43832226 -126.86328125 104.81640625 C-127.75015625 104.21828125 -128.63703125 103.62015625 -129.55078125 103.00390625 C-135.05838343 97.79401229 -140.53049641 89.84515495 -141.0390625 82.16015625 C-141.04941365 79.70348341 -140.99652651 77.26910599 -140.86328125 74.81640625 C-138.24830184 75.26468843 -135.93984069 75.78417069 -133.48828125 76.81640625 C-127.8580452 78.96125808 -121.83201259 79.187406 -115.86328125 78.81640625 C-115.14785156 78.77257812 -114.43242188 78.72875 -113.6953125 78.68359375 C-106.82698289 77.78622405 -101.62537966 74.58535798 -95.7590332 71.14477539 C-85.84065479 65.38007728 -76.27918032 63.81640625 -64.86328125 63.81640625 C-64.86328125 62.49640625 -64.86328125 61.17640625 -64.86328125 59.81640625 C-64.26902344 59.74164063 -63.67476563 59.666875 -63.0625 59.58984375 C-53.13661696 58.01528688 -45.13413484 53.69052976 -38.10546875 46.52734375 C-36.69562382 44.58548186 -36.12390832 43.20066131 -35.86328125 40.81640625 C-37.17366059 39.13163281 -38.5117145 37.46832116 -39.86328125 35.81640625 C-43.48659708 28.44037046 -44.06085675 21.111347 -42.2421875 13.0703125 C-39.77609097 5.86931062 -35.49367227 1.56908032 -29.0234375 -2.27734375 C-19.83691001 -6.4724599 -8.38745974 -5.32788323 0 0 Z M-30.23828125 13.44140625 C-32.43551578 18.00489335 -32.56462724 21.83443128 -31.86328125 26.81640625 C-30.53342556 30.32118275 -30.53342556 30.32118275 -28.86328125 32.81640625 C-24.76482601 29.14313089 -22.67941449 25.83768146 -20.61328125 20.75390625 C-20.113125 19.54605469 -19.61296875 18.33820312 -19.09765625 17.09375 C-17.85151356 14.00562688 -17.85151356 14.00562688 -17.31640625 11.4453125 C-17.166875 10.90777344 -17.01734375 10.37023437 -16.86328125 9.81640625 C-16.20328125 9.48640625 -15.54328125 9.15640625 -14.86328125 8.81640625 C-14.73953125 9.96109375 -14.73953125 9.96109375 -14.61328125 11.12890625 C-12.97593749 19.17917973 -9.6849437 26.58254518 -5.86328125 33.81640625 C-2.2916432 29.51465435 -1.20414448 25.35335528 -0.86328125 19.81640625 C-1.59759984 15.28682003 -3.10600833 12.53673903 -6.42578125 9.37890625 C-14.97165301 3.90078332 -23.68215787 6.19516462 -30.23828125 13.44140625 Z " fill="#6E9D49" transform="translate(140.86328125,4.18359375)"/>
<path d="M0 0 C6.78682646 0.34804238 11.82384871 3.99141544 16.62890625 8.54296875 C20.98980457 13.73564604 23.31597049 20.04441084 25.96899414 26.20947266 C33.03779743 42.48435467 43.04182231 54.09172892 59.6875 60.75 C67.69412783 64.04786509 74.19886592 68.69324744 81 74 C81.79535156 74.60972656 82.59070313 75.21945313 83.41015625 75.84765625 C91.01835754 82.04856019 95.91797092 90.18281718 100 99 C100.32871094 98.24976563 100.65742187 97.49953125 100.99609375 96.7265625 C109.43847564 78.56057002 124.0216364 69.63204177 141.40136719 61.06860352 C148.11906993 57.70022799 154.40955096 53.77029457 159.62792969 48.29052734 C161 47 161 47 163 47 C163.26554688 46.42507812 163.53109375 45.85015625 163.8046875 45.2578125 C165.04983872 42.9058602 166.50156384 40.98169158 168.125 38.875 C171.51342502 34.14385884 173.75025977 29.26508561 176 23.9375 C180.70466808 12.96668137 185.68144521 5.04585921 197 0 C197.99 0 198.98 0 200 0 C204.70738964 16.13116056 201.24151812 34.67889064 193.4375 49.0625 C189.25443276 56.28235634 183.90929286 62.15892409 178 68 C177.28199219 68.72832031 176.56398437 69.45664063 175.82421875 70.20703125 C166.87183364 78.75478878 155.66470181 84.40694808 144.4609375 89.4140625 C126.08648398 97.83395881 111.13585139 107.8014056 102.68359375 126.98828125 C102.45800781 127.65214844 102.23242188 128.31601562 102 129 C100.68 129 99.36 129 98 129 C97.61070313 128.12859375 97.22140625 127.2571875 96.8203125 126.359375 C86.61720455 104.63662905 71.32501712 95.51047916 50.1875 85.875 C29.69513835 76.45002972 14.10144717 63.44927111 4 43 C3.47019531 41.95714844 2.94039062 40.91429687 2.39453125 39.83984375 C-2.78844925 27.89140412 -2.80810656 12.63080086 0 0 Z " fill="#38885C" transform="translate(25,157)"/>
<path d="M0 0 C0.33 0 0.66 0 1 0 C1 1.65 1 3.3 1 5 C1.8353125 5.0928125 1.8353125 5.0928125 2.6875 5.1875 C5.35409727 6.12441255 6.53881902 7.57155256 8.47192383 9.56225586 C11.37532463 12.29402248 14.71716266 14.44086345 18 16.6875 C23.42171394 20.45458803 28.78033283 24.26923955 34 28.3125 C34.53262451 28.72242188 35.06524902 29.13234375 35.61401367 29.5546875 C37.86702364 31.29904463 40.08001984 33.06898744 42.23828125 34.9296875 C49.08710917 40.73377896 56.74390542 43.60043164 65 47 C65 41.39 65 35.78 65 30 C65.66 30 66.32 30 67 30 C70.875 36.625 70.875 36.625 72 40 C72.66 40 73.32 40 74 40 C74.268125 39.0925 74.53625 38.185 74.8125 37.25 C75.89576294 34.28528037 76.98359457 32.3830246 79 30 C80.485 30.495 80.485 30.495 82 31 C81.67 35.62 81.34 40.24 81 45 C91.11173103 43.17988842 100.48486149 38.42523799 108.12231445 31.61962891 C111.59487457 28.62431441 115.35092377 26.00105227 119.0625 23.3125 C125.75479815 18.4393281 132.34167558 13.47668245 138.72290039 8.20043945 C142.67774216 5 142.67774216 5 146 5 C142.04752381 15.85426203 133.68026143 30.47145159 124 37 C122.43503518 38.07976964 120.87285742 39.16358292 119.3125 40.25 C118.44367188 40.85328125 117.57484375 41.4565625 116.6796875 42.078125 C114.03051114 43.97811738 111.47831996 45.95784564 108.9375 48 C108.11636719 48.65742188 107.29523438 49.31484375 106.44921875 49.9921875 C104.80193387 51.34259329 103.17945462 52.7237767 101.58203125 54.1328125 C99.4398068 55.96285349 97.46076954 57.62665624 95 59 C91.4375 58.4375 91.4375 58.4375 89 57 C88.74476563 57.56203125 88.48953125 58.1240625 88.2265625 58.703125 C86.84307219 61.29386482 85.20061417 63.45107845 83.375 65.75 C82.74335938 66.54921875 82.11171875 67.3484375 81.4609375 68.171875 C80.97882813 68.77515625 80.49671875 69.3784375 80 70 C77.66666667 67.66666667 75.33333333 65.33333333 73 63 C72.13375 64.4540625 72.13375 64.4540625 71.25 65.9375 C68.90757505 69.12580062 68.60502045 69.40168778 65 70 C64.03980636 68.41779413 63.08192202 66.83418669 62.125 65.25 C61.59132812 64.36828125 61.05765625 63.4865625 60.5078125 62.578125 C59.24403334 60.41725907 58.08501165 58.25429605 57 56 C56.13375 56.7734375 56.13375 56.7734375 55.25 57.5625 C53 59 53 59 51.12109375 58.828125 C48.38615906 57.76034203 46.90827923 56.24618579 44.8125 54.1875 C38.98302245 48.76573889 32.58974039 44.31788994 26.05078125 39.796875 C25.02754761 39.08035767 25.02754761 39.08035767 23.98364258 38.34936523 C22.73548792 37.50031283 21.46364338 36.68417326 20.1628418 35.91821289 C14.26923796 32.2739261 11.50193082 26.87408262 8.1875 20.9375 C7.32995117 19.44766602 7.32995117 19.44766602 6.45507812 17.92773438 C4.94729444 15.29664298 3.45497822 12.66063237 2 10 C1.42245972 8.95501343 1.42245972 8.95501343 0.83325195 7.88891602 C-0.33779931 5.23423578 -0.13009049 2.86199079 0 0 Z " fill="#216C55" transform="translate(52,165)"/>
<path d="M0 0 C1.06637695 -0.01740234 1.06637695 -0.01740234 2.15429688 -0.03515625 C7.31521227 -0.00602597 7.31521227 -0.00602597 9.80078125 1.8984375 C10.13464844 2.38570313 10.46851562 2.87296875 10.8125 3.375 C10.08546875 3.74109375 9.3584375 4.1071875 8.609375 4.484375 C2.33877692 7.86085089 -2.44227361 11.29233507 -7.3125 16.4375 C-14.83441791 24.34228097 -23.99242375 30.87326064 -35.25 31.5625 C-36.2090625 31.4696875 -36.2090625 31.4696875 -37.1875 31.375 C-39.47034914 47.35494395 -38.52257751 60.25750213 -31.17578125 74.734375 C-30.04139378 77.76538658 -30.01382695 80.16439558 -30.1875 83.375 C-30.5175 82.055 -30.8475 80.735 -31.1875 79.375 C-31.84234375 79.42140625 -32.4971875 79.4678125 -33.171875 79.515625 C-43.22589176 79.91324148 -52.43405265 77.63594824 -60.3046875 71.1484375 C-70.15610799 61.8692987 -70.15610799 61.8692987 -72.1875 55.375 C-72.1875 54.055 -72.1875 52.735 -72.1875 51.375 C-69.2155615 52.49951727 -66.85309313 53.59793791 -64.1875 55.375 C-64.23970703 54.46621094 -64.23970703 54.46621094 -64.29296875 53.5390625 C-64.50574384 46.95316697 -63.3996768 41.56382796 -61.1875 35.375 C-61.77917969 34.98828125 -62.37085937 34.6015625 -62.98046875 34.203125 C-65.39527441 32.61163807 -67.79305044 30.99691601 -70.1875 29.375 C-71.074375 28.776875 -71.96125 28.17875 -72.875 27.5625 C-78.53007319 22.21310644 -81.79397076 15.68856157 -84.1875 8.375 C-83.5275 8.375 -82.8675 8.375 -82.1875 8.375 C-82.1875 7.715 -82.1875 7.055 -82.1875 6.375 C-78.34380634 7.94094927 -76.09288994 10.46961006 -73.1875 13.375 C-64.04036568 20.44324016 -54.5261282 21.44445261 -43.1875 20.375 C-33.09703916 18.01070792 -24.10625131 11.11000105 -16.13671875 4.734375 C-10.69577437 0.93988874 -6.4710203 -0.10735333 0 0 Z " fill="#287653" transform="translate(84.1875,79.625)"/>
<path d="M0 0 C6.12447859 4.62942386 9.54712242 10.63650381 10.6171875 18.22265625 C10.93593478 26.14826439 9.70625041 32.26459889 5.13671875 38.81640625 C4.1666875 39.84550264 3.17553729 40.85679381 2.13671875 41.81640625 C9.14546184 50.7513933 17.05976279 56.94991118 28.13671875 59.81640625 C30.49417403 60.43562527 32.8083489 61.08879067 35.13671875 61.81640625 C35.46671875 62.47640625 35.79671875 63.13640625 36.13671875 63.81640625 C37.22984375 63.77515625 38.32296875 63.73390625 39.44921875 63.69140625 C43.13671875 63.81640625 43.13671875 63.81640625 46.13671875 65.81640625 C45.25371094 65.8421875 44.37070313 65.86796875 43.4609375 65.89453125 C37.38507635 66.18168258 32.18055921 66.54076554 26.57421875 69.00390625 C18.63083628 72.22103465 10.68979813 70.0822608 3.01171875 66.87890625 C0.20214868 65.56954058 -1.85723484 64.20248008 -3.86328125 61.81640625 C-3.86328125 61.15640625 -3.86328125 60.49640625 -3.86328125 59.81640625 C-4.42015625 59.61015625 -4.97703125 59.40390625 -5.55078125 59.19140625 C-10.96705682 55.97091808 -13.18786115 51.68037661 -14.86328125 45.81640625 C-15.09033203 42.65673828 -15.09033203 42.65673828 -15.05859375 39.32421875 C-15.05214844 38.12539063 -15.04570313 36.9265625 -15.0390625 35.69140625 C-15.02230469 34.45390625 -15.00554687 33.21640625 -14.98828125 31.94140625 C-14.97925781 30.68070313 -14.97023437 29.42 -14.9609375 28.12109375 C-14.93743933 25.01933585 -14.90458459 21.91796973 -14.86328125 18.81640625 C-13.87328125 18.81640625 -12.88328125 18.81640625 -11.86328125 18.81640625 C-9.88328125 23.10640625 -7.90328125 27.39640625 -5.86328125 31.81640625 C-2.74786496 27.66251787 -1.72554463 24.88511377 -1.86328125 19.81640625 C-2.69604519 15.35343834 -4.14650823 12.53317927 -7.36328125 9.31640625 C-12.27945775 7.20947346 -16.59215614 7.03985657 -21.86328125 7.81640625 C-26.29305796 9.95219145 -29.05941796 12.20653339 -30.86328125 16.81640625 C-31.43539522 21.6316988 -31.48122624 25.52902086 -29.36328125 29.94140625 C-28.86828125 30.56015625 -28.37328125 31.17890625 -27.86328125 31.81640625 C-24.90920935 27.55063056 -24.90920935 27.55063056 -22.86328125 22.81640625 C-21.87328125 22.81640625 -20.88328125 22.81640625 -19.86328125 22.81640625 C-19.36828125 21.33140625 -19.36828125 21.33140625 -18.86328125 19.81640625 C-17.01721501 24.65516372 -19.36512646 28.17336884 -21.34375 32.6484375 C-27.2024395 44.86282615 -34.83965688 54.2851788 -47.4296875 59.9765625 C-50.3430287 60.98196917 -52.80310723 60.95873993 -55.86328125 60.81640625 C-52.94495921 57.61566595 -50.09943786 55.24985263 -46.42578125 52.94140625 C-42.00195223 50.10068661 -39.08792632 46.95056659 -35.86328125 42.81640625 C-37.41564408 39.64206791 -39.13903268 36.62270575 -40.9609375 33.59765625 C-44.07253399 27.45528397 -43.70656751 19.61388003 -42.25 13.0546875 C-39.75165754 5.86782571 -35.49647371 1.57074572 -29.0234375 -2.27734375 C-19.83691001 -6.4724599 -8.38745974 -5.32788323 0 0 Z " fill="#66924F" transform="translate(140.86328125,4.18359375)"/>
<path d="M0 0 C2.46394833 2.15595479 3.27100386 2.98155398 3.5 6.1875 C4.16 6.1875 4.82 6.1875 5.5 6.1875 C5.726875 5.61 5.95375 5.0325 6.1875 4.4375 C8.16629537 1.04527937 11.00986942 -1.06743471 14.5 -2.8125 C20.17588376 -3.40279191 24.68875876 -3.12691063 29.5 0.1875 C32.74115541 2.86983551 35.10062844 5.35704703 36.015625 9.55078125 C36.39913632 18.35784468 33.07250462 24.64362367 27.4375 31.1875 C22.54038954 36.38360896 17.10934038 40.79005415 11.5 45.1875 C10.26633923 46.20289771 9.0361674 47.22258115 7.8125 48.25 C7.049375 48.889375 6.28625 49.52875 5.5 50.1875 C1.01084057 48.09659932 -2.50154037 45.12125687 -6.3125 42 C-6.99892578 41.44763672 -7.68535156 40.89527344 -8.39257812 40.32617188 C-25.09932611 26.71736392 -25.09932611 26.71736392 -27.05078125 16.2265625 C-27.40619917 10.69319334 -26.9670133 6.95248155 -23.4375 2.5625 C-16.65814485 -3.97230928 -8.09552953 -4.19232779 0 0 Z " fill="#D6625E" transform="translate(120.5,133.8125)"/>
<path d="M0 0 C3.19711637 1.04675958 5.22051965 2.55264386 7.82421875 4.67578125 C8.68402344 5.36285156 9.54382813 6.04992187 10.4296875 6.7578125 C12.50976779 8.74217228 13.57524678 10.22442636 14.63671875 12.86328125 C15.01183594 12.3321875 15.38695312 11.80109375 15.7734375 11.25390625 C22.85728479 1.4756989 22.85728479 1.4756989 29.32421875 0.05078125 C32.63671875 -0.13671875 32.63671875 -0.13671875 34.63671875 0.86328125 C34.63671875 2.51328125 34.63671875 4.16328125 34.63671875 5.86328125 C35.72984375 5.65703125 36.82296875 5.45078125 37.94921875 5.23828125 C41.63671875 4.86328125 41.63671875 4.86328125 44.63671875 6.86328125 C45.32421875 8.98828125 45.32421875 8.98828125 45.63671875 10.86328125 C46.39984375 10.98703125 47.16296875 11.11078125 47.94921875 11.23828125 C50.63671875 11.86328125 50.63671875 11.86328125 53.63671875 13.86328125 C53.40984375 14.77078125 53.18296875 15.67828125 52.94921875 16.61328125 C52.3106633 19.85831626 52.3106633 19.85831626 54.07421875 22.23828125 C54.58984375 22.77453125 55.10546875 23.31078125 55.63671875 23.86328125 C54.97671875 24.19328125 54.31671875 24.52328125 53.63671875 24.86328125 C54.87421875 25.60578125 54.87421875 25.60578125 56.13671875 26.36328125 C58.85019319 29.07675569 58.998676 29.40152577 59.01171875 32.98828125 C58.63671875 36.86328125 58.63671875 36.86328125 57.63671875 38.86328125 C56.64671875 38.86328125 55.65671875 38.86328125 54.63671875 38.86328125 C55.13171875 42.32828125 55.13171875 42.32828125 55.63671875 45.86328125 C53.19921875 45.05078125 53.19921875 45.05078125 50.63671875 43.86328125 C49.63671875 40.86328125 49.63671875 40.86328125 49.94921875 38.23828125 C49.47526592 33.11959065 46.67562172 29.88874751 43.63671875 25.86328125 C42.97542969 24.95255859 42.97542969 24.95255859 42.30078125 24.0234375 C39.74477729 20.69412024 37.74791594 18.79764425 33.63671875 17.86328125 C28.85042925 17.29496487 25.6007807 17.36339728 21.26171875 19.61328125 C18.96316016 21.58347432 17.38034394 23.42220598 15.63671875 25.86328125 C14.97671875 25.86328125 14.31671875 25.86328125 13.63671875 25.86328125 C13.40984375 25.26515625 13.18296875 24.66703125 12.94921875 24.05078125 C11.18681039 21.11343399 9.77538333 20.26566329 6.63671875 18.86328125 C0.97325552 17.56695383 -3.9789378 17.42508799 -9.36328125 19.86328125 C-13.04577442 22.51923871 -15.00727983 25.16450936 -15.9453125 29.640625 C-16.37896119 37.47655593 -14.14600109 42.75265332 -9.36328125 48.86328125 C-7.73405385 50.56656444 -6.07686768 52.24489406 -4.36328125 53.86328125 C-3.69661458 55.19661458 -3.02994792 56.52994792 -2.36328125 57.86328125 C-1.03935153 58.8756981 0.29271042 59.87767514 1.63671875 60.86328125 C1.63671875 61.52328125 1.63671875 62.18328125 1.63671875 62.86328125 C2.62671875 63.19328125 3.61671875 63.52328125 4.63671875 63.86328125 C4.96671875 64.52328125 5.29671875 65.18328125 5.63671875 65.86328125 C6.42046875 66.31703125 7.20421875 66.77078125 8.01171875 67.23828125 C10.67229612 68.88530534 12.0151613 70.21758225 13.63671875 72.86328125 C13.63671875 73.52328125 13.63671875 74.18328125 13.63671875 74.86328125 C14.59578125 75.04890625 14.59578125 75.04890625 15.57421875 75.23828125 C16.25484375 75.44453125 16.93546875 75.65078125 17.63671875 75.86328125 C19.17269329 78.93523033 18.86322255 81.46572418 18.63671875 84.86328125 C17.13671875 88.30078125 17.13671875 88.30078125 15.63671875 90.86328125 C14.97671875 90.86328125 14.31671875 90.86328125 13.63671875 90.86328125 C12.34765625 89.4375 12.34765625 89.4375 11.01171875 87.55078125 C10.56570312 86.93589844 10.1196875 86.32101563 9.66015625 85.6875 C8.63671875 83.86328125 8.63671875 83.86328125 8.63671875 80.86328125 C7.64671875 81.19328125 6.65671875 81.52328125 5.63671875 81.86328125 C4.43229167 80.33333333 3.22786458 78.80338542 2.0234375 77.2734375 C0.57988784 75.59173048 0.57988784 75.59173048 -2.36328125 74.86328125 C-2.36328125 73.54328125 -2.36328125 72.22328125 -2.36328125 70.86328125 C-4.34328125 71.35828125 -4.34328125 71.35828125 -6.36328125 71.86328125 C-6.85248047 71.1053125 -6.85248047 71.1053125 -7.3515625 70.33203125 C-7.78855469 69.68234375 -8.22554687 69.03265625 -8.67578125 68.36328125 C-9.10503906 67.71359375 -9.53429687 67.06390625 -9.9765625 66.39453125 C-10.43417969 65.88921875 -10.89179687 65.38390625 -11.36328125 64.86328125 C-12.35328125 64.86328125 -13.34328125 64.86328125 -14.36328125 64.86328125 C-18.36328125 59.72042411 -18.36328125 59.72042411 -18.36328125 55.86328125 C-19.84828125 56.35828125 -19.84828125 56.35828125 -21.36328125 56.86328125 C-25.66227752 51.45486659 -26.36328125 46.67774269 -26.36328125 39.86328125 C-27.02328125 39.86328125 -27.68328125 39.86328125 -28.36328125 39.86328125 C-29.5331147 37.52361435 -29.52940535 36.02936598 -29.55078125 33.42578125 C-29.56496094 32.64332031 -29.57914062 31.86085937 -29.59375 31.0546875 C-29.36328125 28.86328125 -29.36328125 28.86328125 -27.36328125 25.86328125 C-26.04328125 25.86328125 -24.72328125 25.86328125 -23.36328125 25.86328125 C-23.36328125 25.20328125 -23.36328125 24.54328125 -23.36328125 23.86328125 C-24.35328125 23.53328125 -25.34328125 23.20328125 -26.36328125 22.86328125 C-25.84765625 22.28578125 -25.33203125 21.70828125 -24.80078125 21.11328125 C-24.32640625 20.37078125 -23.85203125 19.62828125 -23.36328125 18.86328125 C-23.54890625 18.20328125 -23.73453125 17.54328125 -23.92578125 16.86328125 C-24.07015625 16.20328125 -24.21453125 15.54328125 -24.36328125 14.86328125 C-22.67578125 12.61328125 -22.67578125 12.61328125 -20.36328125 10.86328125 C-19.04328125 10.86328125 -17.72328125 10.86328125 -16.36328125 10.86328125 C-16.36328125 9.87328125 -16.36328125 8.88328125 -16.36328125 7.86328125 C-14.80078125 6.11328125 -14.80078125 6.11328125 -12.36328125 4.86328125 C-8.61328125 5.17578125 -8.61328125 5.17578125 -5.36328125 5.86328125 C-5.36328125 4.54328125 -5.36328125 3.22328125 -5.36328125 1.86328125 C-2.36328125 -0.13671875 -2.36328125 -0.13671875 0 0 Z " fill="#DEDCDA" transform="translate(110.36328125,114.13671875)"/>
<path d="M0 0 C3.15571527 1.37205012 5.67419927 3.25534503 8.36645508 5.37719727 C18.9254824 13.62006977 30.75660267 19.55495464 42.62426758 25.66235352 C45 27 45 27 47 29 C47.41064453 31.00854492 47.41064453 31.00854492 47.6328125 33.48046875 C47.71756836 34.39022461 47.80232422 35.29998047 47.88964844 36.23730469 C48.20784407 40.22597271 48.51704771 44.21463586 48.79199219 48.20654297 C48.97220857 50.62677283 49.21261046 53.02933391 49.4765625 55.44140625 C49.86312835 60.82571636 50.06123934 64.42862824 46.9765625 68.99609375 C42.82061877 73.29556107 38.17758698 77.00244964 33 80 C33.33 78.02 33.66 76.04 34 74 C34.61875 73.896875 35.2375 73.79375 35.875 73.6875 C38.36526484 73.12474627 38.36526484 73.12474627 40 70 C40.45851865 67.32927879 40.45851865 67.32927879 40.625 64.4375 C40.69976562 63.46683594 40.77453125 62.49617188 40.8515625 61.49609375 C40.94057824 59.99922374 41 58.49951447 41 57 C41.99 57 42.98 57 44 57 C44.72231844 50.87278676 44.72231844 50.87278676 42.88671875 45.22265625 C41.38431777 43.70538271 41.38431777 43.70538271 39 42 C39.66 41.67 40.32 41.34 41 41 C40.01 40.01 39.02 39.02 38 38 C38.99 35.03 38.99 35.03 40 32 C36.5980513 29.90649311 33.94727588 29.82057837 30 30 C30 28.35 30 26.7 30 25 C25.46859347 24.06619039 25.46859347 24.06619039 21 25 C19.75453595 22.50907189 20.2232422 21.58919267 21 19 C17.1028604 18.68822883 14.55639785 18.7333927 11 20.4375 C7.01891691 23.83800847 4.05539216 27.76945701 1 32 C0.34 31.34 -0.32 30.68 -1 30 C-1 29.01 -1 28.02 -1 27 C-1.53625 26.773125 -2.0725 26.54625 -2.625 26.3125 C-5 25 -5 25 -7.9375 22.4375 C-10.90434936 20.0761301 -12.28751813 19.2006747 -16 19 C-16.99 19.33 -17.98 19.66 -19 20 C-19 21.32 -19 22.64 -19 24 C-20.0725 23.95875 -21.145 23.9175 -22.25 23.875 C-25.65747485 23.9885825 -27.20739631 24.21273364 -30 26 C-30 26.99 -30 27.98 -30 29 C-31.175625 29.433125 -31.175625 29.433125 -32.375 29.875 C-35.09671632 30.84912254 -35.09671632 30.84912254 -37 33 C-36.814375 33.804375 -36.62875 34.60875 -36.4375 35.4375 C-36.293125 36.283125 -36.14875 37.12875 -36 38 C-37.4375 39.8125 -37.4375 39.8125 -39 41 C-38.34 41.33 -37.68 41.66 -37 42 C-37 42.66 -37 43.32 -37 44 C-38.98 44.495 -38.98 44.495 -41 45 C-42.10228696 49.40914783 -42.07654536 53.48382401 -42 58 C-40.515 57.505 -40.515 57.505 -39 57 C-39.061875 58.175625 -39.12375 59.35125 -39.1875 60.5625 C-39.19551409 65.07443531 -38.07401663 68.01150648 -36 72 C-35.34 72.66 -34.68 73.32 -34 74 C-33.34 74 -32.68 74 -32 74 C-31.01 77.465 -31.01 77.465 -30 81 C-44.55741127 70.88517745 -44.55741127 70.88517745 -48 64 C-48.44619303 56.37321211 -48.11991321 49.06158496 -46.48046875 41.6015625 C-45.98166742 38.90073581 -45.9275697 36.36671189 -45.875 33.625 C-45.45731269 29.6000132 -45.25093189 29.21956541 -42 26.375 C-40.35921478 25.53099897 -38.68591127 24.74981137 -37 24 C-34.24561697 22.75950965 -31.49615796 21.50859272 -28.75 20.25 C-28.00886963 19.91154053 -27.26773926 19.57308105 -26.50415039 19.22436523 C-16.43251778 14.49830142 -8.17412156 7.47691708 0 0 Z " fill="#16774F" transform="translate(124,96)"/>
<path d="M0 0 C1.47251312 0.82449705 2.95246399 1.6357779 4.4375 2.4375 C11.79478346 6.53444882 11.79478346 6.53444882 15 9 C15 9.99 15 10.98 15 12 C12.13275314 11.42655063 11.1385485 11.1385485 9 9 C-1.33622705 7.73085288 -9.42591087 8.64559892 -18 15 C-19.75291112 16.45145507 -21.44281067 17.94763387 -23.12109375 19.484375 C-33.34251339 27.72951184 -44.1448932 30.03733753 -57 29 C-66.9562807 26.90855487 -74.02488965 21.11554882 -81 14 C-81 14.66 -81 15.32 -81 16 C-81.66 16 -82.32 16 -83 16 C-83 13.03 -83 10.06 -83 7 C-80.38502059 7.44828218 -78.07655944 7.96776444 -75.625 9 C-69.99476395 11.14485183 -63.96873134 11.37099975 -58 11 C-56.92685547 10.93425781 -56.92685547 10.93425781 -55.83203125 10.8671875 C-48.96896801 9.97050587 -43.76130645 6.77773991 -37.90454102 3.32836914 C-32.75818865 0.32729743 -27.87335786 -1.81435019 -22 -3 C-20.2675 -3.37125 -20.2675 -3.37125 -18.5 -3.75 C-11.69757548 -4.23588747 -5.67085032 -4.07137971 0 0 Z " fill="#8CAB54" transform="translate(83,72)"/>
<path d="M0 0 C0.66 0 1.32 0 2 0 C2.36116046 1.4774746 2.71375048 2.95704675 3.0625 4.4375 C3.35833984 5.67306641 3.35833984 5.67306641 3.66015625 6.93359375 C3.77230469 7.61550781 3.88445312 8.29742187 4 9 C3.67 9.33 3.34 9.66 3 10 C2.7437866 14.34787684 2.81475739 18.70798543 2.8125 23.0625 C2.79413086 24.8868457 2.79413086 24.8868457 2.77539062 26.74804688 C2.74124373 36.0593582 2.74124373 36.0593582 5 45 C6.87223908 46.32944027 6.87223908 46.32944027 9 47 C10.60546875 48.8046875 10.60546875 48.8046875 12.1875 50.875 C19.05881665 58.89395728 27.91570495 59.81544602 38 61 C36.33333333 62.66666667 34.66666667 64.33333333 33 66 C32.31550781 66.83724609 32.31550781 66.83724609 31.6171875 67.69140625 C30 69 30 69 27.87109375 69.1015625 C18.22150259 67.21191543 10.77937536 62.16681533 5.18359375 54.06640625 C3.32628076 50.82377069 2.14268081 47.55500696 1 44 C0.75765625 44.58007812 0.5153125 45.16015625 0.265625 45.7578125 C-3.97958615 55.65242002 -9.06815946 62.69081486 -19 67.26171875 C-22.33681147 68.49347142 -24.48021541 68.61750607 -28 68 C-30.36670508 66.67087215 -32.52689753 65.18505308 -34.72265625 63.58984375 C-37.44326413 61.69055146 -40.25600491 60.31673853 -43.2734375 58.95703125 C-45.28413043 57.84250689 -46.58492477 56.81876234 -48 55 C-48 53.68 -48 52.36 -48 51 C-43.71 50.34 -39.42 49.68 -35 49 C-35.66 49.66 -36.32 50.32 -37 51 C-26.90208438 49.99020844 -19.77544607 44.23093825 -13 37 C-8.0216101 30.37299297 -2 20.42526259 -2 12 C-2.33 12.66 -2.66 13.32 -3 14 C-3.66 13.67 -4.32 13.34 -5 13 C-4.35780498 11.01964979 -3.71114356 9.04074744 -3.0625 7.0625 C-2.70285156 5.96035156 -2.34320313 4.85820312 -1.97265625 3.72265625 C-1 1 -1 1 0 0 Z " fill="#2D784F" transform="translate(124,13)"/>
<path d="M0 0 C0.47429048 7.35150241 -0.78614922 12.40089306 -4 19 C-4.30421875 19.6909375 -4.6084375 20.381875 -4.921875 21.09375 C-8.4967119 28.02343384 -15.38488747 32.22990948 -22 36 C-22.99 36 -23.98 36 -25 36 C-24.7834375 36.52207031 -24.566875 37.04414062 -24.34375 37.58203125 C-21.71411016 44.53353287 -20.60577731 51.81733193 -23 59 C-22.2575 58.505 -21.515 58.01 -20.75 57.5 C-18 56 -18 56 -14 56 C-14.64977831 62.82267222 -17.86953762 67.55359927 -23 72 C-23.66 72 -24.32 72 -25 72 C-25 72.66 -25 73.32 -25 74 C-33.98370785 78.74554667 -41.77156796 81.52923535 -52 82 C-52.66 81.67 -53.32 81.34 -54 81 C-53.3776187 77.14683037 -52.21667646 73.96673701 -50.5625 70.4375 C-50.13066406 69.50808594 -49.69882813 68.57867187 -49.25390625 67.62109375 C-48.19211298 65.40158196 -47.11061328 63.19539834 -46 61 C-45.34 61 -44.68 61 -44 61 C-44 65.62 -44 70.24 -44 75 C-40.57421051 71.82460444 -40.57421051 71.82460444 -38 68 C-37.34 68 -36.68 68 -36 68 C-35.87625 67.34 -35.7525 66.68 -35.625 66 C-35 63 -35 63 -33.9375 59.5 C-32.47970749 53.72363418 -32.68375282 47.91081047 -33 42 C-33.03351563 41.24589844 -33.06703125 40.49179688 -33.1015625 39.71484375 C-33.30337121 37.60045163 -33.30337121 37.60045163 -35 35 C-38.24649118 33.51112905 -41.50156678 32.67774075 -45 32 C-45 31.67 -45 31.34 -45 31 C-39.25 30.875 -39.25 30.875 -37 32 C-38.32 29.03 -39.64 26.06 -41 23 C-39.72769531 23.01353516 -39.72769531 23.01353516 -38.4296875 23.02734375 C-26.58048178 22.72785833 -16.99572305 19.01231964 -8 11 C-6.66701026 8.38181544 -6.66701026 8.38181544 -6 6 C-8.64 6 -11.28 6 -14 6 C-13.13761719 5.57074219 -13.13761719 5.57074219 -12.2578125 5.1328125 C-10.8108611 4.40683342 -9.36774192 3.6731345 -7.9296875 2.9296875 C-7.25164062 2.58164063 -6.57359375 2.23359375 -5.875 1.875 C-5.19179687 1.52179688 -4.50859375 1.16859375 -3.8046875 0.8046875 C-2 0 -2 0 0 0 Z " fill="#257153" transform="translate(250,78)"/>
<path d="M0 0 C5.25803962 2.95699654 10.33083062 6.24429126 15.2578125 9.72265625 C19.48324818 12.69043049 23.4300111 14.74235979 28.28515625 16.546875 C32.18157152 18.07565959 34.59126562 19.1257253 36.72265625 22.796875 C37.97265625 26.109375 37.97265625 26.109375 37.97265625 28.109375 C36.32265625 28.109375 34.67265625 28.109375 32.97265625 28.109375 C33.52695313 28.24472656 34.08125 28.38007812 34.65234375 28.51953125 C36.93233758 29.19703831 38.90049283 29.93796833 40.97265625 31.109375 C42.41400102 33.87195248 42.73456073 35.10730111 42.97265625 38.109375 C43.05257812 39.06328125 43.1325 40.0171875 43.21484375 41 C43.55732484 49.34042185 41.83109612 56.31246983 38.97265625 64.109375 C38.31265625 64.109375 37.65265625 64.109375 36.97265625 64.109375 C36.72515625 64.893125 36.47765625 65.676875 36.22265625 66.484375 C34.97265625 69.109375 34.97265625 69.109375 30.97265625 71.109375 C30.97265625 66.489375 30.97265625 61.869375 30.97265625 57.109375 C30.31265625 57.109375 29.65265625 57.109375 28.97265625 57.109375 C28.64265625 47.869375 28.31265625 38.629375 27.97265625 29.109375 C25.00265625 28.779375 22.03265625 28.449375 18.97265625 28.109375 C10.40660861 25.26488263 4.22710052 20.02224177 -2.11328125 13.87109375 C-5.59533958 10.50230157 -9.40044702 7.58820727 -13.26171875 4.66796875 C-13.844375 4.15363281 -14.42703125 3.63929687 -15.02734375 3.109375 C-15.02734375 2.449375 -15.02734375 1.789375 -15.02734375 1.109375 C-16.34734375 0.779375 -17.66734375 0.449375 -19.02734375 0.109375 C-12.49091725 -2.5051956 -6.42643169 -3.10342487 0 0 Z " fill="#3A8055" transform="translate(175.02734375,81.890625)"/>
<path d="M0 0 C0.33 0 0.66 0 1 0 C1 1.65 1 3.3 1 5 C1.8353125 5.0928125 1.8353125 5.0928125 2.6875 5.1875 C5.35409727 6.12441255 6.53881902 7.57155256 8.47192383 9.56225586 C11.37532463 12.29402248 14.71716266 14.44086345 18 16.6875 C23.42171394 20.45458803 28.78033283 24.26923955 34 28.3125 C34.53262451 28.72242188 35.06524902 29.13234375 35.61401367 29.5546875 C37.86702364 31.29904463 40.08001984 33.06898744 42.23828125 34.9296875 C49.08710917 40.73377896 56.74390542 43.60043164 65 47 C65 41.39 65 35.78 65 30 C65.66 30 66.32 30 67 30 C70.875 36.625 70.875 36.625 72 40 C72.66 40 73.32 40 74 40 C74.268125 39.0925 74.53625 38.185 74.8125 37.25 C75.89576294 34.28528037 76.98359457 32.3830246 79 30 C80.485 30.495 80.485 30.495 82 31 C81.67 35.62 81.34 40.24 81 45 C82.98 45.495 82.98 45.495 85 46 C80.69927587 46.9774373 78.84502718 46.98453016 75 45 C71.65022937 45.31902577 70.40820361 45.59179639 68 48 C67.071875 48.28875 66.14375 48.5775 65.1875 48.875 C59.63819912 50.83357678 56.47403189 54.36795748 53 59 C49.20981287 58.42934261 47.5101418 56.83739592 44.8125 54.1875 C38.98302245 48.76573889 32.58974039 44.31788994 26.05078125 39.796875 C25.02754761 39.08035767 25.02754761 39.08035767 23.98364258 38.34936523 C22.73548792 37.50031283 21.46364338 36.68417326 20.1628418 35.91821289 C14.26923796 32.2739261 11.50193082 26.87408262 8.1875 20.9375 C7.32995117 19.44766602 7.32995117 19.44766602 6.45507812 17.92773438 C4.94729444 15.29664298 3.45497822 12.66063237 2 10 C1.42245972 8.95501343 1.42245972 8.95501343 0.83325195 7.88891602 C-0.33779931 5.23423578 -0.13009049 2.86199079 0 0 Z " fill="#2D765F" transform="translate(52,165)"/>
<path d="M0 0 C3.21472497 1.60736248 4.1237161 4.940928 5.625 8.0625 C5.94984375 8.72572266 6.2746875 9.38894531 6.609375 10.07226562 C7.41165115 11.71221247 8.2065288 13.35577492 9 15 C10.32 15 11.64 15 13 15 C13.33 16.32 13.66 17.64 14 19 C15.65 19 17.3 19 19 19 C18.67 19.598125 18.34 20.19625 18 20.8125 C16.79212012 23.05386471 16.79212012 23.05386471 17 26 C23.78440112 35.35460087 34.25755448 40.45072251 45.34765625 42.296875 C48 43 48 43 50 46 C52.33294775 46.04241723 54.66702567 46.04092937 57 46 C57.99 46.66 58.98 47.32 60 48 C59.11699219 48.02578125 58.23398438 48.0515625 57.32421875 48.078125 C51.2483576 48.36527633 46.04384046 48.72435929 40.4375 51.1875 C32.49411753 54.4046284 24.55307938 52.26585455 16.875 49.0625 C14.06542993 47.75313433 12.00604641 46.38607383 10 44 C10 43.34 10 42.68 10 42 C9.443125 41.79375 8.88625 41.5875 8.3125 41.375 C2.89354107 38.15291631 0.68053668 33.86425038 -1 28 C-1.24291992 24.85620117 -1.24291992 24.85620117 -1.23046875 21.54296875 C-1.22853516 20.34865234 -1.22660156 19.15433594 -1.22460938 17.92382812 C-1.20624023 16.0743457 -1.20624023 16.0743457 -1.1875 14.1875 C-1.18685547 12.93517578 -1.18621094 11.68285156 -1.18554688 10.39257812 C-1.14036515 1.14036515 -1.14036515 1.14036515 0 0 Z " fill="#599158" transform="translate(127,22)"/>
<path d="M0 0 C0.639375 0.804375 1.27875 1.60875 1.9375 2.4375 C3.40603502 4.2750504 3.40603502 4.2750504 5 6 C4.95875 7.11375 4.9175 8.2275 4.875 9.375 C4.64769995 12.89732677 4.64769995 12.89732677 6.375 14.8125 C6.91125 15.204375 7.4475 15.59625 8 16 C8.66 16.66 9.32 17.32 10 18 C8.94124926 21.40312738 7.99097846 24.01353231 6 27 C4.68 27 3.36 27 2 27 C1.814375 28.11375 1.814375 28.11375 1.625 29.25 C1.02085639 31.90823188 0.54427697 33.76079839 -1 36 C-3.625 37.25 -3.625 37.25 -6 38 C-6.66 37.34 -7.32 36.68 -8 36 C-8.33 37.65 -8.66 39.3 -9 41 C-9.66 41 -10.32 41 -11 41 C-11 41.66 -11 42.32 -11 43 C-11.61875 43.0825 -12.2375 43.165 -12.875 43.25 C-15.18437567 43.81258459 -15.18437567 43.81258459 -16.25 46.0625 C-16.4975 46.701875 -16.745 47.34125 -17 48 C-17.66 48 -18.32 48 -19 48 C-19 48.66 -19 49.32 -19 50 C-21 51.625 -21 51.625 -23 53 C-23.66 52.67 -24.32 52.34 -25 52 C-25.33 52.99 -25.66 53.98 -26 55 C-26.33 55 -26.66 55 -27 55 C-27.33 52.36 -27.66 49.72 -28 47 C-28.6084375 46.90589844 -29.216875 46.81179687 -29.84375 46.71484375 C-32.50819551 45.83152214 -33.05036793 44.91815212 -34.5 42.5625 C-36.46364297 39.60506211 -37.78053139 38.50912591 -41 37 C-42.68732277 35.01739574 -44.35366057 33.0167658 -46 31 C-48.16220617 29.1873495 -48.16220617 29.1873495 -50 28 C-49.67 27.34 -49.34 26.68 -49 26 C-37.47835991 35.41002278 -37.47835991 35.41002278 -32 40 C-26.2639244 37.46701334 -21.75621228 32.99759312 -17 29 C-16.24589844 28.38382813 -15.49179688 27.76765625 -14.71484375 27.1328125 C-5.44431307 19.38057683 -1.24239095 12.0097792 0 0 Z " fill="#A6A399" transform="translate(156,143)"/>
<path d="M0 0 C0.33 0 0.66 0 1 0 C1.24234375 1.27617188 1.4846875 2.55234375 1.734375 3.8671875 C2.07201718 5.5366405 2.41060826 7.20590179 2.75 8.875 C2.90726563 9.71675781 3.06453125 10.55851562 3.2265625 11.42578125 C3.47792969 12.63427734 3.47792969 12.63427734 3.734375 13.8671875 C3.88100586 14.61081543 4.02763672 15.35444336 4.17871094 16.12060547 C5.27112348 18.62042466 6.54348946 18.96149452 9 20 C10.60546875 21.8046875 10.60546875 21.8046875 12.1875 23.875 C19.05881665 31.89395728 27.91570495 32.81544602 38 34 C36.33333333 35.66666667 34.66666667 37.33333333 33 39 C32.54367188 39.55816406 32.08734375 40.11632812 31.6171875 40.69140625 C30 42 30 42 27.87109375 42.1015625 C18.22150259 40.21191543 10.77937536 35.16681533 5.18359375 27.06640625 C3.32628076 23.82377069 2.14268081 20.55500696 1 17 C0.75765625 17.58007812 0.5153125 18.16015625 0.265625 18.7578125 C-3.98416453 28.66309117 -9.07198357 35.6638574 -18.9921875 40.265625 C-22.25770932 41.46001819 -24.57177106 41.56098292 -28 41 C-30.59473955 39.62122663 -32.92086379 38.08545577 -35 36 C-35 35.34 -35 34.68 -35 34 C-34.24976562 33.91363281 -33.49953125 33.82726562 -32.7265625 33.73828125 C-21.77846748 32.23533118 -13.82942013 29.141916 -6.69140625 20.4609375 C-2.34397676 14.1355782 -0.56124476 7.57680424 0 0 Z " fill="#1E664C" transform="translate(124,40)"/>
<path d="M0 0 C2.5 2.5 2.5 2.5 5 5 C5.721875 5.680625 6.44375 6.36125 7.1875 7.0625 C9 9 9 9 10 11.0625 C11.23555504 13.45638789 12.85444757 14.42659489 15 16 C15 16.66 15 17.32 15 18 C15.99 18.33 16.98 18.66 18 19 C18.33 19.66 18.66 20.32 19 21 C19.78375 21.45375 20.5675 21.9075 21.375 22.375 C24.03557737 24.02202409 25.37844255 25.354301 27 28 C27 28.66 27 29.32 27 30 C27.639375 30.12375 28.27875 30.2475 28.9375 30.375 C29.9584375 30.684375 29.9584375 30.684375 31 31 C32.53597454 34.07194908 32.2265038 36.60244293 32 40 C30.5 43.4375 30.5 43.4375 29 46 C28.34 46 27.68 46 27 46 C25.7109375 44.57421875 25.7109375 44.57421875 24.375 42.6875 C23.92898437 42.07261719 23.48296875 41.45773438 23.0234375 40.82421875 C22 39 22 39 22 36 C20.515 36.495 20.515 36.495 19 37 C17.79557292 35.47005208 16.59114583 33.94010417 15.38671875 32.41015625 C13.94316909 30.72844923 13.94316909 30.72844923 11 30 C11 28.68 11 27.36 11 26 C9.68 26.33 8.36 26.66 7 27 C6.51080078 26.24203125 6.51080078 26.24203125 6.01171875 25.46875 C5.57472656 24.8190625 5.13773438 24.169375 4.6875 23.5 C4.25824219 22.8503125 3.82898438 22.200625 3.38671875 21.53125 C2.92910156 21.0259375 2.47148438 20.520625 2 20 C1.01 20 0.02 20 -1 20 C-5 14.85714286 -5 14.85714286 -5 11 C-5.99 11.33 -6.98 11.66 -8 12 C-8.33 11.34 -8.66 10.68 -9 10 C-8.39671875 9.92910156 -7.7934375 9.85820312 -7.171875 9.78515625 C-4.18077346 8.70384076 -3.66622754 7.23061543 -2.25 4.4375 C-1.82203125 3.61121094 -1.3940625 2.78492188 -0.953125 1.93359375 C-0.48132813 0.97646484 -0.48132813 0.97646484 0 0 Z " fill="#CECECE" transform="translate(97,159)"/>
<path d="M0 0 C0.66 0.33 1.32 0.66 2 1 C1.34 1.66 0.68 2.32 0 3 C0.66 3.66 1.32 4.32 2 5 C0.35 5.66 -1.3 6.32 -3 7 C-3 8.32 -3 9.64 -3 11 C-4.60875 10.938125 -4.60875 10.938125 -6.25 10.875 C-9.65747485 10.9885825 -11.20739631 11.21273364 -14 13 C-14 13.99 -14 14.98 -14 16 C-15.175625 16.433125 -15.175625 16.433125 -16.375 16.875 C-19.09671632 17.84912254 -19.09671632 17.84912254 -21 20 C-20.814375 20.804375 -20.62875 21.60875 -20.4375 22.4375 C-20.293125 23.283125 -20.14875 24.12875 -20 25 C-21.4375 26.8125 -21.4375 26.8125 -23 28 C-22.34 28.33 -21.68 28.66 -21 29 C-21 29.66 -21 30.32 -21 31 C-22.32 31.33 -23.64 31.66 -25 32 C-26.10228696 36.40914783 -26.07654536 40.48382401 -26 45 C-24.515 44.505 -24.515 44.505 -23 44 C-23.061875 45.175625 -23.12375 46.35125 -23.1875 47.5625 C-23.19551409 52.07443531 -22.07401663 55.01150648 -20 59 C-19.34 59.66 -18.68 60.32 -18 61 C-17.34 61 -16.68 61 -16 61 C-15.01 64.465 -15.01 64.465 -14 68 C-28.55741127 57.88517745 -28.55741127 57.88517745 -32 51 C-32.44619303 43.37321211 -32.11991321 36.06158496 -30.48046875 28.6015625 C-29.98166742 25.90073581 -29.9275697 23.36671189 -29.875 20.625 C-29.45731269 16.6000132 -29.25093189 16.21956541 -26 13.375 C-24.35692205 12.53547112 -22.68381901 11.75449813 -21 11 C-19.60829257 10.34604863 -18.21777179 9.68956887 -16.828125 9.03125 C-14.55598824 7.95618186 -12.28218494 6.88956814 -9.9921875 5.85302734 C-6.3543407 4.19580426 -3.07765299 2.60790595 0 0 Z " fill="#1E774E" transform="translate(108,109)"/>
<path d="M0 0 C12 1 12 1 14.25 3.25 C16.38356009 13.91780044 14.70856809 22.8842183 11 33 C10.34 33 9.68 33 9 33 C8.7525 33.78375 8.505 34.5675 8.25 35.375 C7 38 7 38 3 40 C3 35.38 3 30.76 3 26 C2.34 26 1.68 26 1 26 C0.67 17.42 0.34 8.84 0 0 Z " fill="#629A53" transform="translate(203,113)"/>
<path d="M0 0 C-0.64977831 6.82267222 -3.86953762 11.55359927 -9 16 C-9.66 16 -10.32 16 -11 16 C-11 16.66 -11 17.32 -11 18 C-19.98370785 22.74554667 -27.77156796 25.52923535 -38 26 C-38.66 25.67 -39.32 25.34 -40 25 C-39.3776187 21.14683037 -38.21667646 17.96673701 -36.5625 14.4375 C-35.91474609 13.04337891 -35.91474609 13.04337891 -35.25390625 11.62109375 C-34.19211298 9.40158196 -33.11061328 7.19539834 -32 5 C-31.34 5 -30.68 5 -30 5 C-30 9.62 -30 14.24 -30 19 C-28.9275 18.05125 -27.855 17.1025 -26.75 16.125 C-24.84855456 14.44295211 -23.19556442 13.09723184 -20.91796875 11.96484375 C-18.72005556 10.99437712 -18.72005556 10.99437712 -16.5625 8.4375 C-13.8821463 5.88789526 -12.60931917 5.30937021 -9 5 C-9 4.34 -9 3.68 -9 3 C-5.63316085 0.56839395 -4.26649636 0 0 0 Z " fill="#21614F" transform="translate(236,134)"/>
<path d="M0 0 C1.7492214 -0.08142927 3.49954542 -0.13938541 5.25 -0.1875 C6.22453125 -0.22230469 7.1990625 -0.25710937 8.203125 -0.29296875 C11.49279988 0.0516201 12.61481045 0.75349148 15 3 C15.63769531 5.12207031 15.63769531 5.12207031 15.828125 7.578125 C15.90643555 8.4846582 15.98474609 9.39119141 16.06542969 10.32519531 C16.12633789 11.29038086 16.18724609 12.25556641 16.25 13.25 C16.31864258 14.23838867 16.38728516 15.22677734 16.45800781 16.24511719 C16.58942136 18.23703581 16.71160115 20.22958661 16.82421875 22.22265625 C16.97721181 24.63994656 17.20430059 27.03056212 17.46875 29.4375 C17.86611745 34.82403656 18.0626648 38.42651757 14.9765625 42.99609375 C10.82061877 47.29556107 6.17758698 51.00244964 1 54 C1.495 51.03 1.495 51.03 2 48 C2.928125 47.8453125 2.928125 47.8453125 3.875 47.6875 C6.36526484 47.12474627 6.36526484 47.12474627 8 44 C8.45851865 41.32927879 8.45851865 41.32927879 8.625 38.4375 C8.69976562 37.46683594 8.77453125 36.49617188 8.8515625 35.49609375 C8.94057824 33.99922374 9 32.49951447 9 31 C9.99 31 10.98 31 12 31 C12.72231844 24.87278676 12.72231844 24.87278676 10.88671875 19.22265625 C9.38431777 17.70538271 9.38431777 17.70538271 7 16 C7.66 15.67 8.32 15.34 9 15 C8.01 14.01 7.02 13.02 6 12 C6.66 10.02 7.32 8.04 8 6 C4.5980513 3.90649311 1.94727588 3.82057837 -2 4 C-1.34 2.68 -0.68 1.36 0 0 Z " fill="#257B57" transform="translate(156,122)"/>
<path d="M0 0 C1.00246365 4.0098546 1.03326281 7.48683489 0.9375 11.5625 C0.84583269 18.24810213 1.45053132 24.47009628 3 31 C1.01501949 30.07487334 -0.96286018 29.13449763 -2.9375 28.1875 C-4.03964844 27.66542969 -5.14179688 27.14335937 -6.27734375 26.60546875 C-9 25 -9 25 -10 22 C-10.66 22 -11.32 22 -12 22 C-14.05076648 15.84770057 -13.36013736 9.90034341 -11 4 C-10.34 4 -9.68 4 -9 4 C-9 3.01 -9 2.02 -9 1 C-4.545 0.505 -4.545 0.505 0 0 Z " fill="#639E5D" transform="translate(33,115)"/>
<path d="M0 0 C2 2 2 2 2.375 5 C2.58125 5.99 2.7875 6.98 3 8 C4.32593359 8.68126524 5.660428 9.34595942 7 10 C8.60546875 11.8046875 8.60546875 11.8046875 10.1875 13.875 C17.05881665 21.89395728 25.91570495 22.81544602 36 24 C34.33333333 25.66666667 32.66666667 27.33333333 31 29 C30.54367188 29.55816406 30.08734375 30.11632812 29.6171875 30.69140625 C28 32 28 32 25.87109375 32.1015625 C16.35089713 30.23725433 8.69641984 25.22396249 3.1875 17.1796875 C0.11063907 11.53202829 -1.62839945 6.32268199 0 0 Z " fill="#377E57" transform="translate(126,50)"/>
<path d="M0 0 C1.093125 0.680625 2.18625 1.36125 3.3125 2.0625 C4.05371094 2.52398437 4.79492188 2.98546875 5.55859375 3.4609375 C7.16389693 4.47292062 8.76063085 5.49864984 10.34765625 6.5390625 C18.9687201 12.16207478 27.97163408 17.07041973 37 22 C36.67 22.66 36.34 23.32 36 24 C33.36 23.67 30.72 23.34 28 23 C27.67 23.66 27.34 24.32 27 25 C26.67 24.01 26.34 23.02 26 22 C21.46859347 21.06619039 21.46859347 21.06619039 17 22 C15.75453595 19.50907189 16.2232422 18.58919267 17 16 C11.24169504 15.5393356 8.49365922 16.38553498 4 20 C2.29671681 21.6292274 0.61838719 23.28641357 -1 25 C-0.85950482 23.52031676 -0.71245174 22.04125484 -0.5625 20.5625 C-0.48128906 19.73878906 -0.40007812 18.91507813 -0.31640625 18.06640625 C0 16 0 16 1 15 C1.17765417 9.84802914 0.84634488 5.07806929 0 0 Z " fill="#5C9958" transform="translate(128,99)"/>
<path d="M0 0 C1.84606624 4.83875747 -0.50184521 8.35696259 -2.48046875 12.83203125 C-8.33915825 25.0464199 -15.97637563 34.46877255 -28.56640625 40.16015625 C-31.47974745 41.16556292 -33.93982598 41.14233368 -37 41 C-33.40472145 37.05679127 -29.56703235 34.30421479 -25.08203125 31.42578125 C-22.8355157 29.98109685 -22.8355157 29.98109685 -20.625 27.625 C-20.08875 27.08875 -19.5525 26.5525 -19 26 C-18.01 26 -17.02 26 -16 26 C-15.7525 25.278125 -15.505 24.55625 -15.25 23.8125 C-14 21 -14 21 -12.1875 18.8125 C-8.52701993 14.10616848 -5.88413972 8.65241917 -4 3 C-3.01 3 -2.02 3 -1 3 C-0.67 2.01 -0.34 1.02 0 0 Z " fill="#8EB36C" transform="translate(122,24)"/>
<path d="M0 0 C6.573451 4.10257935 12.33268868 8.72122776 18 14 C21.68695747 12.39999959 24.44358653 10.08619601 27.5 7.5 C30.55641347 4.91380399 33.31304253 2.60000041 37 1 C36.175 1.680625 35.35 2.36125 34.5 3.0625 C31.44297875 6.59505789 31.76429701 10.13074819 32 14.5625 C32.1546875 16.48255859 32.1546875 16.48255859 32.3125 18.44140625 C32 22 32 22 29.5 24.96484375 C28.675 25.63644531 27.85 26.30804688 27 27 C26.34 26.67 25.68 26.34 25 26 C24.67 26.99 24.34 27.98 24 29 C23.67 29 23.34 29 23 29 C22.67 26.36 22.34 23.72 22 21 C21.3915625 20.90589844 20.783125 20.81179687 20.15625 20.71484375 C17.49180449 19.83152214 16.94963207 18.91815212 15.5 16.5625 C13.53635703 13.60506211 12.21946861 12.50912591 9 11 C7.31267723 9.01739574 5.64633943 7.0167658 4 5 C2.67098936 3.99426222 1.33926199 2.99204592 0 2 C0 1.34 0 0.68 0 0 Z " fill="#A59E95" transform="translate(106,169)"/>
<path d="M0 0 C5.71528135 1.64650765 7.63439764 3.24856138 11 8 C11 8.66 11 9.32 11 10 C11.639375 10.12375 12.27875 10.2475 12.9375 10.375 C13.618125 10.58125 14.29875 10.7875 15 11 C16.53597454 14.07194908 16.2265038 16.60244293 16 20 C14.5 23.4375 14.5 23.4375 13 26 C12.34 26 11.68 26 11 26 C9.7109375 24.57421875 9.7109375 24.57421875 8.375 22.6875 C7.70597656 21.76517578 7.70597656 21.76517578 7.0234375 20.82421875 C6 19 6 19 6 16 C5.01 16.33 4.02 16.66 3 17 C0.984375 15.421875 0.984375 15.421875 -1 13 C-1.171875 9.765625 -1.171875 9.765625 -0.75 6.25 C-0.55664062 4.49429688 -0.55664062 4.49429688 -0.359375 2.703125 C-0.24078125 1.81109375 -0.1221875 0.9190625 0 0 Z " fill="#CECECD" transform="translate(113,179)"/>
<path d="M0 0 C0.639375 0.804375 1.27875 1.60875 1.9375 2.4375 C3.40603502 4.2750504 3.40603502 4.2750504 5 6 C4.95875 7.11375 4.9175 8.2275 4.875 9.375 C4.64769995 12.89732677 4.64769995 12.89732677 6.375 14.8125 C6.91125 15.204375 7.4475 15.59625 8 16 C8.66 16.66 9.32 17.32 10 18 C8.94124926 21.40312738 7.99097846 24.01353231 6 27 C4.68 27 3.36 27 2 27 C1.87625 27.7425 1.7525 28.485 1.625 29.25 C1.04513299 31.80141485 0.26291261 33.7267573 -1 36 C-2.32 35.67 -3.64 35.34 -5 35 C-4.67 31.7 -4.34 28.4 -4 25 C-3.01 24.67 -2.02 24.34 -1 24 C2.08649154 16.3085291 1.12073156 7.98521239 0 0 Z " fill="#B3B6AF" transform="translate(156,143)"/>
<path d="M0 0 C0.66 0 1.32 0 2 0 C5.875 6.625 5.875 6.625 7 10 C7.66 10 8.32 10 9 10 C9.268125 9.0925 9.53625 8.185 9.8125 7.25 C10.89576294 4.28528037 11.98359457 2.3830246 14 0 C14.99 0.33 15.98 0.66 17 1 C16.67 5.62 16.34 10.24 16 15 C17.32 15.33 18.64 15.66 20 16 C15.69927587 16.9774373 13.84502718 16.98453016 10 15 C6.65022937 15.31902577 5.40820361 15.59179639 3 18 C1.68 17.67 0.36 17.34 -1 17 C-0.67 11.39 -0.34 5.78 0 0 Z " fill="#7AA971" transform="translate(117,195)"/>
<path d="M0 0 C4.6069608 -0.46069608 8.66065377 -0.79772667 12.5625 2 C15.02569291 5.03162204 15.37128421 5.55225319 15.4375 9.1875 C15 13 15 13 14 15 C13.01 15 12.02 15 11 15 C11.33 17.31 11.66 19.62 12 22 C9.5625 21.1875 9.5625 21.1875 7 20 C6 17 6 17 6.3125 14.375 C5.89956046 9.91525297 3.92199121 7.50493248 1.3125 3.953125 C0 2 0 2 0 0 Z " fill="#CFCFCF" transform="translate(154,138)"/>
<path d="M0 0 C3.11001772 2.07334515 4.35622532 3.71245064 6 7 C7.32392972 8.01241685 8.65599167 9.01439389 10 10 C10 10.66 10 11.32 10 12 C10.99 12.33 11.98 12.66 13 13 C12.01 13.495 12.01 13.495 11 14 C11.04125 15.0725 11.0825 16.145 11.125 17.25 C11.0114175 20.65747485 10.78726636 22.20739631 9 25 C8.01 24.67 7.02 24.34 6 24 C6 22.68 6 21.36 6 20 C4.68 20.33 3.36 20.66 2 21 C1.34 19.68 0.68 18.36 0 17 C0.515625 16.505 1.03125 16.01 1.5625 15.5 C3.74983509 11.69593897 2.90419957 9.24278259 2 5 C1.34 4.67 0.68 4.34 0 4 C0 2.68 0 1.36 0 0 Z " fill="#C4C5C5" transform="translate(102,165)"/>
<path d="M0 0 C1.20628008 2.33214148 2.1654738 4.49642139 3 7 C3.99 6.67 4.98 6.34 6 6 C5.938125 7.175625 5.87625 8.35125 5.8125 9.5625 C5.80448591 14.07443531 6.92598337 17.01150648 9 21 C9.66 21.66 10.32 22.32 11 23 C11.66 23 12.32 23 13 23 C13.66 25.31 14.32 27.62 15 30 C12.26645145 28.08069996 9.63074763 26.0574935 7 24 C6.236875 23.45472656 5.47375 22.90945312 4.6875 22.34765625 C0.81972838 19.19127834 -0.8254661 17.24339481 -1.53515625 12.1875 C-1.64240549 8.42975476 -1.45671065 4.73372728 -1 1 C-0.67 0.67 -0.34 0.34 0 0 Z " fill="#11553D" transform="translate(79,147)"/>
<path d="M0 0 C0.33 0 0.66 0 1 0 C2.36762202 11.8696084 2.36762202 11.8696084 -0.79296875 16.79296875 C-3.08350926 19.08350926 -5.39701871 21.07421709 -8 23 C-8.63808594 23.47308594 -9.27617187 23.94617188 -9.93359375 24.43359375 C-11.25098792 25.34660794 -12.61936122 26.18577713 -14 27 C-13.67 25.02 -13.34 23.04 -13 21 C-12.38125 20.896875 -11.7625 20.79375 -11.125 20.6875 C-8.63473516 20.12474627 -8.63473516 20.12474627 -7 17 C-6.54148135 14.32927879 -6.54148135 14.32927879 -6.375 11.4375 C-6.26285156 9.98150391 -6.26285156 9.98150391 -6.1484375 8.49609375 C-6.05942176 6.99922374 -6 5.49951447 -6 4 C-5.195625 3.71125 -4.39125 3.4225 -3.5625 3.125 C-0.8673532 2.26737432 -0.8673532 2.26737432 0 0 Z " fill="#0E4A33" transform="translate(171,149)"/>
<path d="M0 0 C0.639375 0.804375 1.27875 1.60875 1.9375 2.4375 C3.40603502 4.2750504 3.40603502 4.2750504 5 6 C4.95875 7.11375 4.9175 8.2275 4.875 9.375 C4.64769995 12.89732677 4.64769995 12.89732677 6.375 14.8125 C6.91125 15.204375 7.4475 15.59625 8 16 C8.66 16.66 9.32 17.32 10 18 C9.625 20.625 9.625 20.625 9 23 C8.67 23 8.34 23 8 23 C7.87625 22.195625 7.7525 21.39125 7.625 20.5625 C7.41875 19.716875 7.2125 18.87125 7 18 C6.34 17.67 5.68 17.34 5 17 C4.896875 17.61875 4.79375 18.2375 4.6875 18.875 C4 21 4 21 1 23 C0.20046862 19.71303767 -0.09658936 18.28976808 1 15 C1.2006697 9.88292253 0.70908905 5.05225946 0 0 Z " fill="#B0B2AF" transform="translate(156,143)"/>
<path d="M0 0 C2.04219706 1.69179328 2.91793306 2.63727666 3.51171875 5.26171875 C3.59873047 6.46248047 3.59873047 6.46248047 3.6875 7.6875 C3.78611328 8.89986328 3.78611328 8.89986328 3.88671875 10.13671875 C3.92410156 10.75160156 3.96148437 11.36648437 4 12 C-2.75 13.125 -2.75 13.125 -5 12 C-4.42365861 7.24518354 -2.44931479 4.02951788 0 0 Z " fill="#165440" transform="translate(201,147)"/>
<path d="M0 0 C2 2 2 2 2.375 5 C2.58125 5.99 2.7875 6.98 3 8 C4.79932579 9.06716704 4.79932579 9.06716704 7 10 C8.81267775 11.9053715 10.37597116 13.92485204 12 16 C11.34 16.33 10.68 16.66 10 17 C9.34 16.67 8.68 16.34 8 16 C8 15.34 8 14.68 8 14 C7.34 14 6.68 14 6 14 C5.67 14.66 5.34 15.32 5 16 C4.34 16.33 3.68 16.66 3 17 C0.15035942 10.92158211 -1.72805471 6.62420971 0 0 Z " fill="#498E5F" transform="translate(126,50)"/>
<path d="M0 0 C3.38379992 4.2152479 5.79478296 8.50018336 6 14 C4.16620342 17.24963382 1.82393753 19.58718464 -1 22 C-1.84115904 19.22358695 -2.11530717 18.30748578 -1.0625 15.5 C0.49778919 10.36022385 0.15531822 5.33259218 0 0 Z " fill="#268658" transform="translate(129,102)"/>
<path d="M0 0 C0.66 0 1.32 0 2 0 C6 6.625 6 6.625 6 10 C5.01 10.495 5.01 10.495 4 11 C4 12.98 4 14.96 4 17 C2.35 17.33 0.7 17.66 -1 18 C-0.505 9.09 -0.505 9.09 0 0 Z " fill="#5A8C5E" transform="translate(117,195)"/>
<path d="M0 0 C-1.26953125 1.49739583 -2.5390625 2.99479167 -3.80859375 4.4921875 C-5.0878152 6.00594079 -5.0878152 6.00594079 -6 8 C-9.75920564 9.93330576 -12.80924525 10.19491883 -17 10 C-6.04511278 -2.01503759 -6.04511278 -2.01503759 0 0 Z " fill="#90AE74" transform="translate(102,55)"/>
<path d="M0 0 C4.62 0 9.24 0 14 0 C9.86805556 4.86111111 9.86805556 4.86111111 5.875 5.5 C3 5 3 5 1.125 3.625 C0 2 0 2 0 0 Z " fill="#2A6F47" transform="translate(148,74)"/>
<path d="M0 0 C0.66 0 1.32 0 2 0 C2.33 4.95 2.66 9.9 3 15 C2.01 15.33 1.02 15.66 0 16 C-0.309375 14.88625 -0.61875 13.7725 -0.9375 12.625 C-1.82326483 9.2054845 -1.82326483 9.2054845 -3 7 C-2.06421005 4.64018187 -1.06652192 2.30368736 0 0 Z " fill="#256948" transform="translate(204,139)"/>
<path d="M0 0 C-1.53643852 3.68069887 -3.78150945 5.98775204 -6.625 8.75 C-7.85089844 9.94882813 -7.85089844 9.94882813 -9.1015625 11.171875 C-9.72804687 11.77515625 -10.35453125 12.3784375 -11 13 C-11.33 12.01 -11.66 11.02 -12 10 C-10.890625 8.02734375 -10.890625 8.02734375 -9.25 5.9375 C-8.45335937 4.89916016 -8.45335937 4.89916016 -7.640625 3.83984375 C-5.19072929 1.0924607 -3.72911458 0 0 0 Z " fill="#27664B" transform="translate(218,161)"/>
<path d="M0 0 C0.33 0 0.66 0 1 0 C1.28307925 7.24997422 0.50974035 13.90961228 -1 21 C-1.33 21 -1.66 21 -2 21 C-2.05390357 18.06225537 -2.0936255 15.12549768 -2.125 12.1875 C-2.14175781 11.35412109 -2.15851563 10.52074219 -2.17578125 9.66210938 C-2.18222656 8.85966797 -2.18867187 8.05722656 -2.1953125 7.23046875 C-2.20578613 6.49207764 -2.21625977 5.75368652 -2.22705078 4.99291992 C-2 3 -2 3 0 0 Z " fill="#6FA262" transform="translate(78,125)"/>
<path d="M0 0 C0 2.64 0 5.28 0 8 C-0.33 7.34 -0.66 6.68 -1 6 C-2.98 6.99 -2.98 6.99 -5 8 C-5.33 7.34 -5.66 6.68 -6 6 C-8.64 6 -11.28 6 -14 6 C-13.42507812 5.71382813 -12.85015625 5.42765625 -12.2578125 5.1328125 C-10.8108611 4.40683342 -9.36774192 3.6731345 -7.9296875 2.9296875 C-7.25164062 2.58164063 -6.57359375 2.23359375 -5.875 1.875 C-5.19179687 1.52179688 -4.50859375 1.16859375 -3.8046875 0.8046875 C-2 0 -2 0 0 0 Z " fill="#47754B" transform="translate(250,78)"/>
<path d="M0 0 C0.66 0 1.32 0 2 0 C2.33 1.65 2.66 3.3 3 5 C2.01 5 1.02 5 0 5 C0 8.63 0 12.26 0 16 C-0.66 16.33 -1.32 16.66 -2 17 C-2 15.35 -2 13.7 -2 12 C-2.33 12.66 -2.66 13.32 -3 14 C-3.66 13.67 -4.32 13.34 -5 13 C-4.35780498 11.01964979 -3.71114356 9.04074744 -3.0625 7.0625 C-2.70285156 5.96035156 -2.34320313 4.85820312 -1.97265625 3.72265625 C-1 1 -1 1 0 0 Z " fill="#698062" transform="translate(124,13)"/>
<path d="M0 0 C0.99 0.33 1.98 0.66 3 1 C4.58466433 4.6583108 4.11064817 8.83147995 4.0625 12.75 C4.05798828 13.44738281 4.05347656 14.14476562 4.04882812 14.86328125 C4.0371002 16.57555803 4.01916653 18.28779033 4 20 C3.67 20 3.34 20 3 20 C2.67 16.37 2.34 12.74 2 9 C1.01 9.66 0.02 10.32 -1 11 C-1.125 3.375 -1.125 3.375 0 0 Z " fill="#1E704D" transform="translate(169,142)"/>
<path d="M0 0 C1.32 0 2.64 0 4 0 C4.33 1.32 4.66 2.64 5 4 C6.65 4 8.3 4 10 4 C9.25 5.9375 9.25 5.9375 8 8 C6.68 8.33 5.36 8.66 4 9 C1.525 5.04 1.525 5.04 -1 1 C-0.67 0.67 -0.34 0.34 0 0 Z " fill="#336741" transform="translate(136,37)"/>
<path d="M0 0 C1.32 0.33 2.64 0.66 4 1 C3.84152588 1.54817383 3.68305176 2.09634766 3.51977539 2.66113281 C2.9372438 5.28238816 2.78793845 7.73872553 2.68359375 10.421875 C2.64169922 11.44667969 2.59980469 12.47148437 2.55664062 13.52734375 C2.49766602 15.12255859 2.49766602 15.12255859 2.4375 16.75 C2.39431641 17.82894531 2.35113281 18.90789063 2.30664062 20.01953125 C2.20071011 22.67956428 2.09863579 25.33968812 2 28 C1.67 28 1.34 28 1 28 C0.67 18.76 0.34 9.52 0 0 Z " fill="#487642" transform="translate(124,18)"/>
<path d="M0 0 C0.66 0 1.32 0 2 0 C1.1377511 6.62773407 0.35533057 10.77210744 -5 15 C-4.43174347 9.45949887 -2.37113483 4.96284034 0 0 Z " fill="#176948" transform="translate(203,176)"/>
<path d="M0 0 C0.99 0.33 1.98 0.66 3 1 C3.25 6.625 3.25 6.625 1 10 C-0.65 9.67 -2.3 9.34 -4 9 C-2.68 6.03 -1.36 3.06 0 0 Z " fill="#C5C9C7" transform="translate(161,160)"/>
<path d="M0 0 C2.31 0.66 4.62 1.32 7 2 C7 2.66 7 3.32 7 4 C7.66 4 8.32 4 9 4 C9.95024979 7.69541586 9.95024979 10.30458414 9 14 C8.67 14 8.34 14 8 14 C7.67 11.36 7.34 8.72 7 6 C6.401875 5.938125 5.80375 5.87625 5.1875 5.8125 C2.12856542 4.6763243 1.44958901 2.82669858 0 0 Z " fill="#B7B5B3" transform="translate(121,184)"/>
<path d="M0 0 C1.77007714 -0.08114106 3.54122098 -0.13925505 5.3125 -0.1875 C6.29863281 -0.22230469 7.28476563 -0.25710937 8.30078125 -0.29296875 C11 0 11 0 14 3 C6.08 3.495 6.08 3.495 -2 4 C-1.34 2.68 -0.68 1.36 0 0 Z " fill="#3D9259" transform="translate(156,122)"/>
<path d="M0 0 C0.33 0 0.66 0 1 0 C1.7353131 3.58465137 2.13201588 7.09839164 2.25 10.75 C2.27578125 11.50796875 2.3015625 12.2659375 2.328125 13.046875 C2.21984375 13.69140625 2.1115625 14.3359375 2 15 C1.01 15.66 0.02 16.32 -1 17 C-2.26237731 13.21286807 -1.67558873 10.74348067 -1.0625 6.8125 C-0.86785156 5.54019531 -0.67320313 4.26789062 -0.47265625 2.95703125 C-0.31667969 1.98121094 -0.16070312 1.00539062 0 0 Z " fill="#0E3D2F" transform="translate(124,40)"/>
<path d="M0 0 C1.46726798 3.81489674 0.43336419 6.29011622 -1 10 C-4 10 -4 10 -7 9 C-6.01 7.02 -5.02 5.04 -4 3 C-3.01 3 -2.02 3 -1 3 C-0.67 2.01 -0.34 1.02 0 0 Z " fill="#8BAB74" transform="translate(122,24)"/>
<path d="M0 0 C-0.99 0.495 -0.99 0.495 -2 1 C-1.01 1.66 -0.02 2.32 1 3 C-0.45823212 3.0270043 -1.91660675 3.04639787 -3.375 3.0625 C-4.18710938 3.07410156 -4.99921875 3.08570312 -5.8359375 3.09765625 C-8 3 -8 3 -10 2 C-10.33 2.99 -10.66 3.98 -11 5 C-11.66 5 -12.32 5 -13 5 C-13 3.68 -13 2.36 -13 1 C-11.39796533 0.63631108 -9.79325797 0.28438048 -8.1875 -0.0625 C-7.29417969 -0.25972656 -6.40085937 -0.45695312 -5.48046875 -0.66015625 C-3 -1 -3 -1 0 0 Z " fill="#5C8061" transform="translate(89,63)"/>
<path d="M0 0 C3.09423168 3.09423168 3.93706005 6.5523812 4.125 10.875 C4.08375 11.57625 4.0425 12.2775 4 13 C3.01 12.67 2.02 12.34 1 12 C-0.67563646 7.64334521 -1.36503641 4.50462014 0 0 Z " fill="#2A6E50" transform="translate(126,50)"/>
<path d="M0 0 C3.10444669 2.06963113 4.39508995 3.68987302 6 7 C7.29470975 8.37086915 8.62150897 9.71340837 10 11 C8.68 11 7.36 11 6 11 C5.34 11.66 4.68 12.32 4 13 C3.87882812 12.43410156 3.75765625 11.86820313 3.6328125 11.28515625 C3.38144531 10.18494141 3.38144531 10.18494141 3.125 9.0625 C2.96257812 8.33160156 2.80015625 7.60070312 2.6328125 6.84765625 C2.17038477 4.79299706 2.17038477 4.79299706 0 4 C0 2.68 0 1.36 0 0 Z " fill="#B7B2B2" transform="translate(102,165)"/>
<path d="M0 0 C0 0.99 0 1.98 0 3 C-2.86724686 2.42655063 -3.8614515 2.1385485 -6 0 C-8.89223503 -0.46396693 -8.89223503 -0.46396693 -12.125 -0.625 C-13.76855469 -0.73714844 -13.76855469 -0.73714844 -15.4453125 -0.8515625 C-16.70988281 -0.92503906 -16.70988281 -0.92503906 -18 -1 C-18 -1.33 -18 -1.66 -18 -2 C-5.33029613 -3.70159453 -5.33029613 -3.70159453 0 0 Z " fill="#6F9A65" transform="translate(98,81)"/>
<path d="M0 0 C0.99 0.99 1.98 1.98 3 3 C2.21625 3.70125 1.4325 4.4025 0.625 5.125 C-2.08360818 8.09157086 -3.01722715 10.1582516 -4 14 C-4.33 13.01 -4.66 12.02 -5 11 C-5.99 11.33 -6.98 11.66 -8 12 C-8.33 11.34 -8.66 10.68 -9 10 C-8.39671875 9.92910156 -7.7934375 9.85820312 -7.171875 9.78515625 C-4.18077346 8.70384076 -3.66622754 7.23061543 -2.25 4.4375 C-1.82203125 3.61121094 -1.3940625 2.78492188 -0.953125 1.93359375 C-0.48132813 0.97646484 -0.48132813 0.97646484 0 0 Z " fill="#BDB9B9" transform="translate(97,159)"/>
<path d="M0 0 C0.33 0 0.66 0 1 0 C1.33 5.61 1.66 11.22 2 17 C0.35 16.67 -1.3 16.34 -3 16 C-3.33 15.34 -3.66 14.68 -4 14 C-2.68 14.33 -1.36 14.66 0 15 C0 10.05 0 5.1 0 0 Z " fill="#429165" transform="translate(170,126)"/>
<path d="M0 0 C2.97 0.495 2.97 0.495 6 1 C4.68 1.33 3.36 1.66 2 2 C1.67 4.97 1.34 7.94 1 11 C0.34 11 -0.32 11 -1 11 C-0.67 7.37 -0.34 3.74 0 0 Z " fill="#86A890" transform="translate(25,157)"/>
<path d="M0 0 C2.475 0.99 2.475 0.99 5 2 C3.02 2.99 3.02 2.99 1 4 C1.66 4.33 2.32 4.66 3 5 C3 5.66 3 6.32 3 7 C0.69 6.67 -1.62 6.34 -4 6 C-2.84826645 3.53199953 -1.95216435 1.95216435 0 0 Z " fill="#6A946A" transform="translate(157,78)"/>
<path d="M0 0 C0.65234375 1.765625 0.65234375 1.765625 1 4 C0.00390625 5.921875 0.00390625 5.921875 -1.4375 7.75 C-2.14712891 8.67039063 -2.14712891 8.67039063 -2.87109375 9.609375 C-3.24363281 10.06828125 -3.61617188 10.5271875 -4 11 C-4.6171875 9.19921875 -4.6171875 9.19921875 -5 7 C-3.50594347 4.4601039 -2.09462345 2.09462345 0 0 Z " fill="#386340" transform="translate(131,196)"/>
<path d="M0 0 C0.33 0 0.66 0 1 0 C1.19466332 1.79090253 1.38051213 3.58276505 1.5625 5.375 C1.66691406 6.37273437 1.77132812 7.37046875 1.87890625 8.3984375 C2 11 2 11 1 13 C0.34 13 -0.32 13 -1 13 C-2.01936725 9.94189824 -2.00186825 8.50198793 -1.625 5.375 C-1.53476563 4.57835937 -1.44453125 3.78171875 -1.3515625 2.9609375 C-1 1 -1 1 0 0 Z " fill="#B6ACA6" transform="translate(125,127)"/>
<path d="M0 0 C0.33 0.66 0.66 1.32 1 2 C0.34 2 -0.32 2 -1 2 C-1 3.32 -1 4.64 -1 6 C-3.70879335 7.35439668 -6.00933268 7.06501451 -9 7 C-6.19195732 4.03595495 -3.81684226 1.55500981 0 0 Z " fill="#7D9072" transform="translate(94,58)"/>
<path d="M0 0 C2.95183101 2.95183101 3.08663988 5.95511947 4 10 C3.01 10.66 2.02 11.32 1 12 C-0.3271261 8.0186217 -0.06915913 4.14954773 0 0 Z " fill="#3C955C" transform="translate(131,106)"/>
<path d="M0 0 C0.33 0 0.66 0 1 0 C1 1.65 1 3.3 1 5 C1.66 5.33 2.32 5.66 3 6 C1.02 6.66 -0.96 7.32 -3 8 C-3 6.35 -3 4.7 -3 3 C-2.01 2.67 -1.02 2.34 0 2 C0 1.34 0 0.68 0 0 Z " fill="#6BA36A" transform="translate(123,203)"/>
<path d="M0 0 C4.84688192 0.78175515 9.3766367 2.39844278 14 4 C14 4.33 14 4.66 14 5 C11.03 5 8.06 5 5 5 C4.67 4.34 4.34 3.68 4 3 C1.97536745 2.34786708 1.97536745 2.34786708 0 2 C0 1.34 0 0.68 0 0 Z " fill="#5B6D49" transform="translate(0,79)"/>
<path d="M0 0 C2.475 0.495 2.475 0.495 5 1 C4.67 2.32 4.34 3.64 4 5 C3.34 5 2.68 5 2 5 C2 5.66 2 6.32 2 7 C1.34 7 0.68 7 0 7 C0 4.69 0 2.38 0 0 Z " fill="#77A264" transform="translate(0,81)"/>
<path d="M0 0 C2.97 0 5.94 0 9 0 C8.67 0.99 8.34 1.98 8 3 C5.69 3 3.38 3 1 3 C0.67 2.01 0.34 1.02 0 0 Z " fill="#1B5A39" transform="translate(151,75)"/>
<path d="M0 0 C0.99 0 1.98 0 3 0 C3.5345256 1.24420647 4.05208611 2.49570936 4.5625 3.75 C4.85253906 4.44609375 5.14257812 5.1421875 5.44140625 5.859375 C6.07831803 8.30012784 5.80248831 9.6403655 5 12 C4.16440201 10.18854294 3.33157951 8.37580533 2.5 6.5625 C2.0359375 5.55316406 1.571875 4.54382813 1.09375 3.50390625 C0 1 0 1 0 0 Z " fill="#4F735B" transform="translate(0,88)"/>
<path d="M0 0 C0.66386719 0.27714844 1.32773438 0.55429688 2.01171875 0.83984375 C3.33623047 1.38318359 3.33623047 1.38318359 4.6875 1.9375 C5.55761719 2.29714844 6.42773438 2.65679687 7.32421875 3.02734375 C9.88179265 3.9570312 12.3221323 4.54162625 15 5 C15 5.33 15 5.66 15 6 C13.24908981 5.91245449 11.49920449 5.80426627 9.75 5.6875 C8.77546875 5.62949219 7.8009375 5.57148437 6.796875 5.51171875 C3.72170503 4.9490829 2.23652952 4.15665346 0 2 C0 1.34 0 0.68 0 0 Z " fill="#59674D" transform="translate(208,78)"/>
<path d="M0 0 C3.00617269 3.00617269 2.59585316 5.82381598 3 10 C2.01 10.495 2.01 10.495 1 11 C0.63890458 9.35567294 0.28629924 7.7094792 -0.0625 6.0625 C-0.25972656 5.14597656 -0.45695312 4.22945312 -0.66015625 3.28515625 C-0.77230469 2.53105469 -0.88445313 1.77695313 -1 1 C-0.67 0.67 -0.34 0.34 0 0 Z " fill="#6B8F78" transform="translate(25,182)"/>
<path d="M0 0 C0.66 0.66 1.32 1.32 2 2 C-0.31 4.31 -2.62 6.62 -5 9 C-5.33 8.34 -5.66 7.68 -6 7 C-4.02 4.69 -2.04 2.38 0 0 Z " fill="#336C50" transform="translate(139,235)"/>
<path d="M0 0 C0.66 0 1.32 0 2 0 C2 1.98 2 3.96 2 6 C0.68 6 -0.64 6 -2 6 C-1.34 4.02 -0.68 2.04 0 0 Z " fill="#41784B" transform="translate(204,139)"/>
<path d="M0 0 C0.33 0 0.66 0 1 0 C1.3125 3.25 1.3125 3.25 1 7 C-1.5 9.4375 -1.5 9.4375 -4 11 C-2.7874262 7.27566618 -1.49140021 3.62197194 0 0 Z " fill="#428959" transform="translate(121,31)"/>
<path d="M0 0 C0.66 0 1.32 0 2 0 C2 2.64 2 5.28 2 8 C1.01 8.495 1.01 8.495 0 9 C0 7.35 0 5.7 0 4 C-0.33 4.66 -0.66 5.32 -1 6 C-1.66 5.67 -2.32 5.34 -3 5 C-1.625 2.5 -1.625 2.5 0 0 Z " fill="#5A8952" transform="translate(122,21)"/>
<path d="M0 0 C0.33 0 0.66 0 1 0 C1.33 2.64 1.66 5.28 2 8 C1.01 8.66 0.02 9.32 -1 10 C-1.02689216 8.52093108 -1.04634621 7.04172517 -1.0625 5.5625 C-1.07410156 4.73878906 -1.08570312 3.91507812 -1.09765625 3.06640625 C-1 1 -1 1 0 0 Z " fill="#2A6C4B" transform="translate(125,258)"/>
<path d="M0 0 C4.03174806 0.27489191 5.56894631 0.53491576 8.375 3.5625 C8.91125 4.366875 9.4475 5.17125 10 6 C6.40992874 4.66654496 3.20429093 3.1056769 0 1 C0 0.67 0 0.34 0 0 Z " fill="#AFA59E" transform="translate(115,179)"/>
<path d="M0 0 C0.99 0.33 1.98 0.66 3 1 C5.00875442 0.72428861 7.01178687 0.39764263 9 0 C9.33 0.66 9.66 1.32 10 2 C7.03 2.66 4.06 3.32 1 4 C0.67 2.68 0.34 1.36 0 0 Z " fill="#D5DAD6" transform="translate(143,119)"/>
<path d="M0 0 C3.37503669 1.1858237 5.64722731 2.27573689 8 5 C5.36 4.67 2.72 4.34 0 4 C0 2.68 0 1.36 0 0 Z " fill="#598272" transform="translate(12,131)"/>
<path d="M0 0 C0.99 0.33 1.98 0.66 3 1 C0.69 2.65 -1.62 4.3 -4 6 C-4.66 5.34 -5.32 4.68 -6 4 C-3.1875 1.9375 -3.1875 1.9375 0 0 Z " fill="#4D6E60" transform="translate(193,230)"/>
<path d="M0 0 C1.65 0 3.3 0 5 0 C4.6875 2.875 4.6875 2.875 4 6 C3.01 6.66 2.02 7.32 1 8 C1.66 6.02 2.32 4.04 3 2 C2.01 1.67 1.02 1.34 0 1 C0 0.67 0 0.34 0 0 Z " fill="#358867" transform="translate(161,126)"/>
<path d="M0 0 C0.8125 1.6875 0.8125 1.6875 1 4 C-1.4375 6.75 -1.4375 6.75 -4 9 C-3.46930939 5.17902761 -2.50298434 2.93828597 0 0 Z " fill="#2A9260" transform="translate(131,115)"/>
<path d="M0 0 C0.66 0.33 1.32 0.66 2 1 C2 2.65 2 4.3 2 6 C1.01 6.33 0.02 6.66 -1 7 C-1.66 5.35 -2.32 3.7 -3 2 C-2.34 2 -1.68 2 -1 2 C-0.67 1.34 -0.34 0.68 0 0 Z " fill="#4D826A" transform="translate(130,60)"/>
<path d="M0 0 C0.66 0.33 1.32 0.66 2 1 C2.625 3.5625 2.625 3.5625 3 6 C2.01 5.67 1.02 5.34 0 5 C-0.33 5.99 -0.66 6.98 -1 8 C-1.04241723 5.66705225 -1.04092937 3.33297433 -1 1 C-0.67 0.67 -0.34 0.34 0 0 Z " fill="#7A9C6D" transform="translate(127,22)"/>
<path d="M0 0 C0.66 0 1.32 0 2 0 C2.66 2.31 3.32 4.62 4 7 C2.02 5.35 0.04 3.7 -2 2 C-1.34 1.34 -0.68 0.68 0 0 Z " fill="#2D4E48" transform="translate(90,170)"/>
<path d="M0 0 C2.0625 0.4375 2.0625 0.4375 4 1 C2.68 1.99 1.36 2.98 0 4 C-0.33 3.01 -0.66 2.02 -1 1 C-0.67 0.67 -0.34 0.34 0 0 Z " fill="#347357" transform="translate(218,159)"/>
<path d="M0 0 C0.33 0 0.66 0 1 0 C1.125 6.625 1.125 6.625 0 10 C-0.99 10 -1.98 10 -3 10 C-2.01 6.7 -1.02 3.4 0 0 Z " fill="#859583" transform="translate(139,27)"/>
</svg>
